solid ELC3_box3
   facet normal -1.000000e+00 0.000000e+00 0.000000e+00
      outer loop
         vertex 1.123452e+01 1.750000e+00 1.001638e+01
         vertex 1.123452e+01 1.275000e+01 0.000000e+00
         vertex 1.123452e+01 1.750000e+00 0.000000e+00
      endloop
   endfacet
   facet normal 0.000000e+00 0.000000e+00 -1.000000e+00
      outer loop
         vertex 1.123452e+01 1.275000e+01 0.000000e+00
         vertex 1.826893e+01 1.275000e+01 0.000000e+00
         vertex 1.123452e+01 1.750000e+00 0.000000e+00
      endloop
   endfacet
   facet normal 0.000000e+00 -0.000000e+00 -1.000000e+00
      outer loop
         vertex 1.826893e+01 1.275000e+01 0.000000e+00
         vertex 1.826893e+01 1.750000e+00 0.000000e+00
         vertex 1.123452e+01 1.750000e+00 0.000000e+00
      endloop
   endfacet
   facet normal 0.000000e+00 -1.000000e+00 0.000000e+00
      outer loop
         vertex 1.826893e+01 1.750000e+00 0.000000e+00
         vertex 1.826893e+01 1.750000e+00 1.001638e+01
         vertex 1.123452e+01 1.750000e+00 0.000000e+00
      endloop
   endfacet
   facet normal -0.000000e+00 -1.000000e+00 0.000000e+00
      outer loop
         vertex 1.826893e+01 1.750000e+00 1.001638e+01
         vertex 1.123452e+01 1.750000e+00 1.001638e+01
         vertex 1.123452e+01 1.750000e+00 0.000000e+00
      endloop
   endfacet
   facet normal 1.000000e+00 0.000000e+00 -0.000000e+00
      outer loop
         vertex 1.826893e+01 1.275000e+01 0.000000e+00
         vertex 1.826893e+01 1.275000e+01 1.001638e+01
         vertex 1.826893e+01 1.750000e+00 0.000000e+00
      endloop
   endfacet
   facet normal 1.000000e+00 0.000000e+00 0.000000e+00
      outer loop
         vertex 1.826893e+01 1.275000e+01 1.001638e+01
         vertex 1.826893e+01 1.750000e+00 1.001638e+01
         vertex 1.826893e+01 1.750000e+00 0.000000e+00
      endloop
   endfacet
   facet normal -1.000000e+00 -0.000000e+00 -0.000000e+00
      outer loop
         vertex 1.123452e+01 1.275000e+01 1.001638e+01
         vertex 1.123452e+01 1.275000e+01 0.000000e+00
         vertex 1.123452e+01 1.750000e+00 1.001638e+01
      endloop
   endfacet
   facet normal 0.000000e+00 0.000000e+00 1.000000e+00
      outer loop
         vertex 1.826893e+01 1.750000e+00 1.001638e+01
         vertex 1.123452e+01 1.275000e+01 1.001638e+01
         vertex 1.123452e+01 1.750000e+00 1.001638e+01
      endloop
   endfacet
   facet normal 0.000000e+00 0.000000e+00 1.000000e+00
      outer loop
         vertex 1.826893e+01 1.275000e+01 1.001638e+01
         vertex 1.123452e+01 1.275000e+01 1.001638e+01
         vertex 1.826893e+01 1.750000e+00 1.001638e+01
      endloop
   endfacet
   facet normal 0.000000e+00 1.000000e+00 0.000000e+00
      outer loop
         vertex 1.123452e+01 1.275000e+01 1.001638e+01
         vertex 1.826893e+01 1.275000e+01 0.000000e+00
         vertex 1.123452e+01 1.275000e+01 0.000000e+00
      endloop
   endfacet
   facet normal -0.000000e+00 1.000000e+00 0.000000e+00
      outer loop
         vertex 1.123452e+01 1.275000e+01 1.001638e+01
         vertex 1.826893e+01 1.275000e+01 1.001638e+01
         vertex 1.826893e+01 1.275000e+01 0.000000e+00
      endloop
   endfacet
endsolid