solid S6a-box
   facet normal -1.000000e+00 0.000000e+00 0.000000e+00
      outer loop
         vertex 1.050000e+01 0.000000e+00 1.650000e+01
         vertex 1.050000e+01 2.000000e+00 1.200000e+01
         vertex 1.050000e+01 0.000000e+00 1.200000e+01
      endloop
   endfacet
   facet normal 0.000000e+00 -0.000000e+00 -1.000000e+00
      outer loop
         vertex 1.350000e+01 2.000000e+00 1.200000e+01
         vertex 1.350000e+01 0.000000e+00 1.200000e+01
         vertex 1.050000e+01 0.000000e+00 1.200000e+01
      endloop
   endfacet
   facet normal 0.000000e+00 0.000000e+00 -1.000000e+00
      outer loop
         vertex 1.050000e+01 2.000000e+00 1.200000e+01
         vertex 1.350000e+01 2.000000e+00 1.200000e+01
         vertex 1.050000e+01 0.000000e+00 1.200000e+01
      endloop
   endfacet
   facet normal 0.000000e+00 -1.000000e+00 0.000000e+00
      outer loop
         vertex 1.350000e+01 0.000000e+00 1.200000e+01
         vertex 1.350000e+01 0.000000e+00 1.650000e+01
         vertex 1.050000e+01 0.000000e+00 1.200000e+01
      endloop
   endfacet
   facet normal -0.000000e+00 -1.000000e+00 0.000000e+00
      outer loop
         vertex 1.350000e+01 0.000000e+00 1.650000e+01
         vertex 1.050000e+01 0.000000e+00 1.650000e+01
         vertex 1.050000e+01 0.000000e+00 1.200000e+01
      endloop
   endfacet
   facet normal 1.000000e+00 0.000000e+00 0.000000e+00
      outer loop
         vertex 1.350000e+01 2.000000e+00 1.650000e+01
         vertex 1.350000e+01 0.000000e+00 1.650000e+01
         vertex 1.350000e+01 0.000000e+00 1.200000e+01
      endloop
   endfacet
   facet normal 1.000000e+00 0.000000e+00 -0.000000e+00
      outer loop
         vertex 1.350000e+01 2.000000e+00 1.200000e+01
         vertex 1.350000e+01 2.000000e+00 1.650000e+01
         vertex 1.350000e+01 0.000000e+00 1.200000e+01
      endloop
   endfacet
   facet normal -1.000000e+00 -0.000000e+00 -0.000000e+00
      outer loop
         vertex 1.050000e+01 2.000000e+00 1.650000e+01
         vertex 1.050000e+01 2.000000e+00 1.200000e+01
         vertex 1.050000e+01 0.000000e+00 1.650000e+01
      endloop
   endfacet
   facet normal 0.000000e+00 0.000000e+00 1.000000e+00
      outer loop
         vertex 1.350000e+01 0.000000e+00 1.650000e+01
         vertex 1.050000e+01 2.000000e+00 1.650000e+01
         vertex 1.050000e+01 0.000000e+00 1.650000e+01
      endloop
   endfacet
   facet normal 0.000000e+00 0.000000e+00 1.000000e+00
      outer loop
         vertex 1.350000e+01 2.000000e+00 1.650000e+01
         vertex 1.050000e+01 2.000000e+00 1.650000e+01
         vertex 1.350000e+01 0.000000e+00 1.650000e+01
      endloop
   endfacet
   facet normal -0.000000e+00 -1.000000e+00 0.000000e+00
      outer loop
         vertex 1.350000e+01 2.000000e+00 1.200000e+01
         vertex 1.050000e+01 2.000000e+00 1.200000e+01
         vertex 1.050000e+01 2.000000e+00 1.100000e+01
      endloop
   endfacet
   facet normal 0.000000e+00 -1.000000e+00 0.000000e+00
      outer loop
         vertex 1.450000e+01 2.000000e+00 1.100000e+01
         vertex 1.350000e+01 2.000000e+00 1.200000e+01
         vertex 1.050000e+01 2.000000e+00 1.100000e+01
      endloop
   endfacet
   facet normal 0.000000e+00 0.000000e+00 -1.000000e+00
      outer loop
         vertex 1.050000e+01 1.100000e+01 1.100000e+01
         vertex 1.450000e+01 2.000000e+00 1.100000e+01
         vertex 1.050000e+01 2.000000e+00 1.100000e+01
      endloop
   endfacet
   facet normal -1.000000e+00 0.000000e+00 -0.000000e+00
      outer loop
         vertex 1.050000e+01 1.100000e+01 1.750000e+01
         vertex 1.050000e+01 1.100000e+01 1.100000e+01
         vertex 1.050000e+01 2.000000e+00 1.100000e+01
      endloop
   endfacet
   facet normal -1.000000e+00 0.000000e+00 0.000000e+00
      outer loop
         vertex 1.050000e+01 2.000000e+00 1.200000e+01
         vertex 1.050000e+01 1.100000e+01 1.750000e+01
         vertex 1.050000e+01 2.000000e+00 1.100000e+01
      endloop
   endfacet
   facet normal 0.000000e+00 -1.000000e+00 0.000000e+00
      outer loop
         vertex 1.350000e+01 2.000000e+00 1.650000e+01
         vertex 1.350000e+01 2.000000e+00 1.200000e+01
         vertex 1.450000e+01 2.000000e+00 1.100000e+01
      endloop
   endfacet
   facet normal 0.000000e+00 -1.000000e+00 -0.000000e+00
      outer loop
         vertex 1.450000e+01 2.000000e+00 1.750000e+01
         vertex 1.350000e+01 2.000000e+00 1.650000e+01
         vertex 1.450000e+01 2.000000e+00 1.100000e+01
      endloop
   endfacet
   facet normal 0.000000e+00 0.000000e+00 -1.000000e+00
      outer loop
         vertex 1.050000e+01 1.100000e+01 1.100000e+01
         vertex 1.450000e+01 1.100000e+01 1.100000e+01
         vertex 1.450000e+01 2.000000e+00 1.100000e+01
      endloop
   endfacet
   facet normal 1.000000e+00 0.000000e+00 0.000000e+00
      outer loop
         vertex 1.450000e+01 1.100000e+01 1.100000e+01
         vertex 1.450000e+01 2.000000e+00 1.750000e+01
         vertex 1.450000e+01 2.000000e+00 1.100000e+01
      endloop
   endfacet
   facet normal -1.000000e+00 0.000000e+00 0.000000e+00
      outer loop
         vertex 1.050000e+01 2.000000e+00 1.650000e+01
         vertex 1.050000e+01 1.100000e+01 1.750000e+01
         vertex 1.050000e+01 2.000000e+00 1.200000e+01
      endloop
   endfacet
   facet normal 0.000000e+00 -1.000000e+00 0.000000e+00
      outer loop
         vertex 1.350000e+01 2.000000e+00 1.650000e+01
         vertex 1.450000e+01 2.000000e+00 1.750000e+01
         vertex 1.050000e+01 2.000000e+00 1.650000e+01
      endloop
   endfacet
   facet normal -0.000000e+00 -1.000000e+00 0.000000e+00
      outer loop
         vertex 1.450000e+01 2.000000e+00 1.750000e+01
         vertex 1.050000e+01 2.000000e+00 1.750000e+01
         vertex 1.050000e+01 2.000000e+00 1.650000e+01
      endloop
   endfacet
   facet normal -1.000000e+00 0.000000e+00 0.000000e+00
      outer loop
         vertex 1.050000e+01 2.000000e+00 1.750000e+01
         vertex 1.050000e+01 1.100000e+01 1.750000e+01
         vertex 1.050000e+01 2.000000e+00 1.650000e+01
      endloop
   endfacet
   facet normal 0.000000e+00 -0.000000e+00 1.000000e+00
      outer loop
         vertex 1.450000e+01 2.000000e+00 1.750000e+01
         vertex 1.450000e+01 1.100000e+01 1.750000e+01
         vertex 1.050000e+01 2.000000e+00 1.750000e+01
      endloop
   endfacet
   facet normal 0.000000e+00 0.000000e+00 1.000000e+00
      outer loop
         vertex 1.450000e+01 1.100000e+01 1.750000e+01
         vertex 1.050000e+01 1.100000e+01 1.750000e+01
         vertex 1.050000e+01 2.000000e+00 1.750000e+01
      endloop
   endfacet
   facet normal 1.000000e+00 0.000000e+00 -0.000000e+00
      outer loop
         vertex 1.450000e+01 1.100000e+01 1.100000e+01
         vertex 1.450000e+01 1.100000e+01 1.750000e+01
         vertex 1.450000e+01 2.000000e+00 1.750000e+01
      endloop
   endfacet
   facet normal 0.000000e+00 1.000000e+00 0.000000e+00
      outer loop
         vertex 1.050000e+01 1.100000e+01 1.750000e+01
         vertex 1.450000e+01 1.100000e+01 1.100000e+01
         vertex 1.050000e+01 1.100000e+01 1.100000e+01
      endloop
   endfacet
   facet normal -0.000000e+00 1.000000e+00 0.000000e+00
      outer loop
         vertex 1.050000e+01 1.100000e+01 1.750000e+01
         vertex 1.450000e+01 1.100000e+01 1.750000e+01
         vertex 1.450000e+01 1.100000e+01 1.100000e+01
      endloop
   endfacet
endsolid