solid MRM1-strut1-4pcs
   facet normal 9.961947e-01 -8.715579e-02 0.000000e+00
      outer loop
         vertex 1.950183e+01 1.195434e+00 0.000000e+00
         vertex 1.939724e+01 0.000000e+00 1.000002e+00
         vertex 1.939724e+01 0.000000e+00 0.000000e+00
      endloop
   endfacet
   facet normal -8.715573e-02 -9.961947e-01 -0.000000e+00
      outer loop
         vertex 1.000000e+00 1.609550e+00 1.000002e+00
         vertex 1.000000e+00 1.609550e+00 0.000000e+00
         vertex 1.939724e+01 0.000000e+00 0.000000e+00
      endloop
   endfacet
   facet normal -8.715573e-02 -9.961947e-01 -0.000000e+00
      outer loop
         vertex 1.939724e+01 0.000000e+00 1.000002e+00
         vertex 1.000000e+00 1.609550e+00 1.000002e+00
         vertex 1.939724e+01 0.000000e+00 0.000000e+00
      endloop
   endfacet
   facet normal 0.000000e+00 0.000000e+00 -1.000000e+00
      outer loop
         vertex 1.348529e+00 2.783641e+00 0.000000e+00
         vertex 1.950183e+01 1.195434e+00 0.000000e+00
         vertex 1.939724e+01 0.000000e+00 0.000000e+00
      endloop
   endfacet
   facet normal 0.000000e+00 0.000000e+00 -1.000000e+00
      outer loop
         vertex 1.000000e+00 1.609550e+00 0.000000e+00
         vertex 1.348529e+00 2.783641e+00 0.000000e+00
         vertex 1.939724e+01 0.000000e+00 0.000000e+00
      endloop
   endfacet
   facet normal 9.961947e-01 -8.715579e-02 0.000000e+00
      outer loop
         vertex 1.950183e+01 1.195434e+00 0.000000e+00
         vertex 1.950183e+01 1.195434e+00 1.000002e+00
         vertex 1.939724e+01 0.000000e+00 1.000002e+00
      endloop
   endfacet
   facet normal 0.000000e+00 0.000000e+00 1.000000e+00
      outer loop
         vertex 1.950183e+01 1.195434e+00 1.000002e+00
         vertex 1.000000e+00 1.609550e+00 1.000002e+00
         vertex 1.939724e+01 0.000000e+00 1.000002e+00
      endloop
   endfacet
   facet normal 8.715573e-02 9.961947e-01 0.000000e+00
      outer loop
         vertex 1.348529e+00 2.783641e+00 0.000000e+00
         vertex 1.950183e+01 1.195434e+00 1.000002e+00
         vertex 1.950183e+01 1.195434e+00 0.000000e+00
      endloop
   endfacet
   facet normal 8.715573e-02 9.961947e-01 -0.000000e+00
      outer loop
         vertex 1.348529e+00 2.783641e+00 0.000000e+00
         vertex 1.348529e+00 2.783641e+00 1.000002e+00
         vertex 1.950183e+01 1.195434e+00 1.000002e+00
      endloop
   endfacet
   facet normal 0.000000e+00 0.000000e+00 1.000000e+00
      outer loop
         vertex 1.348529e+00 2.783641e+00 1.000002e+00
         vertex 1.000000e+00 1.609550e+00 1.000002e+00
         vertex 1.950183e+01 1.195434e+00 1.000002e+00
      endloop
   endfacet
   facet normal 0.000000e+00 -1.000000e+00 0.000000e+00
      outer loop
         vertex 1.000000e+00 1.609550e+00 0.000000e+00
         vertex 0.000000e+00 1.609550e+00 1.000002e+00
         vertex 0.000000e+00 1.609550e+00 0.000000e+00
      endloop
   endfacet
   facet normal -1.000000e+00 0.000000e+00 -0.000000e+00
      outer loop
         vertex 0.000000e+00 4.381262e+00 1.000002e+00
         vertex 0.000000e+00 4.381262e+00 0.000000e+00
         vertex 0.000000e+00 1.609550e+00 0.000000e+00
      endloop
   endfacet
   facet normal -1.000000e+00 0.000000e+00 0.000000e+00
      outer loop
         vertex 0.000000e+00 1.609550e+00 1.000002e+00
         vertex 0.000000e+00 4.381262e+00 1.000002e+00
         vertex 0.000000e+00 1.609550e+00 0.000000e+00
      endloop
   endfacet
   facet normal 0.000000e+00 0.000000e+00 -1.000000e+00
      outer loop
         vertex 1.348529e+00 2.783641e+00 0.000000e+00
         vertex 1.000000e+00 1.609550e+00 0.000000e+00
         vertex 0.000000e+00 1.609550e+00 0.000000e+00
      endloop
   endfacet
   facet normal 0.000000e+00 0.000000e+00 -1.000000e+00
      outer loop
         vertex 0.000000e+00 4.381262e+00 0.000000e+00
         vertex 1.348529e+00 2.783641e+00 0.000000e+00
         vertex 0.000000e+00 1.609550e+00 0.000000e+00
      endloop
   endfacet
   facet normal -0.000000e+00 -1.000000e+00 -0.000000e+00
      outer loop
         vertex 1.000000e+00 1.609550e+00 1.000002e+00
         vertex 0.000000e+00 1.609550e+00 1.000002e+00
         vertex 1.000000e+00 1.609550e+00 0.000000e+00
      endloop
   endfacet
   facet normal 0.000000e+00 0.000000e+00 1.000000e+00
      outer loop
         vertex 4.999992e-01 4.381262e+00 1.000002e+00
         vertex 0.000000e+00 4.381262e+00 1.000002e+00
         vertex 0.000000e+00 1.609550e+00 1.000002e+00
      endloop
   endfacet
   facet normal 0.000000e+00 0.000000e+00 1.000000e+00
      outer loop
         vertex 1.348529e+00 2.783641e+00 1.000002e+00
         vertex 4.999992e-01 4.381262e+00 1.000002e+00
         vertex 0.000000e+00 1.609550e+00 1.000002e+00
      endloop
   endfacet
   facet normal 0.000000e+00 -0.000000e+00 1.000000e+00
      outer loop
         vertex 1.000000e+00 1.609550e+00 1.000002e+00
         vertex 1.348529e+00 2.783641e+00 1.000002e+00
         vertex 0.000000e+00 1.609550e+00 1.000002e+00
      endloop
   endfacet
   facet normal 1.000000e+00 0.000000e+00 0.000000e+00
      outer loop
         vertex 1.348529e+00 3.532733e+00 0.000000e+00
         vertex 1.348529e+00 2.783641e+00 1.000002e+00
         vertex 1.348529e+00 2.783641e+00 0.000000e+00
      endloop
   endfacet
   facet normal 0.000000e+00 0.000000e+00 -1.000000e+00
      outer loop
         vertex 0.000000e+00 4.381262e+00 0.000000e+00
         vertex 4.999992e-01 4.381262e+00 0.000000e+00
         vertex 1.348529e+00 2.783641e+00 0.000000e+00
      endloop
   endfacet
   facet normal 0.000000e+00 0.000000e+00 -1.000000e+00
      outer loop
         vertex 4.999992e-01 4.381262e+00 0.000000e+00
         vertex 1.348529e+00 3.532733e+00 0.000000e+00
         vertex 1.348529e+00 2.783641e+00 0.000000e+00
      endloop
   endfacet
   facet normal 1.000000e+00 0.000000e+00 -0.000000e+00
      outer loop
         vertex 1.348529e+00 3.532733e+00 0.000000e+00
         vertex 1.348529e+00 3.532733e+00 1.000002e+00
         vertex 1.348529e+00 2.783641e+00 1.000002e+00
      endloop
   endfacet
   facet normal 0.000000e+00 0.000000e+00 1.000000e+00
      outer loop
         vertex 1.348529e+00 3.532733e+00 1.000002e+00
         vertex 4.999992e-01 4.381262e+00 1.000002e+00
         vertex 1.348529e+00 2.783641e+00 1.000002e+00
      endloop
   endfacet
   facet normal 7.071068e-01 -7.071068e-01 0.000000e+00
      outer loop
         vertex 1.280792e+01 1.499212e+01 0.000000e+00
         vertex 1.348529e+00 3.532733e+00 1.000002e+00
         vertex 1.348529e+00 3.532733e+00 0.000000e+00
      endloop
   endfacet
   facet normal 0.000000e+00 0.000000e+00 -1.000000e+00
      outer loop
         vertex 4.999992e-01 4.381262e+00 0.000000e+00
         vertex 1.280792e+01 1.499212e+01 0.000000e+00
         vertex 1.348529e+00 3.532733e+00 0.000000e+00
      endloop
   endfacet
   facet normal 7.071068e-01 -7.071068e-01 0.000000e+00
      outer loop
         vertex 1.280792e+01 1.499212e+01 0.000000e+00
         vertex 1.280792e+01 1.499212e+01 1.000002e+00
         vertex 1.348529e+00 3.532733e+00 1.000002e+00
      endloop
   endfacet
   facet normal 0.000000e+00 0.000000e+00 1.000000e+00
      outer loop
         vertex 1.280792e+01 1.499212e+01 1.000002e+00
         vertex 1.195939e+01 1.584065e+01 1.000002e+00
         vertex 1.348529e+00 3.532733e+00 1.000002e+00
      endloop
   endfacet
   facet normal 0.000000e+00 0.000000e+00 1.000000e+00
      outer loop
         vertex 1.195939e+01 1.584065e+01 1.000002e+00
         vertex 4.999992e-01 4.381262e+00 1.000002e+00
         vertex 1.348529e+00 3.532733e+00 1.000002e+00
      endloop
   endfacet
   facet normal 0.000000e+00 1.000000e+00 0.000000e+00
      outer loop
         vertex 4.999992e-01 4.381262e+00 1.000002e+00
         vertex 4.999992e-01 4.381262e+00 0.000000e+00
         vertex 0.000000e+00 4.381262e+00 0.000000e+00
      endloop
   endfacet
   facet normal -0.000000e+00 1.000000e+00 0.000000e+00
      outer loop
         vertex 0.000000e+00 4.381262e+00 1.000002e+00
         vertex 4.999992e-01 4.381262e+00 1.000002e+00
         vertex 0.000000e+00 4.381262e+00 0.000000e+00
      endloop
   endfacet
   facet normal -7.071068e-01 7.071068e-01 0.000000e+00
      outer loop
         vertex 1.195939e+01 1.584065e+01 1.000002e+00
         vertex 1.195939e+01 1.584065e+01 0.000000e+00
         vertex 4.999992e-01 4.381262e+00 0.000000e+00
      endloop
   endfacet
   facet normal -7.071068e-01 7.071068e-01 0.000000e+00
      outer loop
         vertex 4.999992e-01 4.381262e+00 1.000002e+00
         vertex 1.195939e+01 1.584065e+01 1.000002e+00
         vertex 4.999992e-01 4.381262e+00 0.000000e+00
      endloop
   endfacet
   facet normal 0.000000e+00 -0.000000e+00 -1.000000e+00
      outer loop
         vertex 1.195939e+01 1.584065e+01 0.000000e+00
         vertex 1.280792e+01 1.499212e+01 0.000000e+00
         vertex 4.999992e-01 4.381262e+00 0.000000e+00
      endloop
   endfacet
   facet normal 7.071070e-01 7.071066e-01 0.000000e+00
      outer loop
         vertex 1.195939e+01 1.584065e+01 0.000000e+00
         vertex 1.280792e+01 1.499212e+01 1.000002e+00
         vertex 1.280792e+01 1.499212e+01 0.000000e+00
      endloop
   endfacet
   facet normal 7.071070e-01 7.071066e-01 -0.000000e+00
      outer loop
         vertex 1.195939e+01 1.584065e+01 0.000000e+00
         vertex 1.195939e+01 1.584065e+01 1.000002e+00
         vertex 1.280792e+01 1.499212e+01 1.000002e+00
      endloop
   endfacet
endsolid