solid MRM1-barell-console
   facet normal 0.000000e+00 -1.000000e+00 0.000000e+00
      outer loop
         vertex 6.518641e+00 0.000000e+00 2.490580e+00
         vertex 6.518641e+00 0.000000e+00 9.661738e+00
         vertex 5.518640e+00 0.000000e+00 2.490580e+00
      endloop
   endfacet
   facet normal -0.000000e+00 -1.000000e+00 0.000000e+00
      outer loop
         vertex 6.518641e+00 0.000000e+00 9.661738e+00
         vertex 5.518640e+00 0.000000e+00 9.661738e+00
         vertex 5.518640e+00 0.000000e+00 2.490580e+00
      endloop
   endfacet
   facet normal 0.000000e+00 -6.295072e-01 -7.769947e-01
      outer loop
         vertex 5.518640e+00 3.074099e+00 0.000000e+00
         vertex 6.518641e+00 0.000000e+00 2.490580e+00
         vertex 5.518640e+00 0.000000e+00 2.490580e+00
      endloop
   endfacet
   facet normal -1.000000e+00 0.000000e+00 -0.000000e+00
      outer loop
         vertex 5.518640e+00 3.074099e+00 1.215232e+01
         vertex 5.518640e+00 3.074099e+00 0.000000e+00
         vertex 5.518640e+00 0.000000e+00 2.490580e+00
      endloop
   endfacet
   facet normal -1.000000e+00 0.000000e+00 0.000000e+00
      outer loop
         vertex 5.518640e+00 0.000000e+00 9.661738e+00
         vertex 5.518640e+00 3.074099e+00 1.215232e+01
         vertex 5.518640e+00 0.000000e+00 2.490580e+00
      endloop
   endfacet
   facet normal 0.000000e+00 -6.295072e-01 -7.769947e-01
      outer loop
         vertex 5.518640e+00 3.074099e+00 0.000000e+00
         vertex 6.518641e+00 3.074099e+00 0.000000e+00
         vertex 6.518641e+00 0.000000e+00 2.490580e+00
      endloop
   endfacet
   facet normal 1.000000e+00 0.000000e+00 0.000000e+00
      outer loop
         vertex 6.518641e+00 3.074099e+00 0.000000e+00
         vertex 6.518641e+00 0.000000e+00 9.661738e+00
         vertex 6.518641e+00 0.000000e+00 2.490580e+00
      endloop
   endfacet
   facet normal 0.000000e+00 -6.295070e-01 7.769948e-01
      outer loop
         vertex 6.518641e+00 0.000000e+00 9.661738e+00
         vertex 6.518641e+00 3.074099e+00 1.215232e+01
         vertex 5.518640e+00 0.000000e+00 9.661738e+00
      endloop
   endfacet
   facet normal 0.000000e+00 -6.295070e-01 7.769948e-01
      outer loop
         vertex 6.518641e+00 3.074099e+00 1.215232e+01
         vertex 5.518640e+00 3.074099e+00 1.215232e+01
         vertex 5.518640e+00 0.000000e+00 9.661738e+00
      endloop
   endfacet
   facet normal 1.000000e+00 0.000000e+00 -0.000000e+00
      outer loop
         vertex 6.518641e+00 3.074099e+00 0.000000e+00
         vertex 6.518641e+00 3.074099e+00 1.215232e+01
         vertex 6.518641e+00 0.000000e+00 9.661738e+00
      endloop
   endfacet
   facet normal 0.000000e+00 1.000000e+00 0.000000e+00
      outer loop
         vertex 5.518640e+00 3.074099e+00 1.215232e+01
         vertex 6.518641e+00 3.074099e+00 0.000000e+00
         vertex 5.518640e+00 3.074099e+00 0.000000e+00
      endloop
   endfacet
   facet normal -0.000000e+00 1.000000e+00 0.000000e+00
      outer loop
         vertex 5.518640e+00 3.074099e+00 1.215232e+01
         vertex 6.518641e+00 3.074099e+00 1.215232e+01
         vertex 6.518641e+00 3.074099e+00 0.000000e+00
      endloop
   endfacet
endsolid