solid MRM1-console
   facet normal -2.289347e-01 -9.338722e-01 -2.747211e-01
      outer loop
         vertex 1.636490e+01 3.303038e-01 6.999999e+00
         vertex 1.199682e+01 3.262627e+00 6.720908e-01
         vertex 1.771228e+01 0.000000e+00 6.999999e+00
      endloop
   endfacet
   facet normal 7.454441e-01 1.330640e-02 -6.664353e-01
      outer loop
         vertex 1.199682e+01 3.262627e+00 6.720908e-01
         vertex 1.769308e+01 1.075516e+00 6.999999e+00
         vertex 1.771228e+01 0.000000e+00 6.999999e+00
      endloop
   endfacet
   facet normal -2.380957e-01 -9.712417e-01 -0.000000e+00
      outer loop
         vertex 1.771228e+01 0.000000e+00 7.999999e+00
         vertex 1.636490e+01 3.303038e-01 6.999999e+00
         vertex 1.771228e+01 0.000000e+00 6.999999e+00
      endloop
   endfacet
   facet normal 0.000000e+00 0.000000e+00 -1.000000e+00
      outer loop
         vertex 1.769308e+01 1.075516e+00 6.999999e+00
         vertex 1.948796e+01 8.397191e+00 6.999999e+00
         vertex 1.771228e+01 0.000000e+00 6.999999e+00
      endloop
   endfacet
   facet normal 0.000000e+00 -0.000000e+00 -1.000000e+00
      outer loop
         vertex 1.948796e+01 8.397191e+00 6.999999e+00
         vertex 2.000240e+01 9.341888e+00 6.999999e+00
         vertex 1.771228e+01 0.000000e+00 6.999999e+00
      endloop
   endfacet
   facet normal 9.712417e-01 -2.380956e-01 0.000000e+00
      outer loop
         vertex 2.000240e+01 9.341888e+00 6.999999e+00
         vertex 1.771228e+01 0.000000e+00 7.999999e+00
         vertex 1.771228e+01 0.000000e+00 6.999999e+00
      endloop
   endfacet
   facet normal -2.380956e-01 -9.712417e-01 6.476671e-08
      outer loop
         vertex 7.999863e+00 2.380956e+00 7.999999e+00
         vertex 1.091359e+01 1.666669e+00 6.999999e+00
         vertex 1.771228e+01 0.000000e+00 7.999999e+00
      endloop
   endfacet
   facet normal -2.380956e-01 -9.712417e-01 -1.361051e-07
      outer loop
         vertex 1.091359e+01 1.666669e+00 6.999999e+00
         vertex 1.636490e+01 3.303038e-01 6.999999e+00
         vertex 1.771228e+01 0.000000e+00 7.999999e+00
      endloop
   endfacet
   facet normal 0.000000e+00 0.000000e+00 1.000000e+00
      outer loop
         vertex 1.045707e+01 2.808193e+00 7.999999e+00
         vertex 7.999863e+00 2.380956e+00 7.999999e+00
         vertex 1.771228e+01 0.000000e+00 7.999999e+00
      endloop
   endfacet
   facet normal 0.000000e+00 0.000000e+00 1.000000e+00
      outer loop
         vertex 1.115168e+01 2.637911e+00 7.999999e+00
         vertex 1.045707e+01 2.808193e+00 7.999999e+00
         vertex 1.771228e+01 0.000000e+00 7.999999e+00
      endloop
   endfacet
   facet normal 0.000000e+00 0.000000e+00 1.000000e+00
      outer loop
         vertex 2.000240e+01 9.341888e+00 7.999999e+00
         vertex 1.859882e+01 8.656361e+00 7.999999e+00
         vertex 1.771228e+01 0.000000e+00 7.999999e+00
      endloop
   endfacet
   facet normal 0.000000e+00 0.000000e+00 1.000000e+00
      outer loop
         vertex 1.859882e+01 8.656361e+00 7.999999e+00
         vertex 1.678489e+01 1.256956e+00 7.999999e+00
         vertex 1.771228e+01 0.000000e+00 7.999999e+00
      endloop
   endfacet
   facet normal 0.000000e+00 0.000000e+00 1.000000e+00
      outer loop
         vertex 1.678489e+01 1.256956e+00 7.999999e+00
         vertex 1.115168e+01 2.637911e+00 7.999999e+00
         vertex 1.771228e+01 0.000000e+00 7.999999e+00
      endloop
   endfacet
   facet normal 9.712417e-01 -2.380956e-01 0.000000e+00
      outer loop
         vertex 2.000240e+01 9.341888e+00 6.999999e+00
         vertex 2.000240e+01 9.341888e+00 7.999999e+00
         vertex 1.771228e+01 0.000000e+00 7.999999e+00
      endloop
   endfacet
   facet normal -2.289347e-01 -9.338722e-01 -2.747210e-01
      outer loop
         vertex 1.129541e+01 3.224188e+00 1.387274e+00
         vertex 1.199682e+01 3.262627e+00 6.720908e-01
         vertex 1.636490e+01 3.303038e-01 6.999999e+00
      endloop
   endfacet
   facet normal 0.000000e+00 0.000000e+00 -1.000000e+00
      outer loop
         vertex 1.091359e+01 1.666669e+00 6.999999e+00
         vertex 1.634644e+01 1.364439e+00 6.999999e+00
         vertex 1.636490e+01 3.303038e-01 6.999999e+00
      endloop
   endfacet
   facet normal -7.454437e-01 -1.330476e-02 6.664358e-01
      outer loop
         vertex 1.152434e+01 4.158060e+00 1.661994e+00
         vertex 1.129541e+01 3.224188e+00 1.387274e+00
         vertex 1.636490e+01 3.303038e-01 6.999999e+00
      endloop
   endfacet
   facet normal -7.454440e-01 -1.330582e-02 6.664354e-01
      outer loop
         vertex 1.634644e+01 1.364439e+00 6.999999e+00
         vertex 1.152434e+01 4.158060e+00 1.661994e+00
         vertex 1.636490e+01 3.303038e-01 6.999999e+00
      endloop
   endfacet
   facet normal 2.289348e-01 9.338722e-01 2.747210e-01
      outer loop
         vertex 1.222576e+01 4.196499e+00 9.468123e-01
         vertex 1.679441e+01 1.295821e+00 6.999999e+00
         vertex 1.769308e+01 1.075516e+00 6.999999e+00
      endloop
   endfacet
   facet normal 7.454441e-01 1.330586e-02 -6.664354e-01
      outer loop
         vertex 1.199682e+01 3.262627e+00 6.720908e-01
         vertex 1.222576e+01 4.196499e+00 9.468123e-01
         vertex 1.769308e+01 1.075516e+00 6.999999e+00
      endloop
   endfacet
   facet normal 0.000000e+00 0.000000e+00 -1.000000e+00
      outer loop
         vertex 1.679441e+01 1.295821e+00 6.999999e+00
         vertex 1.858929e+01 8.617496e+00 6.999999e+00
         vertex 1.769308e+01 1.075516e+00 6.999999e+00
      endloop
   endfacet
   facet normal 0.000000e+00 -0.000000e+00 -1.000000e+00
      outer loop
         vertex 1.858929e+01 8.617496e+00 6.999999e+00
         vertex 1.948796e+01 8.397191e+00 6.999999e+00
         vertex 1.769308e+01 1.075516e+00 6.999999e+00
      endloop
   endfacet
   facet normal 2.289344e-01 9.338722e-01 2.747213e-01
      outer loop
         vertex 1.679441e+01 1.295821e+00 6.999999e+00
         vertex 1.152434e+01 4.158060e+00 1.661994e+00
         vertex 1.678489e+01 1.256956e+00 7.140054e+00
      endloop
   endfacet
   facet normal 2.289341e-01 9.338722e-01 2.747216e-01
      outer loop
         vertex 1.152434e+01 4.158060e+00 1.661994e+00
         vertex 1.647220e+01 1.333609e+00 7.140054e+00
         vertex 1.678489e+01 1.256956e+00 7.140054e+00
      endloop
   endfacet
   facet normal -9.712418e-01 2.380954e-01 1.035355e-06
      outer loop
         vertex 1.859882e+01 8.656361e+00 7.140054e+00
         vertex 1.679441e+01 1.295821e+00 6.999999e+00
         vertex 1.678489e+01 1.256956e+00 7.140054e+00
      endloop
   endfacet
   facet normal -9.712418e-01 2.380954e-01 0.000000e+00
      outer loop
         vertex 1.859882e+01 8.656361e+00 7.999999e+00
         vertex 1.859882e+01 8.656361e+00 7.140054e+00
         vertex 1.678489e+01 1.256956e+00 7.140054e+00
      endloop
   endfacet
   facet normal -9.712418e-01 2.380954e-01 0.000000e+00
      outer loop
         vertex 1.678489e+01 1.256956e+00 7.999999e+00
         vertex 1.859882e+01 8.656361e+00 7.999999e+00
         vertex 1.678489e+01 1.256956e+00 7.140054e+00
      endloop
   endfacet
   facet normal 2.380951e-01 9.712418e-01 0.000000e+00
      outer loop
         vertex 1.647220e+01 1.333609e+00 7.140054e+00
         vertex 1.678489e+01 1.256956e+00 7.999999e+00
         vertex 1.678489e+01 1.256956e+00 7.140054e+00
      endloop
   endfacet
   facet normal 2.380956e-01 9.712417e-01 -1.698080e-07
      outer loop
         vertex 1.647220e+01 1.333609e+00 7.140054e+00
         vertex 1.115168e+01 2.637911e+00 7.999999e+00
         vertex 1.678489e+01 1.256956e+00 7.999999e+00
      endloop
   endfacet
   facet normal 2.289343e-01 9.338722e-01 2.747214e-01
      outer loop
         vertex 1.222576e+01 4.196499e+00 9.468123e-01
         vertex 1.152434e+01 4.158060e+00 1.661994e+00
         vertex 1.679441e+01 1.295821e+00 6.999999e+00
      endloop
   endfacet
   facet normal -9.712418e-01 2.380954e-01 -8.971287e-07
      outer loop
         vertex 1.859882e+01 8.656361e+00 7.140054e+00
         vertex 1.858929e+01 8.617496e+00 6.999999e+00
         vertex 1.679441e+01 1.295821e+00 6.999999e+00
      endloop
   endfacet
   facet normal 2.380955e-01 9.712417e-01 3.401373e-06
      outer loop
         vertex 1.634644e+01 1.364439e+00 6.999999e+00
         vertex 1.115168e+01 2.637911e+00 6.999999e+00
         vertex 1.647220e+01 1.333609e+00 7.140054e+00
      endloop
   endfacet
   facet normal 2.380956e-01 9.712417e-01 -0.000000e+00
      outer loop
         vertex 1.115168e+01 2.637911e+00 6.999999e+00
         vertex 1.115168e+01 2.637911e+00 7.999999e+00
         vertex 1.647220e+01 1.333609e+00 7.140054e+00
      endloop
   endfacet
   facet normal -7.454481e-01 -1.332203e-02 6.664306e-01
      outer loop
         vertex 1.152434e+01 4.158060e+00 1.661994e+00
         vertex 1.634644e+01 1.364439e+00 6.999999e+00
         vertex 1.647220e+01 1.333609e+00 7.140054e+00
      endloop
   endfacet
   facet normal 0.000000e+00 0.000000e+00 -1.000000e+00
      outer loop
         vertex 1.091359e+01 1.666669e+00 6.999999e+00
         vertex 1.115168e+01 2.637911e+00 6.999999e+00
         vertex 1.634644e+01 1.364439e+00 6.999999e+00
      endloop
   endfacet
   facet normal -2.289345e-01 -9.338722e-01 -2.747212e-01
      outer loop
         vertex 1.021897e+01 1.836951e+00 6.999999e+00
         vertex 1.129541e+01 3.224188e+00 1.387274e+00
         vertex 1.091359e+01 1.666669e+00 6.999999e+00
      endloop
   endfacet
   facet normal 9.712415e-01 -2.380964e-01 -1.801378e-07
      outer loop
         vertex 1.129541e+01 3.224188e+00 1.387274e+00
         vertex 1.115168e+01 2.637911e+00 6.999999e+00
         vertex 1.091359e+01 1.666669e+00 6.999999e+00
      endloop
   endfacet
   facet normal -2.380954e-01 -9.712418e-01 5.282445e-07
      outer loop
         vertex 7.999863e+00 2.380956e+00 7.999999e+00
         vertex 1.021897e+01 1.836951e+00 6.999999e+00
         vertex 1.091359e+01 1.666669e+00 6.999999e+00
      endloop
   endfacet
   facet normal -2.289339e-01 -9.338723e-01 -2.747211e-01
      outer loop
         vertex 1.064944e+01 3.592930e+00 6.720908e-01
         vertex 1.129541e+01 3.224188e+00 1.387274e+00
         vertex 1.021897e+01 1.836951e+00 6.999999e+00
      endloop
   endfacet
   facet normal -2.380957e-01 -9.712417e-01 -0.000000e+00
      outer loop
         vertex 7.999863e+00 2.380956e+00 7.999999e+00
         vertex 7.999863e+00 2.380956e+00 6.999999e+00
         vertex 1.021897e+01 1.836951e+00 6.999999e+00
      endloop
   endfacet
   facet normal -9.712416e-01 2.380963e-01 4.592535e-07
      outer loop
         vertex 1.045707e+01 2.808193e+00 6.999999e+00
         vertex 1.112594e+01 5.536653e+00 1.639159e+00
         vertex 1.021897e+01 1.836951e+00 6.999999e+00
      endloop
   endfacet
   facet normal -9.712417e-01 2.380957e-01 5.959033e-08
      outer loop
         vertex 1.112594e+01 5.536653e+00 1.639159e+00
         vertex 1.087838e+01 4.526803e+00 9.468123e-01
         vertex 1.021897e+01 1.836951e+00 6.999999e+00
      endloop
   endfacet
   facet normal -9.712419e-01 2.380950e-01 -2.925690e-07
      outer loop
         vertex 1.087838e+01 4.526803e+00 9.468123e-01
         vertex 1.064944e+01 3.592930e+00 6.720908e-01
         vertex 1.021897e+01 1.836951e+00 6.999999e+00
      endloop
   endfacet
   facet normal 0.000000e+00 0.000000e+00 -1.000000e+00
      outer loop
         vertex 7.999863e+00 2.380956e+00 6.999999e+00
         vertex 8.237958e+00 3.352198e+00 6.999999e+00
         vertex 1.021897e+01 1.836951e+00 6.999999e+00
      endloop
   endfacet
   facet normal 0.000000e+00 0.000000e+00 -1.000000e+00
      outer loop
         vertex 8.237958e+00 3.352198e+00 6.999999e+00
         vertex 1.045707e+01 2.808193e+00 6.999999e+00
         vertex 1.021897e+01 1.836951e+00 6.999999e+00
      endloop
   endfacet
   facet normal -9.712418e-01 2.380954e-01 0.000000e+00
      outer loop
         vertex 8.237958e+00 3.352198e+00 7.999999e+00
         vertex 8.237958e+00 3.352198e+00 6.999999e+00
         vertex 7.999863e+00 2.380956e+00 6.999999e+00
      endloop
   endfacet
   facet normal -9.712418e-01 2.380954e-01 0.000000e+00
      outer loop
         vertex 7.999863e+00 2.380956e+00 7.999999e+00
         vertex 8.237958e+00 3.352198e+00 7.999999e+00
         vertex 7.999863e+00 2.380956e+00 6.999999e+00
      endloop
   endfacet
   facet normal 0.000000e+00 0.000000e+00 1.000000e+00
      outer loop
         vertex 1.045707e+01 2.808193e+00 7.999999e+00
         vertex 8.237958e+00 3.352198e+00 7.999999e+00
         vertex 7.999863e+00 2.380956e+00 7.999999e+00
      endloop
   endfacet
   facet normal 9.712417e-01 -2.380959e-01 -1.256669e-07
      outer loop
         vertex 1.129541e+01 3.224188e+00 1.387274e+00
         vertex 1.152434e+01 4.158060e+00 1.661994e+00
         vertex 1.115168e+01 2.637911e+00 6.999999e+00
      endloop
   endfacet
   facet normal 9.712417e-01 -2.380955e-01 -1.307662e-08
      outer loop
         vertex 1.152434e+01 4.158060e+00 1.661994e+00
         vertex 1.296561e+01 1.003732e+01 6.999999e+00
         vertex 1.115168e+01 2.637911e+00 6.999999e+00
      endloop
   endfacet
   facet normal 9.712417e-01 -2.380955e-01 0.000000e+00
      outer loop
         vertex 1.296561e+01 1.003732e+01 6.999999e+00
         vertex 1.296561e+01 1.003732e+01 7.999999e+00
         vertex 1.115168e+01 2.637911e+00 6.999999e+00
      endloop
   endfacet
   facet normal 9.712417e-01 -2.380955e-01 0.000000e+00
      outer loop
         vertex 1.296561e+01 1.003732e+01 7.999999e+00
         vertex 1.115168e+01 2.637911e+00 7.999999e+00
         vertex 1.115168e+01 2.637911e+00 6.999999e+00
      endloop
   endfacet
   facet normal 0.000000e+00 0.000000e+00 1.000000e+00
      outer loop
         vertex 1.227100e+01 1.020760e+01 7.999999e+00
         vertex 1.045707e+01 2.808193e+00 7.999999e+00
         vertex 1.115168e+01 2.637911e+00 7.999999e+00
      endloop
   endfacet
   facet normal 0.000000e+00 0.000000e+00 1.000000e+00
      outer loop
         vertex 1.296561e+01 1.003732e+01 7.999999e+00
         vertex 1.227100e+01 1.020760e+01 7.999999e+00
         vertex 1.115168e+01 2.637911e+00 7.999999e+00
      endloop
   endfacet
   facet normal -9.712417e-01 2.380955e-01 0.000000e+00
      outer loop
         vertex 1.045707e+01 2.808193e+00 7.999999e+00
         vertex 1.227100e+01 1.020760e+01 7.999999e+00
         vertex 1.045707e+01 2.808193e+00 6.999999e+00
      endloop
   endfacet
   facet normal -9.712417e-01 2.380955e-01 5.280606e-08
      outer loop
         vertex 1.227100e+01 1.020760e+01 7.999999e+00
         vertex 1.112594e+01 5.536653e+00 1.639159e+00
         vertex 1.045707e+01 2.808193e+00 6.999999e+00
      endloop
   endfacet
   facet normal 2.380956e-01 9.712417e-01 0.000000e+00
      outer loop
         vertex 8.237958e+00 3.352198e+00 6.999999e+00
         vertex 1.045707e+01 2.808193e+00 7.999999e+00
         vertex 1.045707e+01 2.808193e+00 6.999999e+00
      endloop
   endfacet
   facet normal 2.380956e-01 9.712417e-01 -0.000000e+00
      outer loop
         vertex 8.237958e+00 3.352198e+00 6.999999e+00
         vertex 8.237958e+00 3.352198e+00 7.999999e+00
         vertex 1.045707e+01 2.808193e+00 7.999999e+00
      endloop
   endfacet
   facet normal -2.289344e-01 -9.338724e-01 -2.747207e-01
      outer loop
         vertex 1.064944e+01 3.592930e+00 6.720908e-01
         vertex 1.199682e+01 3.262627e+00 6.720908e-01
         vertex 1.129541e+01 3.224188e+00 1.387274e+00
      endloop
   endfacet
   facet normal 6.540990e-02 2.668210e-01 -9.615239e-01
      outer loop
         vertex 1.064944e+01 3.592930e+00 6.720908e-01
         vertex 1.087838e+01 4.526803e+00 9.468123e-01
         vertex 1.199682e+01 3.262627e+00 6.720908e-01
      endloop
   endfacet
   facet normal 6.541016e-02 2.668212e-01 -9.615238e-01
      outer loop
         vertex 1.087838e+01 4.526803e+00 9.468123e-01
         vertex 1.157299e+01 4.356521e+00 9.468123e-01
         vertex 1.199682e+01 3.262627e+00 6.720908e-01
      endloop
   endfacet
   facet normal 6.540979e-02 2.668210e-01 -9.615238e-01
      outer loop
         vertex 1.157299e+01 4.356521e+00 9.468123e-01
         vertex 1.222576e+01 4.196499e+00 9.468123e-01
         vertex 1.199682e+01 3.262627e+00 6.720908e-01
      endloop
   endfacet
   facet normal -2.289346e-01 -9.338721e-01 -2.747215e-01
      outer loop
         vertex 1.065018e+01 3.595951e+00 6.612055e-01
         vertex 1.138978e+01 3.609153e+00 0.000000e+00
         vertex 1.198699e+01 3.268239e+00 6.612055e-01
      endloop
   endfacet
   facet normal 7.454439e-01 1.330594e-02 -6.664355e-01
      outer loop
         vertex 1.138978e+01 3.609153e+00 0.000000e+00
         vertex 1.221592e+01 4.202111e+00 9.359270e-01
         vertex 1.198699e+01 3.268239e+00 6.612055e-01
      endloop
   endfacet
   facet normal -6.540999e-02 -2.668210e-01 9.615238e-01
      outer loop
         vertex 1.157373e+01 4.359541e+00 9.359270e-01
         vertex 1.065018e+01 3.595951e+00 6.612055e-01
         vertex 1.198699e+01 3.268239e+00 6.612055e-01
      endloop
   endfacet
   facet normal -6.540993e-02 -2.668210e-01 9.615238e-01
      outer loop
         vertex 1.221592e+01 4.202111e+00 9.359270e-01
         vertex 1.157373e+01 4.359541e+00 9.359270e-01
         vertex 1.198699e+01 3.268239e+00 6.612055e-01
      endloop
   endfacet
   facet normal -2.289345e-01 -9.338722e-01 -2.747213e-01
      outer loop
         vertex 1.069516e+01 3.779434e+00 0.000000e+00
         vertex 1.138978e+01 3.609153e+00 0.000000e+00
         vertex 1.065018e+01 3.595951e+00 6.612055e-01
      endloop
   endfacet
   facet normal -9.712418e-01 2.380954e-01 -8.634369e-08
      outer loop
         vertex 1.112594e+01 5.536653e+00 0.000000e+00
         vertex 1.069516e+01 3.779434e+00 0.000000e+00
         vertex 1.065018e+01 3.595951e+00 6.612055e-01
      endloop
   endfacet
   facet normal -9.712418e-01 2.380952e-01 -6.598967e-07
      outer loop
         vertex 1.087912e+01 4.529823e+00 9.359270e-01
         vertex 1.112594e+01 5.536653e+00 0.000000e+00
         vertex 1.065018e+01 3.595951e+00 6.612055e-01
      endloop
   endfacet
   facet normal -6.540995e-02 -2.668211e-01 9.615238e-01
      outer loop
         vertex 1.157373e+01 4.359541e+00 9.359270e-01
         vertex 1.087912e+01 4.529823e+00 9.359270e-01
         vertex 1.065018e+01 3.595951e+00 6.612055e-01
      endloop
   endfacet
   facet normal 7.454436e-01 1.330685e-02 -6.664358e-01
      outer loop
         vertex 1.161871e+01 4.543025e+00 2.747215e-01
         vertex 1.221592e+01 4.202111e+00 9.359270e-01
         vertex 1.138978e+01 3.609153e+00 0.000000e+00
      endloop
   endfacet
   facet normal 9.712417e-01 -2.380956e-01 1.235572e-06
      outer loop
         vertex 1.272752e+01 9.066073e+00 0.000000e+00
         vertex 1.249858e+01 8.132201e+00 2.747215e-01
         vertex 1.138978e+01 3.609153e+00 0.000000e+00
      endloop
   endfacet
   facet normal 9.712417e-01 -2.380956e-01 2.151523e-06
      outer loop
         vertex 1.249858e+01 8.132201e+00 2.747215e-01
         vertex 1.161871e+01 4.543025e+00 2.747215e-01
         vertex 1.138978e+01 3.609153e+00 0.000000e+00
      endloop
   endfacet
   facet normal 0.000000e+00 0.000000e+00 -1.000000e+00
      outer loop
         vertex 1.112594e+01 5.536653e+00 0.000000e+00
         vertex 1.272752e+01 9.066073e+00 0.000000e+00
         vertex 1.138978e+01 3.609153e+00 0.000000e+00
      endloop
   endfacet
   facet normal 0.000000e+00 0.000000e+00 -1.000000e+00
      outer loop
         vertex 1.069516e+01 3.779434e+00 0.000000e+00
         vertex 1.112594e+01 5.536653e+00 0.000000e+00
         vertex 1.138978e+01 3.609153e+00 0.000000e+00
      endloop
   endfacet
   facet normal 2.289340e-01 9.338724e-01 2.747210e-01
      outer loop
         vertex 1.222576e+01 4.196499e+00 9.468123e-01
         vertex 1.157299e+01 4.356521e+00 9.468123e-01
         vertex 1.152434e+01 4.158060e+00 1.661994e+00
      endloop
   endfacet
   facet normal 9.712419e-01 -2.380951e-01 -5.265765e-07
      outer loop
         vertex 1.157299e+01 4.356521e+00 9.468123e-01
         vertex 1.296561e+01 1.003732e+01 6.999999e+00
         vertex 1.152434e+01 4.158060e+00 1.661994e+00
      endloop
   endfacet
   facet normal 2.289344e-01 9.338722e-01 2.747213e-01
      outer loop
         vertex 1.161871e+01 4.543025e+00 2.747215e-01
         vertex 1.157373e+01 4.359541e+00 9.359270e-01
         vertex 1.221592e+01 4.202111e+00 9.359270e-01
      endloop
   endfacet
   facet normal 9.712417e-01 -2.380956e-01 4.451363e-08
      outer loop
         vertex 1.259296e+01 8.517166e+00 1.661994e+00
         vertex 1.296561e+01 1.003732e+01 6.999999e+00
         vertex 1.157299e+01 4.356521e+00 9.468123e-01
      endloop
   endfacet
   facet normal 9.712417e-01 -2.380956e-01 -5.085047e-07
      outer loop
         vertex 1.254430e+01 8.318705e+00 9.468123e-01
         vertex 1.259296e+01 8.517166e+00 1.661994e+00
         vertex 1.157299e+01 4.356521e+00 9.468123e-01
      endloop
   endfacet
   facet normal 9.712417e-01 -2.380956e-01 8.213326e-06
      outer loop
         vertex 1.254356e+01 8.315684e+00 9.359270e-01
         vertex 1.254430e+01 8.318705e+00 9.468123e-01
         vertex 1.157299e+01 4.356521e+00 9.468123e-01
      endloop
   endfacet
   facet normal 9.712417e-01 -2.380956e-01 -1.077418e-05
      outer loop
         vertex 1.157373e+01 4.359541e+00 9.359270e-01
         vertex 1.254356e+01 8.315684e+00 9.359270e-01
         vertex 1.157299e+01 4.356521e+00 9.468123e-01
      endloop
   endfacet
   facet normal -2.289346e-01 -9.338704e-01 -2.747272e-01
      outer loop
         vertex 1.087838e+01 4.526803e+00 9.468123e-01
         vertex 1.157373e+01 4.359541e+00 9.359270e-01
         vertex 1.157299e+01 4.356521e+00 9.468123e-01
      endloop
   endfacet
   facet normal 9.712417e-01 -2.380956e-01 2.927950e-09
      outer loop
         vertex 1.249858e+01 8.132201e+00 2.747215e-01
         vertex 1.254356e+01 8.315684e+00 9.359270e-01
         vertex 1.157373e+01 4.359541e+00 9.359270e-01
      endloop
   endfacet
   facet normal 9.712417e-01 -2.380956e-01 1.880438e-08
      outer loop
         vertex 1.161871e+01 4.543025e+00 2.747215e-01
         vertex 1.249858e+01 8.132201e+00 2.747215e-01
         vertex 1.157373e+01 4.359541e+00 9.359270e-01
      endloop
   endfacet
   facet normal -2.289366e-01 -9.338808e-01 -2.746903e-01
      outer loop
         vertex 1.087838e+01 4.526803e+00 9.468123e-01
         vertex 1.087912e+01 4.529823e+00 9.359270e-01
         vertex 1.157373e+01 4.359541e+00 9.359270e-01
      endloop
   endfacet
   facet normal -9.712418e-01 2.380954e-01 5.330787e-07
      outer loop
         vertex 1.112594e+01 5.536653e+00 1.639159e+00
         vertex 1.087912e+01 4.529823e+00 9.359270e-01
         vertex 1.087838e+01 4.526803e+00 9.468123e-01
      endloop
   endfacet
   facet normal -9.712417e-01 2.380958e-01 0.000000e+00
      outer loop
         vertex 1.112594e+01 5.536653e+00 1.639159e+00
         vertex 1.112594e+01 5.536653e+00 0.000000e+00
         vertex 1.087912e+01 4.529823e+00 9.359270e-01
      endloop
   endfacet
   facet normal 0.000000e+00 -0.000000e+00 -1.000000e+00
      outer loop
         vertex 1.160213e+01 7.479136e+00 0.000000e+00
         vertex 1.272752e+01 9.066073e+00 0.000000e+00
         vertex 1.112594e+01 5.536653e+00 0.000000e+00
      endloop
   endfacet
   facet normal 0.000000e+00 0.000000e+00 -1.000000e+00
      outer loop
         vertex 1.097818e+01 7.632095e+00 0.000000e+00
         vertex 1.160213e+01 7.479136e+00 0.000000e+00
         vertex 1.112594e+01 5.536653e+00 0.000000e+00
      endloop
   endfacet
   facet normal 0.000000e+00 0.000000e+00 -1.000000e+00
      outer loop
         vertex 1.050199e+01 5.689612e+00 0.000000e+00
         vertex 1.097818e+01 7.632095e+00 0.000000e+00
         vertex 1.112594e+01 5.536653e+00 0.000000e+00
      endloop
   endfacet
   facet normal -2.380957e-01 -9.712417e-01 -0.000000e+00
      outer loop
         vertex 1.112594e+01 5.536653e+00 1.639159e+00
         vertex 1.050199e+01 5.689612e+00 0.000000e+00
         vertex 1.112594e+01 5.536653e+00 0.000000e+00
      endloop
   endfacet
   facet normal -9.712417e-01 2.380958e-01 -2.398535e-07
      outer loop
         vertex 1.227100e+01 1.020760e+01 6.999999e+00
         vertex 1.160213e+01 7.479136e+00 1.639159e+00
         vertex 1.112594e+01 5.536653e+00 1.639159e+00
      endloop
   endfacet
   facet normal -9.712417e-01 2.380956e-01 0.000000e+00
      outer loop
         vertex 1.227100e+01 1.020760e+01 7.999999e+00
         vertex 1.227100e+01 1.020760e+01 6.999999e+00
         vertex 1.112594e+01 5.536653e+00 1.639159e+00
      endloop
   endfacet
   facet normal -7.193880e-01 1.763550e-01 6.718480e-01
      outer loop
         vertex 1.160213e+01 7.479136e+00 1.639159e+00
         vertex 1.097818e+01 7.632095e+00 9.309053e-01
         vertex 1.112594e+01 5.536653e+00 1.639159e+00
      endloop
   endfacet
   facet normal -7.193886e-01 1.763548e-01 6.718475e-01
      outer loop
         vertex 1.097818e+01 7.632095e+00 9.309053e-01
         vertex 1.050199e+01 5.689612e+00 9.309053e-01
         vertex 1.112594e+01 5.536653e+00 1.639159e+00
      endloop
   endfacet
   facet normal -2.380957e-01 -9.712417e-01 -0.000000e+00
      outer loop
         vertex 1.050199e+01 5.689612e+00 9.309053e-01
         vertex 1.050199e+01 5.689612e+00 0.000000e+00
         vertex 1.112594e+01 5.536653e+00 1.639159e+00
      endloop
   endfacet
   facet normal -9.712418e-01 2.380954e-01 0.000000e+00
      outer loop
         vertex 1.050199e+01 5.689612e+00 9.309053e-01
         vertex 1.097818e+01 7.632095e+00 0.000000e+00
         vertex 1.050199e+01 5.689612e+00 0.000000e+00
      endloop
   endfacet
   facet normal -9.712418e-01 2.380954e-01 0.000000e+00
      outer loop
         vertex 1.097818e+01 7.632095e+00 9.309053e-01
         vertex 1.097818e+01 7.632095e+00 0.000000e+00
         vertex 1.050199e+01 5.689612e+00 9.309053e-01
      endloop
   endfacet
   facet normal -9.712418e-01 2.380954e-01 -4.893281e-07
      outer loop
         vertex 1.184895e+01 8.485966e+00 9.359270e-01
         vertex 1.203290e+01 9.236355e+00 0.000000e+00
         vertex 1.160213e+01 7.479136e+00 0.000000e+00
      endloop
   endfacet
   facet normal -9.712419e-01 2.380950e-01 0.000000e+00
      outer loop
         vertex 1.160213e+01 7.479136e+00 1.639159e+00
         vertex 1.184895e+01 8.485966e+00 9.359270e-01
         vertex 1.160213e+01 7.479136e+00 0.000000e+00
      endloop
   endfacet
   facet normal 0.000000e+00 -0.000000e+00 -1.000000e+00
      outer loop
         vertex 1.203290e+01 9.236355e+00 0.000000e+00
         vertex 1.272752e+01 9.066073e+00 0.000000e+00
         vertex 1.160213e+01 7.479136e+00 0.000000e+00
      endloop
   endfacet
   facet normal 2.380952e-01 9.712418e-01 -0.000000e+00
      outer loop
         vertex 1.097818e+01 7.632095e+00 0.000000e+00
         vertex 1.097818e+01 7.632095e+00 9.309053e-01
         vertex 1.160213e+01 7.479136e+00 0.000000e+00
      endloop
   endfacet
   facet normal 2.380952e-01 9.712418e-01 0.000000e+00
      outer loop
         vertex 1.097818e+01 7.632095e+00 9.309053e-01
         vertex 1.160213e+01 7.479136e+00 1.639159e+00
         vertex 1.160213e+01 7.479136e+00 0.000000e+00
      endloop
   endfacet
   facet normal -9.712430e-01 2.380905e-01 -6.732724e-06
      outer loop
         vertex 1.184969e+01 8.488987e+00 9.468123e-01
         vertex 1.184895e+01 8.485966e+00 9.359270e-01
         vertex 1.160213e+01 7.479136e+00 1.639159e+00
      endloop
   endfacet
   facet normal -9.712419e-01 2.380950e-01 2.084568e-07
      outer loop
         vertex 1.227100e+01 1.020760e+01 6.999999e+00
         vertex 1.184969e+01 8.488987e+00 9.468123e-01
         vertex 1.160213e+01 7.479136e+00 1.639159e+00
      endloop
   endfacet
   facet normal -2.289344e-01 -9.338721e-01 2.747214e-01
      outer loop
         vertex 1.318576e+01 8.158254e+00 9.359270e-01
         vertex 1.254356e+01 8.315684e+00 9.359270e-01
         vertex 1.249858e+01 8.132201e+00 2.747215e-01
      endloop
   endfacet
   facet normal 6.547718e-01 -3.565626e-01 -6.664361e-01
      outer loop
         vertex 1.341469e+01 9.092126e+00 6.612055e-01
         vertex 1.318576e+01 8.158254e+00 9.359270e-01
         vertex 1.249858e+01 8.132201e+00 2.747215e-01
      endloop
   endfacet
   facet normal 6.547721e-01 -3.565631e-01 -6.664354e-01
      outer loop
         vertex 1.272752e+01 9.066073e+00 0.000000e+00
         vertex 1.341469e+01 9.092126e+00 6.612055e-01
         vertex 1.249858e+01 8.132201e+00 2.747215e-01
      endloop
   endfacet
   facet normal 6.540994e-02 2.668210e-01 9.615238e-01
      outer loop
         vertex 1.341469e+01 9.092126e+00 6.612055e-01
         vertex 1.254356e+01 8.315684e+00 9.359270e-01
         vertex 1.318576e+01 8.158254e+00 9.359270e-01
      endloop
   endfacet
   facet normal -2.289344e-01 -9.338723e-01 2.747210e-01
      outer loop
         vertex 1.858929e+01 8.617496e+00 6.999999e+00
         vertex 1.254430e+01 8.318705e+00 9.468123e-01
         vertex 1.319707e+01 8.158683e+00 9.468123e-01
      endloop
   endfacet
   facet normal -2.289344e-01 -9.338723e-01 2.747209e-01
      outer loop
         vertex 1.948796e+01 8.397191e+00 6.999999e+00
         vertex 1.858929e+01 8.617496e+00 6.999999e+00
         vertex 1.319707e+01 8.158683e+00 9.468123e-01
      endloop
   endfacet
   facet normal 6.547724e-01 -3.565625e-01 -6.664355e-01
      outer loop
         vertex 1.342600e+01 9.092555e+00 6.720908e-01
         vertex 2.000240e+01 9.341888e+00 6.999999e+00
         vertex 1.319707e+01 8.158683e+00 9.468123e-01
      endloop
   endfacet
   facet normal 6.547724e-01 -3.565628e-01 -6.664354e-01
      outer loop
         vertex 2.000240e+01 9.341888e+00 6.999999e+00
         vertex 1.948796e+01 8.397191e+00 6.999999e+00
         vertex 1.319707e+01 8.158683e+00 9.468123e-01
      endloop
   endfacet
   facet normal -6.540993e-02 -2.668210e-01 -9.615238e-01
      outer loop
         vertex 1.254430e+01 8.318705e+00 9.468123e-01
         vertex 1.342600e+01 9.092555e+00 6.720908e-01
         vertex 1.319707e+01 8.158683e+00 9.468123e-01
      endloop
   endfacet
   facet normal 6.540998e-02 2.668210e-01 9.615238e-01
      outer loop
         vertex 1.341469e+01 9.092126e+00 6.612055e-01
         vertex 1.184895e+01 8.485966e+00 9.359270e-01
         vertex 1.254356e+01 8.315684e+00 9.359270e-01
      endloop
   endfacet
   facet normal 2.289348e-01 9.338731e-01 -2.747180e-01
      outer loop
         vertex 1.184895e+01 8.485966e+00 9.359270e-01
         vertex 1.254430e+01 8.318705e+00 9.468123e-01
         vertex 1.254356e+01 8.315684e+00 9.359270e-01
      endloop
   endfacet
   facet normal -2.289351e-01 -9.338719e-01 2.747216e-01
      outer loop
         vertex 1.858929e+01 8.617496e+00 6.999999e+00
         vertex 1.259296e+01 8.517166e+00 1.661994e+00
         vertex 1.254430e+01 8.318705e+00 9.468123e-01
      endloop
   endfacet
   facet normal 2.289348e-01 9.338731e-01 -2.747180e-01
      outer loop
         vertex 1.184895e+01 8.485966e+00 9.359270e-01
         vertex 1.184969e+01 8.488987e+00 9.468123e-01
         vertex 1.254430e+01 8.318705e+00 9.468123e-01
      endloop
   endfacet
   facet normal -6.540998e-02 -2.668210e-01 -9.615238e-01
      outer loop
         vertex 1.184969e+01 8.488987e+00 9.468123e-01
         vertex 1.207862e+01 9.422859e+00 6.720908e-01
         vertex 1.254430e+01 8.318705e+00 9.468123e-01
      endloop
   endfacet
   facet normal -6.540998e-02 -2.668210e-01 -9.615238e-01
      outer loop
         vertex 1.207862e+01 9.422859e+00 6.720908e-01
         vertex 1.342600e+01 9.092555e+00 6.720908e-01
         vertex 1.254430e+01 8.318705e+00 9.468123e-01
      endloop
   endfacet
   facet normal -9.712417e-01 2.380959e-01 -7.270973e-08
      outer loop
         vertex 1.207788e+01 9.419838e+00 6.612055e-01
         vertex 1.203290e+01 9.236355e+00 0.000000e+00
         vertex 1.184895e+01 8.485966e+00 9.359270e-01
      endloop
   endfacet
   facet normal 6.540999e-02 2.668210e-01 9.615238e-01
      outer loop
         vertex 1.341469e+01 9.092126e+00 6.612055e-01
         vertex 1.207788e+01 9.419838e+00 6.612055e-01
         vertex 1.184895e+01 8.485966e+00 9.359270e-01
      endloop
   endfacet
   facet normal -9.712417e-01 2.380959e-01 -1.239676e-07
      outer loop
         vertex 1.250909e+01 1.117884e+01 6.999999e+00
         vertex 1.207862e+01 9.422859e+00 6.720908e-01
         vertex 1.184969e+01 8.488987e+00 9.468123e-01
      endloop
   endfacet
   facet normal -9.712418e-01 2.380954e-01 8.653045e-08
      outer loop
         vertex 1.227100e+01 1.020760e+01 6.999999e+00
         vertex 1.250909e+01 1.117884e+01 6.999999e+00
         vertex 1.184969e+01 8.488987e+00 9.468123e-01
      endloop
   endfacet
   facet normal -2.289350e-01 -9.338720e-01 2.747215e-01
      outer loop
         vertex 1.858929e+01 8.617496e+00 6.999999e+00
         vertex 1.828614e+01 8.733013e+00 7.140054e+00
         vertex 1.259296e+01 8.517166e+00 1.661994e+00
      endloop
   endfacet
   facet normal 9.712417e-01 -2.380958e-01 1.832413e-07
      outer loop
         vertex 1.282189e+01 9.451038e+00 1.387274e+00
         vertex 1.320371e+01 1.100856e+01 6.999999e+00
         vertex 1.259296e+01 8.517166e+00 1.661994e+00
      endloop
   endfacet
   facet normal 9.712418e-01 -2.380954e-01 -1.638953e-08
      outer loop
         vertex 1.320371e+01 1.100856e+01 6.999999e+00
         vertex 1.296561e+01 1.003732e+01 6.999999e+00
         vertex 1.259296e+01 8.517166e+00 1.661994e+00
      endloop
   endfacet
   facet normal -6.547727e-01 3.565620e-01 6.664355e-01
      outer loop
         vertex 1.816037e+01 8.763843e+00 6.999999e+00
         vertex 1.282189e+01 9.451038e+00 1.387274e+00
         vertex 1.259296e+01 8.517166e+00 1.661994e+00
      endloop
   endfacet
   facet normal -6.547761e-01 3.565476e-01 6.664398e-01
      outer loop
         vertex 1.828614e+01 8.733013e+00 7.140054e+00
         vertex 1.816037e+01 8.763843e+00 6.999999e+00
         vertex 1.259296e+01 8.517166e+00 1.661994e+00
      endloop
   endfacet
   facet normal -2.289353e-01 -9.338721e-01 2.747208e-01
      outer loop
         vertex 1.859882e+01 8.656361e+00 7.140054e+00
         vertex 1.828614e+01 8.733013e+00 7.140054e+00
         vertex 1.858929e+01 8.617496e+00 6.999999e+00
      endloop
   endfacet
   facet normal -2.380963e-01 -9.712416e-01 -0.000000e+00
      outer loop
         vertex 1.859882e+01 8.656361e+00 7.999999e+00
         vertex 1.828614e+01 8.733013e+00 7.140054e+00
         vertex 1.859882e+01 8.656361e+00 7.140054e+00
      endloop
   endfacet
   facet normal -2.380956e-01 -9.712417e-01 -2.640297e-07
      outer loop
         vertex 1.296561e+01 1.003732e+01 7.999999e+00
         vertex 1.828614e+01 8.733013e+00 7.140054e+00
         vertex 1.859882e+01 8.656361e+00 7.999999e+00
      endloop
   endfacet
   facet normal 0.000000e+00 0.000000e+00 1.000000e+00
      outer loop
         vertex 2.000240e+01 9.341888e+00 7.999999e+00
         vertex 1.296561e+01 1.003732e+01 7.999999e+00
         vertex 1.859882e+01 8.656361e+00 7.999999e+00
      endloop
   endfacet
   facet normal -2.380953e-01 -9.712418e-01 1.519290e-06
      outer loop
         vertex 1.296561e+01 1.003732e+01 7.999999e+00
         vertex 1.816037e+01 8.763843e+00 6.999999e+00
         vertex 1.828614e+01 8.733013e+00 7.140054e+00
      endloop
   endfacet
   facet normal 0.000000e+00 0.000000e+00 -1.000000e+00
      outer loop
         vertex 1.296561e+01 1.003732e+01 6.999999e+00
         vertex 1.865502e+01 9.672191e+00 6.999999e+00
         vertex 1.816037e+01 8.763843e+00 6.999999e+00
      endloop
   endfacet
   facet normal -2.380956e-01 -9.712417e-01 -0.000000e+00
      outer loop
         vertex 1.296561e+01 1.003732e+01 7.999999e+00
         vertex 1.296561e+01 1.003732e+01 6.999999e+00
         vertex 1.816037e+01 8.763843e+00 6.999999e+00
      endloop
   endfacet
   facet normal -6.547721e-01 3.565636e-01 6.664352e-01
      outer loop
         vertex 1.865502e+01 9.672191e+00 6.999999e+00
         vertex 1.282189e+01 9.451038e+00 1.387274e+00
         vertex 1.816037e+01 8.763843e+00 6.999999e+00
      endloop
   endfacet
   facet normal 2.289346e-01 9.338721e-01 -2.747213e-01
      outer loop
         vertex 1.203290e+01 9.236355e+00 0.000000e+00
         vertex 1.341469e+01 9.092126e+00 6.612055e-01
         vertex 1.272752e+01 9.066073e+00 0.000000e+00
      endloop
   endfacet
   facet normal 2.289347e-01 9.338721e-01 -2.747214e-01
      outer loop
         vertex 1.203290e+01 9.236355e+00 0.000000e+00
         vertex 1.207788e+01 9.419838e+00 6.612055e-01
         vertex 1.341469e+01 9.092126e+00 6.612055e-01
      endloop
   endfacet
   facet normal 2.289347e-01 9.338722e-01 -2.747210e-01
      outer loop
         vertex 1.207862e+01 9.422859e+00 6.720908e-01
         vertex 1.282189e+01 9.451038e+00 1.387274e+00
         vertex 1.342600e+01 9.092555e+00 6.720908e-01
      endloop
   endfacet
   facet normal 2.289345e-01 9.338722e-01 -2.747211e-01
      outer loop
         vertex 1.282189e+01 9.451038e+00 1.387274e+00
         vertex 2.000240e+01 9.341888e+00 6.999999e+00
         vertex 1.342600e+01 9.092555e+00 6.720908e-01
      endloop
   endfacet
   facet normal 2.289346e-01 9.338721e-01 -2.747212e-01
      outer loop
         vertex 1.282189e+01 9.451038e+00 1.387274e+00
         vertex 1.865502e+01 9.672191e+00 6.999999e+00
         vertex 2.000240e+01 9.341888e+00 6.999999e+00
      endloop
   endfacet
   facet normal 2.380956e-01 9.712417e-01 0.000000e+00
      outer loop
         vertex 1.865502e+01 9.672191e+00 6.999999e+00
         vertex 2.000240e+01 9.341888e+00 7.999999e+00
         vertex 2.000240e+01 9.341888e+00 6.999999e+00
      endloop
   endfacet
   facet normal 2.380956e-01 9.712417e-01 3.976226e-08
      outer loop
         vertex 1.865502e+01 9.672191e+00 6.999999e+00
         vertex 1.028998e+01 1.172284e+01 7.999999e+00
         vertex 2.000240e+01 9.341888e+00 7.999999e+00
      endloop
   endfacet
   facet normal 0.000000e+00 0.000000e+00 1.000000e+00
      outer loop
         vertex 1.028998e+01 1.172284e+01 7.999999e+00
         vertex 1.296561e+01 1.003732e+01 7.999999e+00
         vertex 2.000240e+01 9.341888e+00 7.999999e+00
      endloop
   endfacet
   facet normal 2.289348e-01 9.338721e-01 -2.747211e-01
      outer loop
         vertex 1.250909e+01 1.117884e+01 6.999999e+00
         vertex 1.320371e+01 1.100856e+01 6.999999e+00
         vertex 1.207862e+01 9.422859e+00 6.720908e-01
      endloop
   endfacet
   facet normal 2.289348e-01 9.338721e-01 -2.747211e-01
      outer loop
         vertex 1.320371e+01 1.100856e+01 6.999999e+00
         vertex 1.282189e+01 9.451038e+00 1.387274e+00
         vertex 1.207862e+01 9.422859e+00 6.720908e-01
      endloop
   endfacet
   facet normal 0.000000e+00 0.000000e+00 -1.000000e+00
      outer loop
         vertex 1.296561e+01 1.003732e+01 6.999999e+00
         vertex 1.320371e+01 1.100856e+01 6.999999e+00
         vertex 1.865502e+01 9.672191e+00 6.999999e+00
      endloop
   endfacet
   facet normal 2.380955e-01 9.712417e-01 -4.676411e-07
      outer loop
         vertex 1.320371e+01 1.100856e+01 6.999999e+00
         vertex 1.028998e+01 1.172284e+01 7.999999e+00
         vertex 1.865502e+01 9.672191e+00 6.999999e+00
      endloop
   endfacet
   facet normal 0.000000e+00 0.000000e+00 1.000000e+00
      outer loop
         vertex 1.028998e+01 1.172284e+01 7.999999e+00
         vertex 1.227100e+01 1.020760e+01 7.999999e+00
         vertex 1.296561e+01 1.003732e+01 7.999999e+00
      endloop
   endfacet
   facet normal -2.380956e-01 -9.712417e-01 -0.000000e+00
      outer loop
         vertex 1.227100e+01 1.020760e+01 7.999999e+00
         vertex 1.005189e+01 1.075160e+01 7.999999e+00
         vertex 1.227100e+01 1.020760e+01 6.999999e+00
      endloop
   endfacet
   facet normal -2.380956e-01 -9.712417e-01 -0.000000e+00
      outer loop
         vertex 1.005189e+01 1.075160e+01 7.999999e+00
         vertex 1.005189e+01 1.075160e+01 6.999999e+00
         vertex 1.227100e+01 1.020760e+01 6.999999e+00
      endloop
   endfacet
   facet normal 0.000000e+00 0.000000e+00 -1.000000e+00
      outer loop
         vertex 1.005189e+01 1.075160e+01 6.999999e+00
         vertex 1.250909e+01 1.117884e+01 6.999999e+00
         vertex 1.227100e+01 1.020760e+01 6.999999e+00
      endloop
   endfacet
   facet normal 0.000000e+00 0.000000e+00 1.000000e+00
      outer loop
         vertex 1.028998e+01 1.172284e+01 7.999999e+00
         vertex 1.005189e+01 1.075160e+01 7.999999e+00
         vertex 1.227100e+01 1.020760e+01 7.999999e+00
      endloop
   endfacet
   facet normal -9.712418e-01 2.380954e-01 0.000000e+00
      outer loop
         vertex 1.028998e+01 1.172284e+01 7.999999e+00
         vertex 1.028998e+01 1.172284e+01 6.999999e+00
         vertex 1.005189e+01 1.075160e+01 6.999999e+00
      endloop
   endfacet
   facet normal -9.712418e-01 2.380954e-01 0.000000e+00
      outer loop
         vertex 1.005189e+01 1.075160e+01 7.999999e+00
         vertex 1.028998e+01 1.172284e+01 7.999999e+00
         vertex 1.005189e+01 1.075160e+01 6.999999e+00
      endloop
   endfacet
   facet normal 0.000000e+00 -0.000000e+00 -1.000000e+00
      outer loop
         vertex 1.028998e+01 1.172284e+01 6.999999e+00
         vertex 1.250909e+01 1.117884e+01 6.999999e+00
         vertex 1.005189e+01 1.075160e+01 6.999999e+00
      endloop
   endfacet
   facet normal 2.380957e-01 9.712417e-01 1.941961e-07
      outer loop
         vertex 1.250909e+01 1.117884e+01 6.999999e+00
         vertex 1.028998e+01 1.172284e+01 7.999999e+00
         vertex 1.320371e+01 1.100856e+01 6.999999e+00
      endloop
   endfacet
   facet normal 2.380957e-01 9.712417e-01 -0.000000e+00
      outer loop
         vertex 1.028998e+01 1.172284e+01 6.999999e+00
         vertex 1.028998e+01 1.172284e+01 7.999999e+00
         vertex 1.250909e+01 1.117884e+01 6.999999e+00
      endloop
   endfacet
endsolid