solid MRM1-panel
   facet normal 0.000000e+00 -1.000000e+00 0.000000e+00
      outer loop
         vertex 6.999999e+00 0.000000e+00 1.288004e+00
         vertex 0.000000e+00 0.000000e+00 2.764858e+00
         vertex 0.000000e+00 0.000000e+00 1.288004e+00
      endloop
   endfacet
   facet normal 0.000000e+00 -5.344342e-01 -8.452101e-01
      outer loop
         vertex 6.999999e+00 7.464904e-01 8.159913e-01
         vertex 6.999999e+00 0.000000e+00 1.288004e+00
         vertex 0.000000e+00 0.000000e+00 1.288004e+00
      endloop
   endfacet
   facet normal -7.511377e-08 -5.344337e-01 -8.452104e-01
      outer loop
         vertex 0.000000e+00 2.036987e+00 0.000000e+00
         vertex 6.999999e+00 7.464904e-01 8.159913e-01
         vertex 0.000000e+00 0.000000e+00 1.288004e+00
      endloop
   endfacet
   facet normal -1.000000e+00 0.000000e+00 0.000000e+00
      outer loop
         vertex 0.000000e+00 0.000000e+00 2.764858e+00
         vertex 0.000000e+00 2.036987e+00 0.000000e+00
         vertex 0.000000e+00 0.000000e+00 1.288004e+00
      endloop
   endfacet
   facet normal -0.000000e+00 -1.000000e+00 -0.000000e+00
      outer loop
         vertex 6.999999e+00 0.000000e+00 2.207622e+00
         vertex 0.000000e+00 0.000000e+00 2.764858e+00
         vertex 6.999999e+00 0.000000e+00 1.288004e+00
      endloop
   endfacet
   facet normal 1.000000e+00 0.000000e+00 0.000000e+00
      outer loop
         vertex 6.999999e+00 7.464904e-01 8.159913e-01
         vertex 6.999999e+00 0.000000e+00 2.207622e+00
         vertex 6.999999e+00 0.000000e+00 1.288004e+00
      endloop
   endfacet
   facet normal 0.000000e+00 -1.000000e+00 0.000000e+00
      outer loop
         vertex 2.170000e+01 0.000000e+00 1.288004e+00
         vertex 8.300000e+00 0.000000e+00 2.207622e+00
         vertex 8.300000e+00 0.000000e+00 1.288004e+00
      endloop
   endfacet
   facet normal 0.000000e+00 -5.344342e-01 -8.452101e-01
      outer loop
         vertex 2.170000e+01 7.464904e-01 8.159913e-01
         vertex 2.170000e+01 0.000000e+00 1.288004e+00
         vertex 8.300000e+00 0.000000e+00 1.288004e+00
      endloop
   endfacet
   facet normal 0.000000e+00 -5.344342e-01 -8.452101e-01
      outer loop
         vertex 8.300000e+00 7.464904e-01 8.159913e-01
         vertex 2.170000e+01 7.464904e-01 8.159913e-01
         vertex 8.300000e+00 0.000000e+00 1.288004e+00
      endloop
   endfacet
   facet normal -1.000000e+00 0.000000e+00 0.000000e+00
      outer loop
         vertex 8.300000e+00 0.000000e+00 2.207622e+00
         vertex 8.300000e+00 7.464904e-01 8.159913e-01
         vertex 8.300000e+00 0.000000e+00 1.288004e+00
      endloop
   endfacet
   facet normal -0.000000e+00 -1.000000e+00 -0.000000e+00
      outer loop
         vertex 2.170000e+01 0.000000e+00 2.207622e+00
         vertex 8.300000e+00 0.000000e+00 2.207622e+00
         vertex 2.170000e+01 0.000000e+00 1.288004e+00
      endloop
   endfacet
   facet normal 1.000000e+00 0.000000e+00 -0.000000e+00
      outer loop
         vertex 2.170000e+01 7.464904e-01 8.159913e-01
         vertex 2.170000e+01 1.157502e+00 1.420099e+00
         vertex 2.170000e+01 0.000000e+00 1.288004e+00
      endloop
   endfacet
   facet normal 1.000000e+00 0.000000e+00 0.000000e+00
      outer loop
         vertex 2.170000e+01 1.157502e+00 1.420099e+00
         vertex 2.170000e+01 0.000000e+00 2.207622e+00
         vertex 2.170000e+01 0.000000e+00 1.288004e+00
      endloop
   endfacet
   facet normal 0.000000e+00 -1.000000e+00 0.000000e+00
      outer loop
         vertex 3.000000e+01 0.000000e+00 1.288004e+00
         vertex 2.300000e+01 0.000000e+00 2.207622e+00
         vertex 2.300000e+01 0.000000e+00 1.288004e+00
      endloop
   endfacet
   facet normal 0.000000e+00 -5.344337e-01 -8.452104e-01
      outer loop
         vertex 3.000000e+01 2.036987e+00 0.000000e+00
         vertex 3.000000e+01 0.000000e+00 1.288004e+00
         vertex 2.300000e+01 0.000000e+00 1.288004e+00
      endloop
   endfacet
   facet normal 2.049667e-07 -5.344342e-01 -8.452101e-01
      outer loop
         vertex 2.300000e+01 7.464904e-01 8.159913e-01
         vertex 3.000000e+01 2.036987e+00 0.000000e+00
         vertex 2.300000e+01 0.000000e+00 1.288004e+00
      endloop
   endfacet
   facet normal -1.000000e+00 0.000000e+00 0.000000e+00
      outer loop
         vertex 2.300000e+01 1.157502e+00 1.420099e+00
         vertex 2.300000e+01 7.464904e-01 8.159913e-01
         vertex 2.300000e+01 0.000000e+00 1.288004e+00
      endloop
   endfacet
   facet normal -1.000000e+00 0.000000e+00 0.000000e+00
      outer loop
         vertex 2.300000e+01 0.000000e+00 2.207622e+00
         vertex 2.300000e+01 1.157502e+00 1.420099e+00
         vertex 2.300000e+01 0.000000e+00 1.288004e+00
      endloop
   endfacet
   facet normal 0.000000e+00 -1.000000e+00 -0.000000e+00
      outer loop
         vertex 3.000000e+01 0.000000e+00 2.764858e+00
         vertex 2.300000e+01 0.000000e+00 2.207622e+00
         vertex 3.000000e+01 0.000000e+00 1.288004e+00
      endloop
   endfacet
   facet normal 1.000000e+00 0.000000e+00 0.000000e+00
      outer loop
         vertex 3.000000e+01 3.979206e-01 2.764858e+00
         vertex 3.000000e+01 0.000000e+00 2.764858e+00
         vertex 3.000000e+01 0.000000e+00 1.288004e+00
      endloop
   endfacet
   facet normal 1.000000e+00 0.000000e+00 0.000000e+00
      outer loop
         vertex 3.000000e+01 2.036987e+00 0.000000e+00
         vertex 3.000000e+01 3.979206e-01 2.764858e+00
         vertex 3.000000e+01 0.000000e+00 1.288004e+00
      endloop
   endfacet
   facet normal 0.000000e+00 -1.000000e+00 0.000000e+00
      outer loop
         vertex 8.300000e+00 0.000000e+00 2.207622e+00
         vertex 0.000000e+00 0.000000e+00 2.764858e+00
         vertex 6.999999e+00 0.000000e+00 2.207622e+00
      endloop
   endfacet
   facet normal 1.000000e+00 0.000000e+00 -0.000000e+00
      outer loop
         vertex 6.999999e+00 7.464904e-01 8.159913e-01
         vertex 6.999999e+00 1.157502e+00 1.420099e+00
         vertex 6.999999e+00 0.000000e+00 2.207622e+00
      endloop
   endfacet
   facet normal 0.000000e+00 -5.625159e-01 -8.267865e-01
      outer loop
         vertex 6.999999e+00 1.157502e+00 1.420099e+00
         vertex 8.300000e+00 0.000000e+00 2.207622e+00
         vertex 6.999999e+00 0.000000e+00 2.207622e+00
      endloop
   endfacet
   facet normal 0.000000e+00 -1.000000e+00 0.000000e+00
      outer loop
         vertex 2.170000e+01 0.000000e+00 2.207622e+00
         vertex 0.000000e+00 0.000000e+00 2.764858e+00
         vertex 8.300000e+00 0.000000e+00 2.207622e+00
      endloop
   endfacet
   facet normal -1.000000e+00 -0.000000e+00 0.000000e+00
      outer loop
         vertex 8.300000e+00 1.157502e+00 1.420099e+00
         vertex 8.300000e+00 7.464904e-01 8.159913e-01
         vertex 8.300000e+00 0.000000e+00 2.207622e+00
      endloop
   endfacet
   facet normal 0.000000e+00 -5.625159e-01 -8.267865e-01
      outer loop
         vertex 6.999999e+00 1.157502e+00 1.420099e+00
         vertex 8.300000e+00 1.157502e+00 1.420099e+00
         vertex 8.300000e+00 0.000000e+00 2.207622e+00
      endloop
   endfacet
   facet normal 0.000000e+00 -1.000000e+00 0.000000e+00
      outer loop
         vertex 2.300000e+01 0.000000e+00 2.207622e+00
         vertex 3.000000e+01 0.000000e+00 2.764858e+00
         vertex 2.170000e+01 0.000000e+00 2.207622e+00
      endloop
   endfacet
   facet normal -0.000000e+00 -1.000000e+00 0.000000e+00
      outer loop
         vertex 3.000000e+01 0.000000e+00 2.764858e+00
         vertex 0.000000e+00 0.000000e+00 2.764858e+00
         vertex 2.170000e+01 0.000000e+00 2.207622e+00
      endloop
   endfacet
   facet normal 0.000000e+00 -5.625159e-01 -8.267865e-01
      outer loop
         vertex 2.170000e+01 1.157502e+00 1.420099e+00
         vertex 2.300000e+01 0.000000e+00 2.207622e+00
         vertex 2.170000e+01 0.000000e+00 2.207622e+00
      endloop
   endfacet
   facet normal 0.000000e+00 -5.625159e-01 -8.267865e-01
      outer loop
         vertex 2.170000e+01 1.157502e+00 1.420099e+00
         vertex 2.300000e+01 1.157502e+00 1.420099e+00
         vertex 2.300000e+01 0.000000e+00 2.207622e+00
      endloop
   endfacet
   facet normal 0.000000e+00 0.000000e+00 1.000000e+00
      outer loop
         vertex 3.000000e+01 0.000000e+00 2.764858e+00
         vertex 0.000000e+00 3.979206e-01 2.764858e+00
         vertex 0.000000e+00 0.000000e+00 2.764858e+00
      endloop
   endfacet
   facet normal -1.000000e+00 -0.000000e+00 -0.000000e+00
      outer loop
         vertex 0.000000e+00 3.979206e-01 2.764858e+00
         vertex 0.000000e+00 2.036987e+00 0.000000e+00
         vertex 0.000000e+00 0.000000e+00 2.764858e+00
      endloop
   endfacet
   facet normal 0.000000e+00 0.000000e+00 1.000000e+00
      outer loop
         vertex 3.000000e+01 3.979206e-01 2.764858e+00
         vertex 0.000000e+00 3.979206e-01 2.764858e+00
         vertex 3.000000e+01 0.000000e+00 2.764858e+00
      endloop
   endfacet
   facet normal -1.000000e+00 -0.000000e+00 -0.000000e+00
      outer loop
         vertex 0.000000e+00 8.906312e-01 2.764858e+00
         vertex 0.000000e+00 2.036987e+00 0.000000e+00
         vertex 0.000000e+00 3.979206e-01 2.764858e+00
      endloop
   endfacet
   facet normal -1.000000e+00 0.000000e+00 -0.000000e+00
      outer loop
         vertex 0.000000e+00 8.906312e-01 2.081071e+01
         vertex 0.000000e+00 8.906312e-01 2.764858e+00
         vertex 0.000000e+00 3.979206e-01 2.764858e+00
      endloop
   endfacet
   facet normal -1.000000e+00 0.000000e+00 0.000000e+00
      outer loop
         vertex 0.000000e+00 3.979206e-01 2.179252e+01
         vertex 0.000000e+00 8.906312e-01 2.081071e+01
         vertex 0.000000e+00 3.979206e-01 2.764858e+00
      endloop
   endfacet
   facet normal 0.000000e+00 -1.000000e+00 0.000000e+00
      outer loop
         vertex 3.000000e+01 3.979206e-01 2.764858e+00
         vertex 3.000000e+01 3.979206e-01 2.179252e+01
         vertex 0.000000e+00 3.979206e-01 2.764858e+00
      endloop
   endfacet
   facet normal -0.000000e+00 -1.000000e+00 0.000000e+00
      outer loop
         vertex 3.000000e+01 3.979206e-01 2.179252e+01
         vertex 0.000000e+00 3.979206e-01 2.179252e+01
         vertex 0.000000e+00 3.979206e-01 2.764858e+00
      endloop
   endfacet
   facet normal 1.000000e+00 0.000000e+00 0.000000e+00
      outer loop
         vertex 3.000000e+01 8.906312e-01 2.764858e+00
         vertex 3.000000e+01 3.979206e-01 2.179252e+01
         vertex 3.000000e+01 3.979206e-01 2.764858e+00
      endloop
   endfacet
   facet normal 1.000000e+00 0.000000e+00 0.000000e+00
      outer loop
         vertex 3.000000e+01 2.036987e+00 0.000000e+00
         vertex 3.000000e+01 8.906312e-01 2.764858e+00
         vertex 3.000000e+01 3.979206e-01 2.764858e+00
      endloop
   endfacet
   facet normal 0.000000e+00 0.000000e+00 1.000000e+00
      outer loop
         vertex 1.220172e+01 4.592262e+00 2.179252e+01
         vertex 1.181279e+01 4.702244e+00 2.179252e+01
         vertex 0.000000e+00 3.979206e-01 2.179252e+01
      endloop
   endfacet
   facet normal 0.000000e+00 0.000000e+00 1.000000e+00
      outer loop
         vertex 1.419233e+01 4.260074e+00 2.179252e+01
         vertex 1.378986e+01 4.297150e+00 2.179252e+01
         vertex 0.000000e+00 3.979206e-01 2.179252e+01
      endloop
   endfacet
   facet normal 0.000000e+00 0.000000e+00 1.000000e+00
      outer loop
         vertex 1.378986e+01 4.297150e+00 2.179252e+01
         vertex 1.338903e+01 4.348988e+00 2.179252e+01
         vertex 0.000000e+00 3.979206e-01 2.179252e+01
      endloop
   endfacet
   facet normal 0.000000e+00 0.000000e+00 1.000000e+00
      outer loop
         vertex 1.181279e+01 4.702244e+00 2.179252e+01
         vertex 1.142817e+01 4.826439e+00 2.179252e+01
         vertex 0.000000e+00 3.979206e-01 2.179252e+01
      endloop
   endfacet
   facet normal 0.000000e+00 0.000000e+00 1.000000e+00
      outer loop
         vertex 1.142817e+01 4.826439e+00 2.179252e+01
         vertex 1.104838e+01 4.964679e+00 2.179252e+01
         vertex 0.000000e+00 3.979206e-01 2.179252e+01
      endloop
   endfacet
   facet normal 0.000000e+00 0.000000e+00 1.000000e+00
      outer loop
         vertex 1.104838e+01 4.964679e+00 2.179252e+01
         vertex 1.067391e+01 5.116779e+00 2.179252e+01
         vertex 0.000000e+00 3.979206e-01 2.179252e+01
      endloop
   endfacet
   facet normal 0.000000e+00 0.000000e+00 1.000000e+00
      outer loop
         vertex 1.338903e+01 4.348988e+00 2.179252e+01
         vertex 1.299036e+01 4.415515e+00 2.179252e+01
         vertex 0.000000e+00 3.979206e-01 2.179252e+01
      endloop
   endfacet
   facet normal 0.000000e+00 0.000000e+00 1.000000e+00
      outer loop
         vertex 1.299036e+01 4.415515e+00 2.179252e+01
         vertex 1.259442e+01 4.496643e+00 2.179252e+01
         vertex 0.000000e+00 3.979206e-01 2.179252e+01
      endloop
   endfacet
   facet normal 0.000000e+00 0.000000e+00 1.000000e+00
      outer loop
         vertex 1.259442e+01 4.496643e+00 2.179252e+01
         vertex 1.220172e+01 4.592262e+00 2.179252e+01
         vertex 0.000000e+00 3.979206e-01 2.179252e+01
      endloop
   endfacet
   facet normal 0.000000e+00 0.000000e+00 1.000000e+00
      outer loop
         vertex 1.067391e+01 5.116779e+00 2.179252e+01
         vertex 1.030529e+01 5.282533e+00 2.179252e+01
         vertex 0.000000e+00 3.979206e-01 2.179252e+01
      endloop
   endfacet
   facet normal 0.000000e+00 0.000000e+00 1.000000e+00
      outer loop
         vertex 1.030529e+01 5.282533e+00 2.179252e+01
         vertex 6.999999e+00 5.282533e+00 2.179252e+01
         vertex 0.000000e+00 3.979206e-01 2.179252e+01
      endloop
   endfacet
   facet normal 0.000000e+00 0.000000e+00 1.000000e+00
      outer loop
         vertex 6.999999e+00 5.282533e+00 2.179252e+01
         vertex 0.000000e+00 3.676053e+00 2.179252e+01
         vertex 0.000000e+00 3.979206e-01 2.179252e+01
      endloop
   endfacet
   facet normal 0.000000e+00 0.000000e+00 1.000000e+00
      outer loop
         vertex 3.000000e+01 3.979206e-01 2.179252e+01
         vertex 1.500000e+01 4.230383e+00 2.179252e+01
         vertex 0.000000e+00 3.979206e-01 2.179252e+01
      endloop
   endfacet
   facet normal 0.000000e+00 0.000000e+00 1.000000e+00
      outer loop
         vertex 1.500000e+01 4.230383e+00 2.179252e+01
         vertex 1.459589e+01 4.237808e+00 2.179252e+01
         vertex 0.000000e+00 3.979206e-01 2.179252e+01
      endloop
   endfacet
   facet normal 0.000000e+00 0.000000e+00 1.000000e+00
      outer loop
         vertex 1.459589e+01 4.237808e+00 2.179252e+01
         vertex 1.419233e+01 4.260074e+00 2.179252e+01
         vertex 0.000000e+00 3.979206e-01 2.179252e+01
      endloop
   endfacet
   facet normal -1.000000e+00 0.000000e+00 0.000000e+00
      outer loop
         vertex 0.000000e+00 1.790632e+00 2.081071e+01
         vertex 0.000000e+00 8.906312e-01 2.081071e+01
         vertex 0.000000e+00 3.979206e-01 2.179252e+01
      endloop
   endfacet
   facet normal -1.000000e+00 -0.000000e+00 0.000000e+00
      outer loop
         vertex 0.000000e+00 3.676053e+00 2.179252e+01
         vertex 0.000000e+00 1.790632e+00 2.081071e+01
         vertex 0.000000e+00 3.979206e-01 2.179252e+01
      endloop
   endfacet
   facet normal 0.000000e+00 0.000000e+00 1.000000e+00
      outer loop
         vertex 3.000000e+01 3.676053e+00 2.179252e+01
         vertex 2.300000e+01 5.282533e+00 2.179252e+01
         vertex 3.000000e+01 3.979206e-01 2.179252e+01
      endloop
   endfacet
   facet normal 0.000000e+00 0.000000e+00 1.000000e+00
      outer loop
         vertex 1.857183e+01 4.826439e+00 2.179252e+01
         vertex 1.818721e+01 4.702244e+00 2.179252e+01
         vertex 3.000000e+01 3.979206e-01 2.179252e+01
      endloop
   endfacet
   facet normal 0.000000e+00 0.000000e+00 1.000000e+00
      outer loop
         vertex 1.895162e+01 4.964679e+00 2.179252e+01
         vertex 1.857183e+01 4.826439e+00 2.179252e+01
         vertex 3.000000e+01 3.979206e-01 2.179252e+01
      endloop
   endfacet
   facet normal 0.000000e+00 0.000000e+00 1.000000e+00
      outer loop
         vertex 1.932609e+01 5.116779e+00 2.179252e+01
         vertex 1.895162e+01 4.964679e+00 2.179252e+01
         vertex 3.000000e+01 3.979206e-01 2.179252e+01
      endloop
   endfacet
   facet normal 0.000000e+00 0.000000e+00 1.000000e+00
      outer loop
         vertex 2.300000e+01 5.282533e+00 2.179252e+01
         vertex 1.932609e+01 5.116779e+00 2.179252e+01
         vertex 3.000000e+01 3.979206e-01 2.179252e+01
      endloop
   endfacet
   facet normal 0.000000e+00 0.000000e+00 1.000000e+00
      outer loop
         vertex 1.818721e+01 4.702244e+00 2.179252e+01
         vertex 1.779828e+01 4.592262e+00 2.179252e+01
         vertex 3.000000e+01 3.979206e-01 2.179252e+01
      endloop
   endfacet
   facet normal 0.000000e+00 0.000000e+00 1.000000e+00
      outer loop
         vertex 1.779828e+01 4.592262e+00 2.179252e+01
         vertex 1.740558e+01 4.496643e+00 2.179252e+01
         vertex 3.000000e+01 3.979206e-01 2.179252e+01
      endloop
   endfacet
   facet normal 0.000000e+00 0.000000e+00 1.000000e+00
      outer loop
         vertex 1.740558e+01 4.496643e+00 2.179252e+01
         vertex 1.700963e+01 4.415515e+00 2.179252e+01
         vertex 3.000000e+01 3.979206e-01 2.179252e+01
      endloop
   endfacet
   facet normal 0.000000e+00 0.000000e+00 1.000000e+00
      outer loop
         vertex 1.700963e+01 4.415515e+00 2.179252e+01
         vertex 1.661097e+01 4.348988e+00 2.179252e+01
         vertex 3.000000e+01 3.979206e-01 2.179252e+01
      endloop
   endfacet
   facet normal 0.000000e+00 0.000000e+00 1.000000e+00
      outer loop
         vertex 1.661097e+01 4.348988e+00 2.179252e+01
         vertex 1.621014e+01 4.297150e+00 2.179252e+01
         vertex 3.000000e+01 3.979206e-01 2.179252e+01
      endloop
   endfacet
   facet normal 0.000000e+00 0.000000e+00 1.000000e+00
      outer loop
         vertex 1.621014e+01 4.297150e+00 2.179252e+01
         vertex 1.580767e+01 4.260074e+00 2.179252e+01
         vertex 3.000000e+01 3.979206e-01 2.179252e+01
      endloop
   endfacet
   facet normal 0.000000e+00 0.000000e+00 1.000000e+00
      outer loop
         vertex 1.580767e+01 4.260074e+00 2.179252e+01
         vertex 1.540411e+01 4.237808e+00 2.179252e+01
         vertex 3.000000e+01 3.979206e-01 2.179252e+01
      endloop
   endfacet
   facet normal 0.000000e+00 0.000000e+00 1.000000e+00
      outer loop
         vertex 1.540411e+01 4.237808e+00 2.179252e+01
         vertex 1.500000e+01 4.230383e+00 2.179252e+01
         vertex 3.000000e+01 3.979206e-01 2.179252e+01
      endloop
   endfacet
   facet normal 1.000000e+00 0.000000e+00 -0.000000e+00
      outer loop
         vertex 3.000000e+01 8.906312e-01 2.081071e+01
         vertex 3.000000e+01 3.676053e+00 2.179252e+01
         vertex 3.000000e+01 3.979206e-01 2.179252e+01
      endloop
   endfacet
   facet normal 1.000000e+00 0.000000e+00 -0.000000e+00
      outer loop
         vertex 3.000000e+01 8.906312e-01 2.764858e+00
         vertex 3.000000e+01 8.906312e-01 2.081071e+01
         vertex 3.000000e+01 3.979206e-01 2.179252e+01
      endloop
   endfacet
   facet normal 0.000000e+00 -5.344335e-01 -8.452106e-01
      outer loop
         vertex 0.000000e+00 2.036987e+00 0.000000e+00
         vertex 8.300000e+00 7.464904e-01 8.159913e-01
         vertex 6.999999e+00 7.464904e-01 8.159913e-01
      endloop
   endfacet
   facet normal 0.000000e+00 -8.267878e-01 5.625139e-01
      outer loop
         vertex 8.300000e+00 7.464904e-01 8.159913e-01
         vertex 6.999999e+00 1.157502e+00 1.420099e+00
         vertex 6.999999e+00 7.464904e-01 8.159913e-01
      endloop
   endfacet
   facet normal 0.000000e+00 -5.344335e-01 -8.452106e-01
      outer loop
         vertex 3.000000e+01 2.036987e+00 0.000000e+00
         vertex 2.170000e+01 7.464904e-01 8.159913e-01
         vertex 8.300000e+00 7.464904e-01 8.159913e-01
      endloop
   endfacet
   facet normal 0.000000e+00 -5.344335e-01 -8.452106e-01
      outer loop
         vertex 0.000000e+00 2.036987e+00 0.000000e+00
         vertex 3.000000e+01 2.036987e+00 0.000000e+00
         vertex 8.300000e+00 7.464904e-01 8.159913e-01
      endloop
   endfacet
   facet normal 0.000000e+00 -8.267878e-01 5.625139e-01
      outer loop
         vertex 8.300000e+00 1.157502e+00 1.420099e+00
         vertex 6.999999e+00 1.157502e+00 1.420099e+00
         vertex 8.300000e+00 7.464904e-01 8.159913e-01
      endloop
   endfacet
   facet normal 0.000000e+00 -5.344335e-01 -8.452106e-01
      outer loop
         vertex 3.000000e+01 2.036987e+00 0.000000e+00
         vertex 2.300000e+01 7.464904e-01 8.159913e-01
         vertex 2.170000e+01 7.464904e-01 8.159913e-01
      endloop
   endfacet
   facet normal 0.000000e+00 -8.267878e-01 5.625139e-01
      outer loop
         vertex 2.300000e+01 1.157502e+00 1.420099e+00
         vertex 2.170000e+01 1.157502e+00 1.420099e+00
         vertex 2.170000e+01 7.464904e-01 8.159913e-01
      endloop
   endfacet
   facet normal 0.000000e+00 -8.267878e-01 5.625139e-01
      outer loop
         vertex 2.300000e+01 7.464904e-01 8.159913e-01
         vertex 2.300000e+01 1.157502e+00 1.420099e+00
         vertex 2.170000e+01 7.464904e-01 8.159913e-01
      endloop
   endfacet
   facet normal 0.000000e+00 1.000000e+00 0.000000e+00
      outer loop
         vertex 3.000000e+01 8.906312e-01 2.081071e+01
         vertex 3.000000e+01 8.906312e-01 2.764858e+00
         vertex 0.000000e+00 8.906312e-01 2.764858e+00
      endloop
   endfacet
   facet normal -0.000000e+00 1.000000e+00 0.000000e+00
      outer loop
         vertex 0.000000e+00 8.906312e-01 2.081071e+01
         vertex 3.000000e+01 8.906312e-01 2.081071e+01
         vertex 0.000000e+00 8.906312e-01 2.764858e+00
      endloop
   endfacet
   facet normal 0.000000e+00 0.000000e+00 1.000000e+00
      outer loop
         vertex 3.000000e+01 8.906312e-01 2.764858e+00
         vertex 0.000000e+00 1.790632e+00 2.764858e+00
         vertex 0.000000e+00 8.906312e-01 2.764858e+00
      endloop
   endfacet
   facet normal -1.000000e+00 -0.000000e+00 -0.000000e+00
      outer loop
         vertex 0.000000e+00 1.790632e+00 2.764858e+00
         vertex 0.000000e+00 2.036987e+00 0.000000e+00
         vertex 0.000000e+00 8.906312e-01 2.764858e+00
      endloop
   endfacet
   facet normal 0.000000e+00 0.000000e+00 1.000000e+00
      outer loop
         vertex 3.000000e+01 1.790632e+00 2.764858e+00
         vertex 0.000000e+00 1.790632e+00 2.764858e+00
         vertex 3.000000e+01 8.906312e-01 2.764858e+00
      endloop
   endfacet
   facet normal 1.000000e+00 0.000000e+00 0.000000e+00
      outer loop
         vertex 3.000000e+01 2.036987e+00 0.000000e+00
         vertex 3.000000e+01 1.790632e+00 2.764858e+00
         vertex 3.000000e+01 8.906312e-01 2.764858e+00
      endloop
   endfacet
   facet normal 0.000000e+00 0.000000e+00 -1.000000e+00
      outer loop
         vertex 0.000000e+00 1.790632e+00 2.081071e+01
         vertex 3.000000e+01 8.906312e-01 2.081071e+01
         vertex 0.000000e+00 8.906312e-01 2.081071e+01
      endloop
   endfacet
   facet normal 1.000000e+00 0.000000e+00 -0.000000e+00
      outer loop
         vertex 3.000000e+01 1.790632e+00 2.081071e+01
         vertex 3.000000e+01 3.676053e+00 2.179252e+01
         vertex 3.000000e+01 8.906312e-01 2.081071e+01
      endloop
   endfacet
   facet normal 0.000000e+00 0.000000e+00 -1.000000e+00
      outer loop
         vertex 0.000000e+00 1.790632e+00 2.081071e+01
         vertex 3.000000e+01 1.790632e+00 2.081071e+01
         vertex 3.000000e+01 8.906312e-01 2.081071e+01
      endloop
   endfacet
   facet normal 0.000000e+00 -1.000000e+00 0.000000e+00
      outer loop
         vertex 3.000000e+01 1.790632e+00 2.764858e+00
         vertex 0.000000e+00 1.790632e+00 2.081071e+01
         vertex 0.000000e+00 1.790632e+00 2.764858e+00
      endloop
   endfacet
   facet normal -1.000000e+00 0.000000e+00 0.000000e+00
      outer loop
         vertex 0.000000e+00 1.790632e+00 2.081071e+01
         vertex 0.000000e+00 2.283342e+00 2.081071e+01
         vertex 0.000000e+00 1.790632e+00 2.764858e+00
      endloop
   endfacet
   facet normal -1.000000e+00 0.000000e+00 -0.000000e+00
      outer loop
         vertex 0.000000e+00 2.283342e+00 2.081071e+01
         vertex 0.000000e+00 2.283342e+00 2.764858e+00
         vertex 0.000000e+00 1.790632e+00 2.764858e+00
      endloop
   endfacet
   facet normal -1.000000e+00 -0.000000e+00 0.000000e+00
      outer loop
         vertex 0.000000e+00 2.283342e+00 2.764858e+00
         vertex 0.000000e+00 2.036987e+00 0.000000e+00
         vertex 0.000000e+00 1.790632e+00 2.764858e+00
      endloop
   endfacet
   facet normal -0.000000e+00 -1.000000e+00 -0.000000e+00
      outer loop
         vertex 3.000000e+01 1.790632e+00 2.081071e+01
         vertex 0.000000e+00 1.790632e+00 2.081071e+01
         vertex 3.000000e+01 1.790632e+00 2.764858e+00
      endloop
   endfacet
   facet normal 1.000000e+00 0.000000e+00 -0.000000e+00
      outer loop
         vertex 3.000000e+01 2.036987e+00 0.000000e+00
         vertex 3.000000e+01 4.073975e+00 1.288004e+00
         vertex 3.000000e+01 1.790632e+00 2.764858e+00
      endloop
   endfacet
   facet normal 1.000000e+00 0.000000e+00 0.000000e+00
      outer loop
         vertex 3.000000e+01 4.073975e+00 1.288004e+00
         vertex 3.000000e+01 2.283342e+00 2.764858e+00
         vertex 3.000000e+01 1.790632e+00 2.764858e+00
      endloop
   endfacet
   facet normal 1.000000e+00 0.000000e+00 0.000000e+00
      outer loop
         vertex 3.000000e+01 2.283342e+00 2.764858e+00
         vertex 3.000000e+01 1.790632e+00 2.081071e+01
         vertex 3.000000e+01 1.790632e+00 2.764858e+00
      endloop
   endfacet
   facet normal -1.000000e+00 0.000000e+00 0.000000e+00
      outer loop
         vertex 0.000000e+00 3.676053e+00 2.179252e+01
         vertex 0.000000e+00 2.283342e+00 2.081071e+01
         vertex 0.000000e+00 1.790632e+00 2.081071e+01
      endloop
   endfacet
   facet normal 1.000000e+00 0.000000e+00 -0.000000e+00
      outer loop
         vertex 3.000000e+01 2.283342e+00 2.764858e+00
         vertex 3.000000e+01 2.283342e+00 2.081071e+01
         vertex 3.000000e+01 1.790632e+00 2.081071e+01
      endloop
   endfacet
   facet normal 1.000000e+00 0.000000e+00 -0.000000e+00
      outer loop
         vertex 3.000000e+01 2.283342e+00 2.081071e+01
         vertex 3.000000e+01 3.676053e+00 2.179252e+01
         vertex 3.000000e+01 1.790632e+00 2.081071e+01
      endloop
   endfacet
   facet normal -1.000000e+00 0.000000e+00 -0.000000e+00
      outer loop
         vertex 0.000000e+00 3.676053e+00 2.764858e+00
         vertex 0.000000e+00 4.073975e+00 1.288004e+00
         vertex 0.000000e+00 2.036987e+00 0.000000e+00
      endloop
   endfacet
   facet normal -1.000000e+00 0.000000e+00 -0.000000e+00
      outer loop
         vertex 0.000000e+00 2.283342e+00 2.764858e+00
         vertex 0.000000e+00 3.183343e+00 2.764858e+00
         vertex 0.000000e+00 2.036987e+00 0.000000e+00
      endloop
   endfacet
   facet normal -1.000000e+00 0.000000e+00 -0.000000e+00
      outer loop
         vertex 0.000000e+00 3.183343e+00 2.764858e+00
         vertex 0.000000e+00 3.676053e+00 2.764858e+00
         vertex 0.000000e+00 2.036987e+00 0.000000e+00
      endloop
   endfacet
   facet normal 0.000000e+00 5.344336e-01 -8.452105e-01
      outer loop
         vertex 0.000000e+00 4.073975e+00 1.288004e+00
         vertex 3.000000e+01 2.036987e+00 0.000000e+00
         vertex 0.000000e+00 2.036987e+00 0.000000e+00
      endloop
   endfacet
   facet normal 0.000000e+00 5.344336e-01 -8.452105e-01
      outer loop
         vertex 0.000000e+00 4.073975e+00 1.288004e+00
         vertex 3.000000e+01 4.073975e+00 1.288004e+00
         vertex 3.000000e+01 2.036987e+00 0.000000e+00
      endloop
   endfacet
   facet normal 0.000000e+00 1.000000e+00 0.000000e+00
      outer loop
         vertex 3.000000e+01 2.283342e+00 2.081071e+01
         vertex 3.000000e+01 2.283342e+00 2.764858e+00
         vertex 0.000000e+00 2.283342e+00 2.764858e+00
      endloop
   endfacet
   facet normal -0.000000e+00 1.000000e+00 0.000000e+00
      outer loop
         vertex 0.000000e+00 2.283342e+00 2.081071e+01
         vertex 3.000000e+01 2.283342e+00 2.081071e+01
         vertex 0.000000e+00 2.283342e+00 2.764858e+00
      endloop
   endfacet
   facet normal 0.000000e+00 0.000000e+00 1.000000e+00
      outer loop
         vertex 3.000000e+01 2.283342e+00 2.764858e+00
         vertex 0.000000e+00 3.183343e+00 2.764858e+00
         vertex 0.000000e+00 2.283342e+00 2.764858e+00
      endloop
   endfacet
   facet normal 0.000000e+00 0.000000e+00 1.000000e+00
      outer loop
         vertex 3.000000e+01 3.183343e+00 2.764858e+00
         vertex 0.000000e+00 3.183343e+00 2.764858e+00
         vertex 3.000000e+01 2.283342e+00 2.764858e+00
      endloop
   endfacet
   facet normal 1.000000e+00 0.000000e+00 0.000000e+00
      outer loop
         vertex 3.000000e+01 4.073975e+00 1.288004e+00
         vertex 3.000000e+01 3.183343e+00 2.764858e+00
         vertex 3.000000e+01 2.283342e+00 2.764858e+00
      endloop
   endfacet
   facet normal -1.000000e+00 0.000000e+00 0.000000e+00
      outer loop
         vertex 0.000000e+00 3.676053e+00 2.179252e+01
         vertex 0.000000e+00 3.183343e+00 2.081071e+01
         vertex 0.000000e+00 2.283342e+00 2.081071e+01
      endloop
   endfacet
   facet normal 0.000000e+00 0.000000e+00 -1.000000e+00
      outer loop
         vertex 0.000000e+00 3.183343e+00 2.081071e+01
         vertex 3.000000e+01 2.283342e+00 2.081071e+01
         vertex 0.000000e+00 2.283342e+00 2.081071e+01
      endloop
   endfacet
   facet normal 1.000000e+00 0.000000e+00 -0.000000e+00
      outer loop
         vertex 3.000000e+01 3.183343e+00 2.081071e+01
         vertex 3.000000e+01 3.676053e+00 2.179252e+01
         vertex 3.000000e+01 2.283342e+00 2.081071e+01
      endloop
   endfacet
   facet normal 0.000000e+00 0.000000e+00 -1.000000e+00
      outer loop
         vertex 0.000000e+00 3.183343e+00 2.081071e+01
         vertex 3.000000e+01 3.183343e+00 2.081071e+01
         vertex 3.000000e+01 2.283342e+00 2.081071e+01
      endloop
   endfacet
   facet normal 0.000000e+00 -1.000000e+00 0.000000e+00
      outer loop
         vertex 3.000000e+01 3.183343e+00 2.764858e+00
         vertex 0.000000e+00 3.183343e+00 2.081071e+01
         vertex 0.000000e+00 3.183343e+00 2.764858e+00
      endloop
   endfacet
   facet normal -1.000000e+00 0.000000e+00 0.000000e+00
      outer loop
         vertex 0.000000e+00 3.183343e+00 2.081071e+01
         vertex 0.000000e+00 3.676053e+00 5.685769e+00
         vertex 0.000000e+00 3.183343e+00 2.764858e+00
      endloop
   endfacet
   facet normal -1.000000e+00 0.000000e+00 -0.000000e+00
      outer loop
         vertex 0.000000e+00 3.676053e+00 5.685769e+00
         vertex 0.000000e+00 3.676053e+00 4.685767e+00
         vertex 0.000000e+00 3.183343e+00 2.764858e+00
      endloop
   endfacet
   facet normal -1.000000e+00 0.000000e+00 -0.000000e+00
      outer loop
         vertex 0.000000e+00 3.676053e+00 4.685767e+00
         vertex 0.000000e+00 3.676053e+00 2.764858e+00
         vertex 0.000000e+00 3.183343e+00 2.764858e+00
      endloop
   endfacet
   facet normal -0.000000e+00 -1.000000e+00 -0.000000e+00
      outer loop
         vertex 3.000000e+01 3.183343e+00 2.081071e+01
         vertex 0.000000e+00 3.183343e+00 2.081071e+01
         vertex 3.000000e+01 3.183343e+00 2.764858e+00
      endloop
   endfacet
   facet normal 1.000000e+00 0.000000e+00 0.000000e+00
      outer loop
         vertex 3.000000e+01 4.073975e+00 1.288004e+00
         vertex 3.000000e+01 3.676053e+00 2.764858e+00
         vertex 3.000000e+01 3.183343e+00 2.764858e+00
      endloop
   endfacet
   facet normal 1.000000e+00 0.000000e+00 -0.000000e+00
      outer loop
         vertex 3.000000e+01 3.676053e+00 2.764858e+00
         vertex 3.000000e+01 3.676053e+00 4.685767e+00
         vertex 3.000000e+01 3.183343e+00 2.764858e+00
      endloop
   endfacet
   facet normal 1.000000e+00 0.000000e+00 -0.000000e+00
      outer loop
         vertex 3.000000e+01 3.676053e+00 4.685767e+00
         vertex 3.000000e+01 3.676053e+00 5.685769e+00
         vertex 3.000000e+01 3.183343e+00 2.764858e+00
      endloop
   endfacet
   facet normal 1.000000e+00 0.000000e+00 0.000000e+00
      outer loop
         vertex 3.000000e+01 3.676053e+00 5.685769e+00
         vertex 3.000000e+01 3.183343e+00 2.081071e+01
         vertex 3.000000e+01 3.183343e+00 2.764858e+00
      endloop
   endfacet
   facet normal -1.000000e+00 0.000000e+00 -0.000000e+00
      outer loop
         vertex 0.000000e+00 3.676053e+00 2.179252e+01
         vertex 0.000000e+00 3.676053e+00 2.079252e+01
         vertex 0.000000e+00 3.183343e+00 2.081071e+01
      endloop
   endfacet
   facet normal -1.000000e+00 -0.000000e+00 -0.000000e+00
      outer loop
         vertex 0.000000e+00 3.676053e+00 2.079252e+01
         vertex 0.000000e+00 3.676053e+00 5.685769e+00
         vertex 0.000000e+00 3.183343e+00 2.081071e+01
      endloop
   endfacet
   facet normal 1.000000e+00 0.000000e+00 -0.000000e+00
      outer loop
         vertex 3.000000e+01 3.676053e+00 5.685769e+00
         vertex 3.000000e+01 3.676053e+00 2.079252e+01
         vertex 3.000000e+01 3.183343e+00 2.081071e+01
      endloop
   endfacet
   facet normal 1.000000e+00 0.000000e+00 -0.000000e+00
      outer loop
         vertex 3.000000e+01 3.676053e+00 2.079252e+01
         vertex 3.000000e+01 3.676053e+00 2.179252e+01
         vertex 3.000000e+01 3.183343e+00 2.081071e+01
      endloop
   endfacet
   facet normal 0.000000e+00 1.000000e+00 0.000000e+00
      outer loop
         vertex 3.000000e+01 3.676053e+00 4.685767e+00
         vertex 3.000000e+01 3.676053e+00 2.764858e+00
         vertex 0.000000e+00 3.676053e+00 2.764858e+00
      endloop
   endfacet
   facet normal -0.000000e+00 1.000000e+00 0.000000e+00
      outer loop
         vertex 0.000000e+00 3.676053e+00 4.685767e+00
         vertex 3.000000e+01 3.676053e+00 4.685767e+00
         vertex 0.000000e+00 3.676053e+00 2.764858e+00
      endloop
   endfacet
   facet normal -1.000000e+00 -0.000000e+00 -0.000000e+00
      outer loop
         vertex 0.000000e+00 4.073975e+00 2.764858e+00
         vertex 0.000000e+00 4.073975e+00 1.288004e+00
         vertex 0.000000e+00 3.676053e+00 2.764858e+00
      endloop
   endfacet
   facet normal 0.000000e+00 -0.000000e+00 1.000000e+00
      outer loop
         vertex 3.000000e+01 3.676053e+00 2.764858e+00
         vertex 3.000000e+01 4.073975e+00 2.764858e+00
         vertex 0.000000e+00 3.676053e+00 2.764858e+00
      endloop
   endfacet
   facet normal 0.000000e+00 0.000000e+00 1.000000e+00
      outer loop
         vertex 3.000000e+01 4.073975e+00 2.764858e+00
         vertex 0.000000e+00 4.073975e+00 2.764858e+00
         vertex 0.000000e+00 3.676053e+00 2.764858e+00
      endloop
   endfacet
   facet normal 1.000000e+00 0.000000e+00 -0.000000e+00
      outer loop
         vertex 3.000000e+01 4.073975e+00 1.288004e+00
         vertex 3.000000e+01 4.073975e+00 2.764858e+00
         vertex 3.000000e+01 3.676053e+00 2.764858e+00
      endloop
   endfacet
   facet normal 0.000000e+00 -0.000000e+00 -1.000000e+00
      outer loop
         vertex 1.142817e+01 4.826439e+00 4.685767e+00
         vertex 1.181279e+01 4.702244e+00 4.685767e+00
         vertex 0.000000e+00 3.676053e+00 4.685767e+00
      endloop
   endfacet
   facet normal 0.000000e+00 -0.000000e+00 -1.000000e+00
      outer loop
         vertex 1.104838e+01 4.964679e+00 4.685767e+00
         vertex 1.142817e+01 4.826439e+00 4.685767e+00
         vertex 0.000000e+00 3.676053e+00 4.685767e+00
      endloop
   endfacet
   facet normal 0.000000e+00 -0.000000e+00 -1.000000e+00
      outer loop
         vertex 1.067391e+01 5.116779e+00 4.685767e+00
         vertex 1.104838e+01 4.964679e+00 4.685767e+00
         vertex 0.000000e+00 3.676053e+00 4.685767e+00
      endloop
   endfacet
   facet normal 0.000000e+00 -0.000000e+00 -1.000000e+00
      outer loop
         vertex 6.999999e+00 5.282533e+00 4.685767e+00
         vertex 1.067391e+01 5.116779e+00 4.685767e+00
         vertex 0.000000e+00 3.676053e+00 4.685767e+00
      endloop
   endfacet
   facet normal 0.000000e+00 -0.000000e+00 -1.000000e+00
      outer loop
         vertex 1.181279e+01 4.702244e+00 4.685767e+00
         vertex 1.220172e+01 4.592262e+00 4.685767e+00
         vertex 0.000000e+00 3.676053e+00 4.685767e+00
      endloop
   endfacet
   facet normal 0.000000e+00 -0.000000e+00 -1.000000e+00
      outer loop
         vertex 1.220172e+01 4.592262e+00 4.685767e+00
         vertex 1.259442e+01 4.496643e+00 4.685767e+00
         vertex 0.000000e+00 3.676053e+00 4.685767e+00
      endloop
   endfacet
   facet normal 0.000000e+00 -0.000000e+00 -1.000000e+00
      outer loop
         vertex 1.259442e+01 4.496643e+00 4.685767e+00
         vertex 1.299036e+01 4.415515e+00 4.685767e+00
         vertex 0.000000e+00 3.676053e+00 4.685767e+00
      endloop
   endfacet
   facet normal 0.000000e+00 -0.000000e+00 -1.000000e+00
      outer loop
         vertex 1.299036e+01 4.415515e+00 4.685767e+00
         vertex 1.338903e+01 4.348988e+00 4.685767e+00
         vertex 0.000000e+00 3.676053e+00 4.685767e+00
      endloop
   endfacet
   facet normal 0.000000e+00 -0.000000e+00 -1.000000e+00
      outer loop
         vertex 1.338903e+01 4.348988e+00 4.685767e+00
         vertex 1.378986e+01 4.297150e+00 4.685767e+00
         vertex 0.000000e+00 3.676053e+00 4.685767e+00
      endloop
   endfacet
   facet normal 0.000000e+00 -0.000000e+00 -1.000000e+00
      outer loop
         vertex 1.378986e+01 4.297150e+00 4.685767e+00
         vertex 1.419233e+01 4.260074e+00 4.685767e+00
         vertex 0.000000e+00 3.676053e+00 4.685767e+00
      endloop
   endfacet
   facet normal 0.000000e+00 -0.000000e+00 -1.000000e+00
      outer loop
         vertex 1.419233e+01 4.260074e+00 4.685767e+00
         vertex 1.459589e+01 4.237808e+00 4.685767e+00
         vertex 0.000000e+00 3.676053e+00 4.685767e+00
      endloop
   endfacet
   facet normal 0.000000e+00 -0.000000e+00 -1.000000e+00
      outer loop
         vertex 1.459589e+01 4.237808e+00 4.685767e+00
         vertex 1.500000e+01 4.230383e+00 4.685767e+00
         vertex 0.000000e+00 3.676053e+00 4.685767e+00
      endloop
   endfacet
   facet normal 0.000000e+00 -0.000000e+00 -1.000000e+00
      outer loop
         vertex 1.500000e+01 4.230383e+00 4.685767e+00
         vertex 3.000000e+01 3.676053e+00 4.685767e+00
         vertex 0.000000e+00 3.676053e+00 4.685767e+00
      endloop
   endfacet
   facet normal -2.236822e-01 9.746621e-01 0.000000e+00
      outer loop
         vertex 0.000000e+00 3.676053e+00 5.685769e+00
         vertex 6.999999e+00 5.282533e+00 4.685767e+00
         vertex 0.000000e+00 3.676053e+00 4.685767e+00
      endloop
   endfacet
   facet normal 0.000000e+00 0.000000e+00 -1.000000e+00
      outer loop
         vertex 1.779828e+01 4.592262e+00 4.685767e+00
         vertex 1.818721e+01 4.702244e+00 4.685767e+00
         vertex 3.000000e+01 3.676053e+00 4.685767e+00
      endloop
   endfacet
   facet normal 0.000000e+00 0.000000e+00 -1.000000e+00
      outer loop
         vertex 1.818721e+01 4.702244e+00 4.685767e+00
         vertex 1.857183e+01 4.826439e+00 4.685767e+00
         vertex 3.000000e+01 3.676053e+00 4.685767e+00
      endloop
   endfacet
   facet normal 0.000000e+00 0.000000e+00 -1.000000e+00
      outer loop
         vertex 1.857183e+01 4.826439e+00 4.685767e+00
         vertex 1.895162e+01 4.964679e+00 4.685767e+00
         vertex 3.000000e+01 3.676053e+00 4.685767e+00
      endloop
   endfacet
   facet normal 0.000000e+00 0.000000e+00 -1.000000e+00
      outer loop
         vertex 1.895162e+01 4.964679e+00 4.685767e+00
         vertex 1.932609e+01 5.116779e+00 4.685767e+00
         vertex 3.000000e+01 3.676053e+00 4.685767e+00
      endloop
   endfacet
   facet normal 0.000000e+00 0.000000e+00 -1.000000e+00
      outer loop
         vertex 1.932609e+01 5.116779e+00 4.685767e+00
         vertex 2.300000e+01 5.282533e+00 4.685767e+00
         vertex 3.000000e+01 3.676053e+00 4.685767e+00
      endloop
   endfacet
   facet normal 0.000000e+00 0.000000e+00 -1.000000e+00
      outer loop
         vertex 1.500000e+01 4.230383e+00 4.685767e+00
         vertex 1.540411e+01 4.237808e+00 4.685767e+00
         vertex 3.000000e+01 3.676053e+00 4.685767e+00
      endloop
   endfacet
   facet normal 0.000000e+00 0.000000e+00 -1.000000e+00
      outer loop
         vertex 1.540411e+01 4.237808e+00 4.685767e+00
         vertex 1.580767e+01 4.260074e+00 4.685767e+00
         vertex 3.000000e+01 3.676053e+00 4.685767e+00
      endloop
   endfacet
   facet normal 0.000000e+00 0.000000e+00 -1.000000e+00
      outer loop
         vertex 1.580767e+01 4.260074e+00 4.685767e+00
         vertex 1.621014e+01 4.297150e+00 4.685767e+00
         vertex 3.000000e+01 3.676053e+00 4.685767e+00
      endloop
   endfacet
   facet normal 0.000000e+00 0.000000e+00 -1.000000e+00
      outer loop
         vertex 1.621014e+01 4.297150e+00 4.685767e+00
         vertex 1.661097e+01 4.348988e+00 4.685767e+00
         vertex 3.000000e+01 3.676053e+00 4.685767e+00
      endloop
   endfacet
   facet normal 0.000000e+00 0.000000e+00 -1.000000e+00
      outer loop
         vertex 1.661097e+01 4.348988e+00 4.685767e+00
         vertex 1.700963e+01 4.415515e+00 4.685767e+00
         vertex 3.000000e+01 3.676053e+00 4.685767e+00
      endloop
   endfacet
   facet normal 0.000000e+00 0.000000e+00 -1.000000e+00
      outer loop
         vertex 1.700963e+01 4.415515e+00 4.685767e+00
         vertex 1.740558e+01 4.496643e+00 4.685767e+00
         vertex 3.000000e+01 3.676053e+00 4.685767e+00
      endloop
   endfacet
   facet normal 0.000000e+00 0.000000e+00 -1.000000e+00
      outer loop
         vertex 1.740558e+01 4.496643e+00 4.685767e+00
         vertex 1.779828e+01 4.592262e+00 4.685767e+00
         vertex 3.000000e+01 3.676053e+00 4.685767e+00
      endloop
   endfacet
   facet normal 2.236822e-01 9.746621e-01 -0.000000e+00
      outer loop
         vertex 2.300000e+01 5.282533e+00 4.685767e+00
         vertex 2.300000e+01 5.282533e+00 5.685769e+00
         vertex 3.000000e+01 3.676053e+00 4.685767e+00
      endloop
   endfacet
   facet normal 2.236822e-01 9.746621e-01 0.000000e+00
      outer loop
         vertex 2.300000e+01 5.282533e+00 5.685769e+00
         vertex 3.000000e+01 3.676053e+00 5.685769e+00
         vertex 3.000000e+01 3.676053e+00 4.685767e+00
      endloop
   endfacet
   facet normal 0.000000e+00 1.000000e+00 0.000000e+00
      outer loop
         vertex 3.000000e+01 3.676053e+00 2.079252e+01
         vertex 3.000000e+01 3.676053e+00 5.685769e+00
         vertex 0.000000e+00 3.676053e+00 5.685769e+00
      endloop
   endfacet
   facet normal -0.000000e+00 1.000000e+00 0.000000e+00
      outer loop
         vertex 0.000000e+00 3.676053e+00 2.079252e+01
         vertex 3.000000e+01 3.676053e+00 2.079252e+01
         vertex 0.000000e+00 3.676053e+00 5.685769e+00
      endloop
   endfacet
   facet normal 0.000000e+00 0.000000e+00 1.000000e+00
      outer loop
         vertex 1.220172e+01 4.592262e+00 5.685769e+00
         vertex 1.181279e+01 4.702244e+00 5.685769e+00
         vertex 0.000000e+00 3.676053e+00 5.685769e+00
      endloop
   endfacet
   facet normal 0.000000e+00 0.000000e+00 1.000000e+00
      outer loop
         vertex 1.181279e+01 4.702244e+00 5.685769e+00
         vertex 1.142817e+01 4.826439e+00 5.685769e+00
         vertex 0.000000e+00 3.676053e+00 5.685769e+00
      endloop
   endfacet
   facet normal 0.000000e+00 0.000000e+00 1.000000e+00
      outer loop
         vertex 1.338903e+01 4.348988e+00 5.685769e+00
         vertex 1.299036e+01 4.415515e+00 5.685769e+00
         vertex 0.000000e+00 3.676053e+00 5.685769e+00
      endloop
   endfacet
   facet normal 0.000000e+00 0.000000e+00 1.000000e+00
      outer loop
         vertex 1.299036e+01 4.415515e+00 5.685769e+00
         vertex 1.259442e+01 4.496643e+00 5.685769e+00
         vertex 0.000000e+00 3.676053e+00 5.685769e+00
      endloop
   endfacet
   facet normal 0.000000e+00 0.000000e+00 1.000000e+00
      outer loop
         vertex 1.259442e+01 4.496643e+00 5.685769e+00
         vertex 1.220172e+01 4.592262e+00 5.685769e+00
         vertex 0.000000e+00 3.676053e+00 5.685769e+00
      endloop
   endfacet
   facet normal 0.000000e+00 0.000000e+00 1.000000e+00
      outer loop
         vertex 1.142817e+01 4.826439e+00 5.685769e+00
         vertex 1.104838e+01 4.964679e+00 5.685769e+00
         vertex 0.000000e+00 3.676053e+00 5.685769e+00
      endloop
   endfacet
   facet normal 0.000000e+00 0.000000e+00 1.000000e+00
      outer loop
         vertex 1.104838e+01 4.964679e+00 5.685769e+00
         vertex 1.067391e+01 5.116779e+00 5.685769e+00
         vertex 0.000000e+00 3.676053e+00 5.685769e+00
      endloop
   endfacet
   facet normal 0.000000e+00 0.000000e+00 1.000000e+00
      outer loop
         vertex 1.067391e+01 5.116779e+00 5.685769e+00
         vertex 6.999999e+00 5.282533e+00 5.685769e+00
         vertex 0.000000e+00 3.676053e+00 5.685769e+00
      endloop
   endfacet
   facet normal 0.000000e+00 0.000000e+00 1.000000e+00
      outer loop
         vertex 1.459589e+01 4.237808e+00 5.685769e+00
         vertex 1.419233e+01 4.260074e+00 5.685769e+00
         vertex 0.000000e+00 3.676053e+00 5.685769e+00
      endloop
   endfacet
   facet normal 0.000000e+00 0.000000e+00 1.000000e+00
      outer loop
         vertex 1.419233e+01 4.260074e+00 5.685769e+00
         vertex 1.378986e+01 4.297150e+00 5.685769e+00
         vertex 0.000000e+00 3.676053e+00 5.685769e+00
      endloop
   endfacet
   facet normal 0.000000e+00 0.000000e+00 1.000000e+00
      outer loop
         vertex 1.378986e+01 4.297150e+00 5.685769e+00
         vertex 1.338903e+01 4.348988e+00 5.685769e+00
         vertex 0.000000e+00 3.676053e+00 5.685769e+00
      endloop
   endfacet
   facet normal 0.000000e+00 0.000000e+00 1.000000e+00
      outer loop
         vertex 3.000000e+01 3.676053e+00 5.685769e+00
         vertex 1.540411e+01 4.237808e+00 5.685769e+00
         vertex 0.000000e+00 3.676053e+00 5.685769e+00
      endloop
   endfacet
   facet normal 0.000000e+00 0.000000e+00 1.000000e+00
      outer loop
         vertex 1.540411e+01 4.237808e+00 5.685769e+00
         vertex 1.500000e+01 4.230383e+00 5.685769e+00
         vertex 0.000000e+00 3.676053e+00 5.685769e+00
      endloop
   endfacet
   facet normal 0.000000e+00 0.000000e+00 1.000000e+00
      outer loop
         vertex 1.500000e+01 4.230383e+00 5.685769e+00
         vertex 1.459589e+01 4.237808e+00 5.685769e+00
         vertex 0.000000e+00 3.676053e+00 5.685769e+00
      endloop
   endfacet
   facet normal -2.236822e-01 9.746621e-01 0.000000e+00
      outer loop
         vertex 6.999999e+00 5.282533e+00 5.685769e+00
         vertex 6.999999e+00 5.282533e+00 4.685767e+00
         vertex 0.000000e+00 3.676053e+00 5.685769e+00
      endloop
   endfacet
   facet normal 0.000000e+00 0.000000e+00 1.000000e+00
      outer loop
         vertex 2.300000e+01 5.282533e+00 5.685769e+00
         vertex 1.932609e+01 5.116779e+00 5.685769e+00
         vertex 3.000000e+01 3.676053e+00 5.685769e+00
      endloop
   endfacet
   facet normal 0.000000e+00 0.000000e+00 1.000000e+00
      outer loop
         vertex 1.932609e+01 5.116779e+00 5.685769e+00
         vertex 1.895162e+01 4.964679e+00 5.685769e+00
         vertex 3.000000e+01 3.676053e+00 5.685769e+00
      endloop
   endfacet
   facet normal 0.000000e+00 0.000000e+00 1.000000e+00
      outer loop
         vertex 1.895162e+01 4.964679e+00 5.685769e+00
         vertex 1.857183e+01 4.826439e+00 5.685769e+00
         vertex 3.000000e+01 3.676053e+00 5.685769e+00
      endloop
   endfacet
   facet normal 0.000000e+00 0.000000e+00 1.000000e+00
      outer loop
         vertex 1.857183e+01 4.826439e+00 5.685769e+00
         vertex 1.818721e+01 4.702244e+00 5.685769e+00
         vertex 3.000000e+01 3.676053e+00 5.685769e+00
      endloop
   endfacet
   facet normal 0.000000e+00 0.000000e+00 1.000000e+00
      outer loop
         vertex 1.818721e+01 4.702244e+00 5.685769e+00
         vertex 1.779828e+01 4.592262e+00 5.685769e+00
         vertex 3.000000e+01 3.676053e+00 5.685769e+00
      endloop
   endfacet
   facet normal 0.000000e+00 0.000000e+00 1.000000e+00
      outer loop
         vertex 1.779828e+01 4.592262e+00 5.685769e+00
         vertex 1.740558e+01 4.496643e+00 5.685769e+00
         vertex 3.000000e+01 3.676053e+00 5.685769e+00
      endloop
   endfacet
   facet normal 0.000000e+00 0.000000e+00 1.000000e+00
      outer loop
         vertex 1.740558e+01 4.496643e+00 5.685769e+00
         vertex 1.700963e+01 4.415515e+00 5.685769e+00
         vertex 3.000000e+01 3.676053e+00 5.685769e+00
      endloop
   endfacet
   facet normal 0.000000e+00 0.000000e+00 1.000000e+00
      outer loop
         vertex 1.700963e+01 4.415515e+00 5.685769e+00
         vertex 1.661097e+01 4.348988e+00 5.685769e+00
         vertex 3.000000e+01 3.676053e+00 5.685769e+00
      endloop
   endfacet
   facet normal 0.000000e+00 0.000000e+00 1.000000e+00
      outer loop
         vertex 1.661097e+01 4.348988e+00 5.685769e+00
         vertex 1.621014e+01 4.297150e+00 5.685769e+00
         vertex 3.000000e+01 3.676053e+00 5.685769e+00
      endloop
   endfacet
   facet normal 0.000000e+00 0.000000e+00 1.000000e+00
      outer loop
         vertex 1.621014e+01 4.297150e+00 5.685769e+00
         vertex 1.580767e+01 4.260074e+00 5.685769e+00
         vertex 3.000000e+01 3.676053e+00 5.685769e+00
      endloop
   endfacet
   facet normal 0.000000e+00 0.000000e+00 1.000000e+00
      outer loop
         vertex 1.580767e+01 4.260074e+00 5.685769e+00
         vertex 1.540411e+01 4.237808e+00 5.685769e+00
         vertex 3.000000e+01 3.676053e+00 5.685769e+00
      endloop
   endfacet
   facet normal 0.000000e+00 -0.000000e+00 -1.000000e+00
      outer loop
         vertex 1.142817e+01 4.826439e+00 2.079252e+01
         vertex 1.181279e+01 4.702244e+00 2.079252e+01
         vertex 0.000000e+00 3.676053e+00 2.079252e+01
      endloop
   endfacet
   facet normal 0.000000e+00 -0.000000e+00 -1.000000e+00
      outer loop
         vertex 1.104838e+01 4.964679e+00 2.079252e+01
         vertex 1.142817e+01 4.826439e+00 2.079252e+01
         vertex 0.000000e+00 3.676053e+00 2.079252e+01
      endloop
   endfacet
   facet normal 0.000000e+00 -0.000000e+00 -1.000000e+00
      outer loop
         vertex 1.067391e+01 5.116779e+00 2.079252e+01
         vertex 1.104838e+01 4.964679e+00 2.079252e+01
         vertex 0.000000e+00 3.676053e+00 2.079252e+01
      endloop
   endfacet
   facet normal 0.000000e+00 -0.000000e+00 -1.000000e+00
      outer loop
         vertex 6.999999e+00 5.282533e+00 2.079252e+01
         vertex 1.067391e+01 5.116779e+00 2.079252e+01
         vertex 0.000000e+00 3.676053e+00 2.079252e+01
      endloop
   endfacet
   facet normal 0.000000e+00 -0.000000e+00 -1.000000e+00
      outer loop
         vertex 1.181279e+01 4.702244e+00 2.079252e+01
         vertex 1.220172e+01 4.592262e+00 2.079252e+01
         vertex 0.000000e+00 3.676053e+00 2.079252e+01
      endloop
   endfacet
   facet normal 0.000000e+00 -0.000000e+00 -1.000000e+00
      outer loop
         vertex 1.220172e+01 4.592262e+00 2.079252e+01
         vertex 1.259442e+01 4.496643e+00 2.079252e+01
         vertex 0.000000e+00 3.676053e+00 2.079252e+01
      endloop
   endfacet
   facet normal 0.000000e+00 -0.000000e+00 -1.000000e+00
      outer loop
         vertex 1.259442e+01 4.496643e+00 2.079252e+01
         vertex 1.299036e+01 4.415515e+00 2.079252e+01
         vertex 0.000000e+00 3.676053e+00 2.079252e+01
      endloop
   endfacet
   facet normal 0.000000e+00 -0.000000e+00 -1.000000e+00
      outer loop
         vertex 1.299036e+01 4.415515e+00 2.079252e+01
         vertex 1.338903e+01 4.348988e+00 2.079252e+01
         vertex 0.000000e+00 3.676053e+00 2.079252e+01
      endloop
   endfacet
   facet normal 0.000000e+00 -0.000000e+00 -1.000000e+00
      outer loop
         vertex 1.338903e+01 4.348988e+00 2.079252e+01
         vertex 1.378986e+01 4.297150e+00 2.079252e+01
         vertex 0.000000e+00 3.676053e+00 2.079252e+01
      endloop
   endfacet
   facet normal 0.000000e+00 -0.000000e+00 -1.000000e+00
      outer loop
         vertex 1.378986e+01 4.297150e+00 2.079252e+01
         vertex 1.419233e+01 4.260074e+00 2.079252e+01
         vertex 0.000000e+00 3.676053e+00 2.079252e+01
      endloop
   endfacet
   facet normal 0.000000e+00 -0.000000e+00 -1.000000e+00
      outer loop
         vertex 1.419233e+01 4.260074e+00 2.079252e+01
         vertex 1.459589e+01 4.237808e+00 2.079252e+01
         vertex 0.000000e+00 3.676053e+00 2.079252e+01
      endloop
   endfacet
   facet normal 0.000000e+00 -0.000000e+00 -1.000000e+00
      outer loop
         vertex 1.459589e+01 4.237808e+00 2.079252e+01
         vertex 1.500000e+01 4.230383e+00 2.079252e+01
         vertex 0.000000e+00 3.676053e+00 2.079252e+01
      endloop
   endfacet
   facet normal 0.000000e+00 -0.000000e+00 -1.000000e+00
      outer loop
         vertex 1.500000e+01 4.230383e+00 2.079252e+01
         vertex 3.000000e+01 3.676053e+00 2.079252e+01
         vertex 0.000000e+00 3.676053e+00 2.079252e+01
      endloop
   endfacet
   facet normal -2.236822e-01 9.746621e-01 0.000000e+00
      outer loop
         vertex 0.000000e+00 3.676053e+00 2.179252e+01
         vertex 6.999999e+00 5.282533e+00 2.079252e+01
         vertex 0.000000e+00 3.676053e+00 2.079252e+01
      endloop
   endfacet
   facet normal 0.000000e+00 0.000000e+00 -1.000000e+00
      outer loop
         vertex 1.779828e+01 4.592262e+00 2.079252e+01
         vertex 1.818721e+01 4.702244e+00 2.079252e+01
         vertex 3.000000e+01 3.676053e+00 2.079252e+01
      endloop
   endfacet
   facet normal 0.000000e+00 0.000000e+00 -1.000000e+00
      outer loop
         vertex 1.818721e+01 4.702244e+00 2.079252e+01
         vertex 1.857183e+01 4.826439e+00 2.079252e+01
         vertex 3.000000e+01 3.676053e+00 2.079252e+01
      endloop
   endfacet
   facet normal 0.000000e+00 0.000000e+00 -1.000000e+00
      outer loop
         vertex 1.857183e+01 4.826439e+00 2.079252e+01
         vertex 1.895162e+01 4.964679e+00 2.079252e+01
         vertex 3.000000e+01 3.676053e+00 2.079252e+01
      endloop
   endfacet
   facet normal 0.000000e+00 0.000000e+00 -1.000000e+00
      outer loop
         vertex 1.895162e+01 4.964679e+00 2.079252e+01
         vertex 1.932609e+01 5.116779e+00 2.079252e+01
         vertex 3.000000e+01 3.676053e+00 2.079252e+01
      endloop
   endfacet
   facet normal 0.000000e+00 0.000000e+00 -1.000000e+00
      outer loop
         vertex 1.932609e+01 5.116779e+00 2.079252e+01
         vertex 2.300000e+01 5.282533e+00 2.079252e+01
         vertex 3.000000e+01 3.676053e+00 2.079252e+01
      endloop
   endfacet
   facet normal 0.000000e+00 0.000000e+00 -1.000000e+00
      outer loop
         vertex 1.500000e+01 4.230383e+00 2.079252e+01
         vertex 1.540411e+01 4.237808e+00 2.079252e+01
         vertex 3.000000e+01 3.676053e+00 2.079252e+01
      endloop
   endfacet
   facet normal 0.000000e+00 0.000000e+00 -1.000000e+00
      outer loop
         vertex 1.540411e+01 4.237808e+00 2.079252e+01
         vertex 1.580767e+01 4.260074e+00 2.079252e+01
         vertex 3.000000e+01 3.676053e+00 2.079252e+01
      endloop
   endfacet
   facet normal 0.000000e+00 0.000000e+00 -1.000000e+00
      outer loop
         vertex 1.580767e+01 4.260074e+00 2.079252e+01
         vertex 1.621014e+01 4.297150e+00 2.079252e+01
         vertex 3.000000e+01 3.676053e+00 2.079252e+01
      endloop
   endfacet
   facet normal 0.000000e+00 0.000000e+00 -1.000000e+00
      outer loop
         vertex 1.621014e+01 4.297150e+00 2.079252e+01
         vertex 1.661097e+01 4.348988e+00 2.079252e+01
         vertex 3.000000e+01 3.676053e+00 2.079252e+01
      endloop
   endfacet
   facet normal 0.000000e+00 0.000000e+00 -1.000000e+00
      outer loop
         vertex 1.661097e+01 4.348988e+00 2.079252e+01
         vertex 1.700963e+01 4.415515e+00 2.079252e+01
         vertex 3.000000e+01 3.676053e+00 2.079252e+01
      endloop
   endfacet
   facet normal 0.000000e+00 0.000000e+00 -1.000000e+00
      outer loop
         vertex 1.700963e+01 4.415515e+00 2.079252e+01
         vertex 1.740558e+01 4.496643e+00 2.079252e+01
         vertex 3.000000e+01 3.676053e+00 2.079252e+01
      endloop
   endfacet
   facet normal 0.000000e+00 0.000000e+00 -1.000000e+00
      outer loop
         vertex 1.740558e+01 4.496643e+00 2.079252e+01
         vertex 1.779828e+01 4.592262e+00 2.079252e+01
         vertex 3.000000e+01 3.676053e+00 2.079252e+01
      endloop
   endfacet
   facet normal 2.236822e-01 9.746621e-01 0.000000e+00
      outer loop
         vertex 2.300000e+01 5.282533e+00 2.179252e+01
         vertex 3.000000e+01 3.676053e+00 2.179252e+01
         vertex 3.000000e+01 3.676053e+00 2.079252e+01
      endloop
   endfacet
   facet normal 2.236822e-01 9.746621e-01 -0.000000e+00
      outer loop
         vertex 2.300000e+01 5.282533e+00 2.079252e+01
         vertex 2.300000e+01 5.282533e+00 2.179252e+01
         vertex 3.000000e+01 3.676053e+00 2.079252e+01
      endloop
   endfacet
   facet normal -2.236822e-01 9.746621e-01 0.000000e+00
      outer loop
         vertex 6.999999e+00 5.282533e+00 2.179252e+01
         vertex 6.999999e+00 5.282533e+00 2.079252e+01
         vertex 0.000000e+00 3.676053e+00 2.179252e+01
      endloop
   endfacet
   facet normal 0.000000e+00 1.000000e+00 0.000000e+00
      outer loop
         vertex 0.000000e+00 4.073975e+00 2.764858e+00
         vertex 3.000000e+01 4.073975e+00 1.288004e+00
         vertex 0.000000e+00 4.073975e+00 1.288004e+00
      endloop
   endfacet
   facet normal -0.000000e+00 1.000000e+00 0.000000e+00
      outer loop
         vertex 0.000000e+00 4.073975e+00 2.764858e+00
         vertex 3.000000e+01 4.073975e+00 2.764858e+00
         vertex 3.000000e+01 4.073975e+00 1.288004e+00
      endloop
   endfacet
   facet normal 1.837186e-02 9.998312e-01 -0.000000e+00
      outer loop
         vertex 1.459589e+01 4.237808e+00 4.685767e+00
         vertex 1.459589e+01 4.237808e+00 5.685769e+00
         vertex 1.500000e+01 4.230383e+00 4.685767e+00
      endloop
   endfacet
   facet normal 1.837186e-02 9.998312e-01 0.000000e+00
      outer loop
         vertex 1.459589e+01 4.237808e+00 5.685769e+00
         vertex 1.500000e+01 4.230383e+00 5.685769e+00
         vertex 1.500000e+01 4.230383e+00 4.685767e+00
      endloop
   endfacet
   facet normal -1.837186e-02 9.998312e-01 0.000000e+00
      outer loop
         vertex 1.500000e+01 4.230383e+00 5.685769e+00
         vertex 1.540411e+01 4.237808e+00 4.685767e+00
         vertex 1.500000e+01 4.230383e+00 4.685767e+00
      endloop
   endfacet
   facet normal -1.837186e-02 9.998312e-01 0.000000e+00
      outer loop
         vertex 1.540411e+01 4.237808e+00 5.685769e+00
         vertex 1.540411e+01 4.237808e+00 4.685767e+00
         vertex 1.500000e+01 4.230383e+00 5.685769e+00
      endloop
   endfacet
   facet normal 1.837186e-02 9.998312e-01 -0.000000e+00
      outer loop
         vertex 1.459589e+01 4.237808e+00 2.079252e+01
         vertex 1.459589e+01 4.237808e+00 2.179252e+01
         vertex 1.500000e+01 4.230383e+00 2.079252e+01
      endloop
   endfacet
   facet normal 1.837186e-02 9.998312e-01 0.000000e+00
      outer loop
         vertex 1.459589e+01 4.237808e+00 2.179252e+01
         vertex 1.500000e+01 4.230383e+00 2.179252e+01
         vertex 1.500000e+01 4.230383e+00 2.079252e+01
      endloop
   endfacet
   facet normal -1.837186e-02 9.998312e-01 0.000000e+00
      outer loop
         vertex 1.500000e+01 4.230383e+00 2.179252e+01
         vertex 1.540411e+01 4.237808e+00 2.079252e+01
         vertex 1.500000e+01 4.230383e+00 2.079252e+01
      endloop
   endfacet
   facet normal -1.837186e-02 9.998312e-01 0.000000e+00
      outer loop
         vertex 1.540411e+01 4.237808e+00 2.179252e+01
         vertex 1.540411e+01 4.237808e+00 2.079252e+01
         vertex 1.500000e+01 4.230383e+00 2.179252e+01
      endloop
   endfacet
   facet normal 5.509024e-02 9.984814e-01 -0.000000e+00
      outer loop
         vertex 1.419233e+01 4.260074e+00 4.685767e+00
         vertex 1.419233e+01 4.260074e+00 5.685769e+00
         vertex 1.459589e+01 4.237808e+00 4.685767e+00
      endloop
   endfacet
   facet normal 5.509024e-02 9.984814e-01 0.000000e+00
      outer loop
         vertex 1.419233e+01 4.260074e+00 5.685769e+00
         vertex 1.459589e+01 4.237808e+00 5.685769e+00
         vertex 1.459589e+01 4.237808e+00 4.685767e+00
      endloop
   endfacet
   facet normal -5.509024e-02 9.984814e-01 0.000000e+00
      outer loop
         vertex 1.540411e+01 4.237808e+00 5.685769e+00
         vertex 1.580767e+01 4.260074e+00 4.685767e+00
         vertex 1.540411e+01 4.237808e+00 4.685767e+00
      endloop
   endfacet
   facet normal -5.509024e-02 9.984814e-01 0.000000e+00
      outer loop
         vertex 1.580767e+01 4.260074e+00 5.685769e+00
         vertex 1.580767e+01 4.260074e+00 4.685767e+00
         vertex 1.540411e+01 4.237808e+00 5.685769e+00
      endloop
   endfacet
   facet normal 5.509024e-02 9.984814e-01 -0.000000e+00
      outer loop
         vertex 1.419233e+01 4.260074e+00 2.079252e+01
         vertex 1.419233e+01 4.260074e+00 2.179252e+01
         vertex 1.459589e+01 4.237808e+00 2.079252e+01
      endloop
   endfacet
   facet normal 5.509024e-02 9.984814e-01 0.000000e+00
      outer loop
         vertex 1.419233e+01 4.260074e+00 2.179252e+01
         vertex 1.459589e+01 4.237808e+00 2.179252e+01
         vertex 1.459589e+01 4.237808e+00 2.079252e+01
      endloop
   endfacet
   facet normal -5.509024e-02 9.984814e-01 0.000000e+00
      outer loop
         vertex 1.540411e+01 4.237808e+00 2.179252e+01
         vertex 1.580767e+01 4.260074e+00 2.079252e+01
         vertex 1.540411e+01 4.237808e+00 2.079252e+01
      endloop
   endfacet
   facet normal -5.509024e-02 9.984814e-01 0.000000e+00
      outer loop
         vertex 1.580767e+01 4.260074e+00 2.179252e+01
         vertex 1.580767e+01 4.260074e+00 2.079252e+01
         vertex 1.540411e+01 4.237808e+00 2.179252e+01
      endloop
   endfacet
   facet normal 9.173257e-02 9.957837e-01 -0.000000e+00
      outer loop
         vertex 1.378986e+01 4.297150e+00 4.685767e+00
         vertex 1.378986e+01 4.297150e+00 5.685769e+00
         vertex 1.419233e+01 4.260074e+00 4.685767e+00
      endloop
   endfacet
   facet normal 9.173257e-02 9.957837e-01 0.000000e+00
      outer loop
         vertex 1.378986e+01 4.297150e+00 5.685769e+00
         vertex 1.419233e+01 4.260074e+00 5.685769e+00
         vertex 1.419233e+01 4.260074e+00 4.685767e+00
      endloop
   endfacet
   facet normal -9.173257e-02 9.957837e-01 0.000000e+00
      outer loop
         vertex 1.580767e+01 4.260074e+00 5.685769e+00
         vertex 1.621014e+01 4.297150e+00 4.685767e+00
         vertex 1.580767e+01 4.260074e+00 4.685767e+00
      endloop
   endfacet
   facet normal -9.173257e-02 9.957837e-01 0.000000e+00
      outer loop
         vertex 1.621014e+01 4.297150e+00 5.685769e+00
         vertex 1.621014e+01 4.297150e+00 4.685767e+00
         vertex 1.580767e+01 4.260074e+00 5.685769e+00
      endloop
   endfacet
   facet normal 9.173257e-02 9.957837e-01 -0.000000e+00
      outer loop
         vertex 1.378986e+01 4.297150e+00 2.079252e+01
         vertex 1.378986e+01 4.297150e+00 2.179252e+01
         vertex 1.419233e+01 4.260074e+00 2.079252e+01
      endloop
   endfacet
   facet normal 9.173257e-02 9.957837e-01 0.000000e+00
      outer loop
         vertex 1.378986e+01 4.297150e+00 2.179252e+01
         vertex 1.419233e+01 4.260074e+00 2.179252e+01
         vertex 1.419233e+01 4.260074e+00 2.079252e+01
      endloop
   endfacet
   facet normal -9.173257e-02 9.957837e-01 0.000000e+00
      outer loop
         vertex 1.580767e+01 4.260074e+00 2.179252e+01
         vertex 1.621014e+01 4.297150e+00 2.079252e+01
         vertex 1.580767e+01 4.260074e+00 2.079252e+01
      endloop
   endfacet
   facet normal -9.173257e-02 9.957837e-01 0.000000e+00
      outer loop
         vertex 1.621014e+01 4.297150e+00 2.179252e+01
         vertex 1.621014e+01 4.297150e+00 2.079252e+01
         vertex 1.580767e+01 4.260074e+00 2.179252e+01
      endloop
   endfacet
   facet normal 1.282551e-01 9.917412e-01 -0.000000e+00
      outer loop
         vertex 1.338903e+01 4.348988e+00 4.685767e+00
         vertex 1.338903e+01 4.348988e+00 5.685769e+00
         vertex 1.378986e+01 4.297150e+00 4.685767e+00
      endloop
   endfacet
   facet normal 1.282551e-01 9.917412e-01 0.000000e+00
      outer loop
         vertex 1.338903e+01 4.348988e+00 5.685769e+00
         vertex 1.378986e+01 4.297150e+00 5.685769e+00
         vertex 1.378986e+01 4.297150e+00 4.685767e+00
      endloop
   endfacet
   facet normal -1.282551e-01 9.917412e-01 0.000000e+00
      outer loop
         vertex 1.621014e+01 4.297150e+00 5.685769e+00
         vertex 1.661097e+01 4.348988e+00 4.685767e+00
         vertex 1.621014e+01 4.297150e+00 4.685767e+00
      endloop
   endfacet
   facet normal -1.282551e-01 9.917412e-01 0.000000e+00
      outer loop
         vertex 1.661097e+01 4.348988e+00 5.685769e+00
         vertex 1.661097e+01 4.348988e+00 4.685767e+00
         vertex 1.621014e+01 4.297150e+00 5.685769e+00
      endloop
   endfacet
   facet normal 1.282551e-01 9.917412e-01 -0.000000e+00
      outer loop
         vertex 1.338903e+01 4.348988e+00 2.079252e+01
         vertex 1.338903e+01 4.348988e+00 2.179252e+01
         vertex 1.378986e+01 4.297150e+00 2.079252e+01
      endloop
   endfacet
   facet normal 1.282551e-01 9.917412e-01 0.000000e+00
      outer loop
         vertex 1.338903e+01 4.348988e+00 2.179252e+01
         vertex 1.378986e+01 4.297150e+00 2.179252e+01
         vertex 1.378986e+01 4.297150e+00 2.079252e+01
      endloop
   endfacet
   facet normal -1.282551e-01 9.917412e-01 0.000000e+00
      outer loop
         vertex 1.621014e+01 4.297150e+00 2.179252e+01
         vertex 1.661097e+01 4.348988e+00 2.079252e+01
         vertex 1.621014e+01 4.297150e+00 2.079252e+01
      endloop
   endfacet
   facet normal -1.282551e-01 9.917412e-01 0.000000e+00
      outer loop
         vertex 1.661097e+01 4.348988e+00 2.179252e+01
         vertex 1.661097e+01 4.348988e+00 2.079252e+01
         vertex 1.621014e+01 4.297150e+00 2.179252e+01
      endloop
   endfacet
   facet normal 1.646002e-01 9.863604e-01 -0.000000e+00
      outer loop
         vertex 1.299036e+01 4.415515e+00 4.685767e+00
         vertex 1.299036e+01 4.415515e+00 5.685769e+00
         vertex 1.338903e+01 4.348988e+00 4.685767e+00
      endloop
   endfacet
   facet normal 1.646002e-01 9.863604e-01 0.000000e+00
      outer loop
         vertex 1.299036e+01 4.415515e+00 5.685769e+00
         vertex 1.338903e+01 4.348988e+00 5.685769e+00
         vertex 1.338903e+01 4.348988e+00 4.685767e+00
      endloop
   endfacet
   facet normal -1.646002e-01 9.863604e-01 0.000000e+00
      outer loop
         vertex 1.661097e+01 4.348988e+00 5.685769e+00
         vertex 1.700963e+01 4.415515e+00 4.685767e+00
         vertex 1.661097e+01 4.348988e+00 4.685767e+00
      endloop
   endfacet
   facet normal -1.646002e-01 9.863604e-01 0.000000e+00
      outer loop
         vertex 1.700963e+01 4.415515e+00 5.685769e+00
         vertex 1.700963e+01 4.415515e+00 4.685767e+00
         vertex 1.661097e+01 4.348988e+00 5.685769e+00
      endloop
   endfacet
   facet normal 1.646002e-01 9.863604e-01 -0.000000e+00
      outer loop
         vertex 1.299036e+01 4.415515e+00 2.079252e+01
         vertex 1.299036e+01 4.415515e+00 2.179252e+01
         vertex 1.338903e+01 4.348988e+00 2.079252e+01
      endloop
   endfacet
   facet normal 1.646002e-01 9.863604e-01 0.000000e+00
      outer loop
         vertex 1.299036e+01 4.415515e+00 2.179252e+01
         vertex 1.338903e+01 4.348988e+00 2.179252e+01
         vertex 1.338903e+01 4.348988e+00 2.079252e+01
      endloop
   endfacet
   facet normal -1.646002e-01 9.863604e-01 0.000000e+00
      outer loop
         vertex 1.661097e+01 4.348988e+00 2.179252e+01
         vertex 1.700963e+01 4.415515e+00 2.079252e+01
         vertex 1.661097e+01 4.348988e+00 2.079252e+01
      endloop
   endfacet
   facet normal -1.646002e-01 9.863604e-01 0.000000e+00
      outer loop
         vertex 1.700963e+01 4.415515e+00 2.179252e+01
         vertex 1.700963e+01 4.415515e+00 2.079252e+01
         vertex 1.661097e+01 4.348988e+00 2.179252e+01
      endloop
   endfacet
   facet normal 2.007264e-01 9.796473e-01 -0.000000e+00
      outer loop
         vertex 1.259442e+01 4.496643e+00 4.685767e+00
         vertex 1.259442e+01 4.496643e+00 5.685769e+00
         vertex 1.299036e+01 4.415515e+00 4.685767e+00
      endloop
   endfacet
   facet normal 2.007264e-01 9.796473e-01 0.000000e+00
      outer loop
         vertex 1.259442e+01 4.496643e+00 5.685769e+00
         vertex 1.299036e+01 4.415515e+00 5.685769e+00
         vertex 1.299036e+01 4.415515e+00 4.685767e+00
      endloop
   endfacet
   facet normal -2.007264e-01 9.796473e-01 0.000000e+00
      outer loop
         vertex 1.700963e+01 4.415515e+00 5.685769e+00
         vertex 1.740558e+01 4.496643e+00 4.685767e+00
         vertex 1.700963e+01 4.415515e+00 4.685767e+00
      endloop
   endfacet
   facet normal -2.007264e-01 9.796473e-01 0.000000e+00
      outer loop
         vertex 1.740558e+01 4.496643e+00 5.685769e+00
         vertex 1.740558e+01 4.496643e+00 4.685767e+00
         vertex 1.700963e+01 4.415515e+00 5.685769e+00
      endloop
   endfacet
   facet normal 2.007264e-01 9.796473e-01 -0.000000e+00
      outer loop
         vertex 1.259442e+01 4.496643e+00 2.079252e+01
         vertex 1.259442e+01 4.496643e+00 2.179252e+01
         vertex 1.299036e+01 4.415515e+00 2.079252e+01
      endloop
   endfacet
   facet normal 2.007264e-01 9.796473e-01 0.000000e+00
      outer loop
         vertex 1.259442e+01 4.496643e+00 2.179252e+01
         vertex 1.299036e+01 4.415515e+00 2.179252e+01
         vertex 1.299036e+01 4.415515e+00 2.079252e+01
      endloop
   endfacet
   facet normal -2.007264e-01 9.796473e-01 0.000000e+00
      outer loop
         vertex 1.700963e+01 4.415515e+00 2.179252e+01
         vertex 1.740558e+01 4.496643e+00 2.079252e+01
         vertex 1.700963e+01 4.415515e+00 2.079252e+01
      endloop
   endfacet
   facet normal -2.007264e-01 9.796473e-01 0.000000e+00
      outer loop
         vertex 1.740558e+01 4.496643e+00 2.179252e+01
         vertex 1.740558e+01 4.496643e+00 2.079252e+01
         vertex 1.700963e+01 4.415515e+00 2.179252e+01
      endloop
   endfacet
   facet normal 2.365783e-01 9.716124e-01 -0.000000e+00
      outer loop
         vertex 1.220172e+01 4.592262e+00 4.685767e+00
         vertex 1.220172e+01 4.592262e+00 5.685769e+00
         vertex 1.259442e+01 4.496643e+00 4.685767e+00
      endloop
   endfacet
   facet normal 2.365783e-01 9.716124e-01 0.000000e+00
      outer loop
         vertex 1.220172e+01 4.592262e+00 5.685769e+00
         vertex 1.259442e+01 4.496643e+00 5.685769e+00
         vertex 1.259442e+01 4.496643e+00 4.685767e+00
      endloop
   endfacet
   facet normal -2.365783e-01 9.716124e-01 0.000000e+00
      outer loop
         vertex 1.740558e+01 4.496643e+00 5.685769e+00
         vertex 1.779828e+01 4.592262e+00 4.685767e+00
         vertex 1.740558e+01 4.496643e+00 4.685767e+00
      endloop
   endfacet
   facet normal -2.365783e-01 9.716124e-01 0.000000e+00
      outer loop
         vertex 1.779828e+01 4.592262e+00 5.685769e+00
         vertex 1.779828e+01 4.592262e+00 4.685767e+00
         vertex 1.740558e+01 4.496643e+00 5.685769e+00
      endloop
   endfacet
   facet normal 2.365783e-01 9.716124e-01 -0.000000e+00
      outer loop
         vertex 1.220172e+01 4.592262e+00 2.079252e+01
         vertex 1.220172e+01 4.592262e+00 2.179252e+01
         vertex 1.259442e+01 4.496643e+00 2.079252e+01
      endloop
   endfacet
   facet normal 2.365783e-01 9.716124e-01 0.000000e+00
      outer loop
         vertex 1.220172e+01 4.592262e+00 2.179252e+01
         vertex 1.259442e+01 4.496643e+00 2.179252e+01
         vertex 1.259442e+01 4.496643e+00 2.079252e+01
      endloop
   endfacet
   facet normal -2.365783e-01 9.716124e-01 0.000000e+00
      outer loop
         vertex 1.740558e+01 4.496643e+00 2.179252e+01
         vertex 1.779828e+01 4.592262e+00 2.079252e+01
         vertex 1.740558e+01 4.496643e+00 2.079252e+01
      endloop
   endfacet
   facet normal -2.365783e-01 9.716124e-01 0.000000e+00
      outer loop
         vertex 1.779828e+01 4.592262e+00 2.179252e+01
         vertex 1.779828e+01 4.592262e+00 2.079252e+01
         vertex 1.740558e+01 4.496643e+00 2.179252e+01
      endloop
   endfacet
   facet normal 2.721145e-01 9.622649e-01 -0.000000e+00
      outer loop
         vertex 1.181279e+01 4.702244e+00 4.685767e+00
         vertex 1.181279e+01 4.702244e+00 5.685769e+00
         vertex 1.220172e+01 4.592262e+00 4.685767e+00
      endloop
   endfacet
   facet normal 2.721145e-01 9.622649e-01 0.000000e+00
      outer loop
         vertex 1.181279e+01 4.702244e+00 5.685769e+00
         vertex 1.220172e+01 4.592262e+00 5.685769e+00
         vertex 1.220172e+01 4.592262e+00 4.685767e+00
      endloop
   endfacet
   facet normal -2.721145e-01 9.622649e-01 0.000000e+00
      outer loop
         vertex 1.779828e+01 4.592262e+00 5.685769e+00
         vertex 1.818721e+01 4.702244e+00 4.685767e+00
         vertex 1.779828e+01 4.592262e+00 4.685767e+00
      endloop
   endfacet
   facet normal -2.721145e-01 9.622649e-01 0.000000e+00
      outer loop
         vertex 1.818721e+01 4.702244e+00 5.685769e+00
         vertex 1.818721e+01 4.702244e+00 4.685767e+00
         vertex 1.779828e+01 4.592262e+00 5.685769e+00
      endloop
   endfacet
   facet normal 2.721145e-01 9.622649e-01 -0.000000e+00
      outer loop
         vertex 1.181279e+01 4.702244e+00 2.079252e+01
         vertex 1.181279e+01 4.702244e+00 2.179252e+01
         vertex 1.220172e+01 4.592262e+00 2.079252e+01
      endloop
   endfacet
   facet normal 2.721145e-01 9.622649e-01 0.000000e+00
      outer loop
         vertex 1.181279e+01 4.702244e+00 2.179252e+01
         vertex 1.220172e+01 4.592262e+00 2.179252e+01
         vertex 1.220172e+01 4.592262e+00 2.079252e+01
      endloop
   endfacet
   facet normal -2.721145e-01 9.622649e-01 0.000000e+00
      outer loop
         vertex 1.779828e+01 4.592262e+00 2.179252e+01
         vertex 1.818721e+01 4.702244e+00 2.079252e+01
         vertex 1.779828e+01 4.592262e+00 2.079252e+01
      endloop
   endfacet
   facet normal -2.721145e-01 9.622649e-01 0.000000e+00
      outer loop
         vertex 1.818721e+01 4.702244e+00 2.179252e+01
         vertex 1.818721e+01 4.702244e+00 2.079252e+01
         vertex 1.779828e+01 4.592262e+00 2.179252e+01
      endloop
   endfacet
   facet normal 3.072800e-01 9.516191e-01 -0.000000e+00
      outer loop
         vertex 1.142817e+01 4.826439e+00 4.685767e+00
         vertex 1.142817e+01 4.826439e+00 5.685769e+00
         vertex 1.181279e+01 4.702244e+00 4.685767e+00
      endloop
   endfacet
   facet normal 3.072800e-01 9.516191e-01 0.000000e+00
      outer loop
         vertex 1.142817e+01 4.826439e+00 5.685769e+00
         vertex 1.181279e+01 4.702244e+00 5.685769e+00
         vertex 1.181279e+01 4.702244e+00 4.685767e+00
      endloop
   endfacet
   facet normal -3.072800e-01 9.516191e-01 0.000000e+00
      outer loop
         vertex 1.818721e+01 4.702244e+00 5.685769e+00
         vertex 1.857183e+01 4.826439e+00 4.685767e+00
         vertex 1.818721e+01 4.702244e+00 4.685767e+00
      endloop
   endfacet
   facet normal -3.072800e-01 9.516191e-01 0.000000e+00
      outer loop
         vertex 1.857183e+01 4.826439e+00 5.685769e+00
         vertex 1.857183e+01 4.826439e+00 4.685767e+00
         vertex 1.818721e+01 4.702244e+00 5.685769e+00
      endloop
   endfacet
   facet normal 3.072800e-01 9.516191e-01 -0.000000e+00
      outer loop
         vertex 1.142817e+01 4.826439e+00 2.079252e+01
         vertex 1.142817e+01 4.826439e+00 2.179252e+01
         vertex 1.181279e+01 4.702244e+00 2.079252e+01
      endloop
   endfacet
   facet normal 3.072800e-01 9.516191e-01 0.000000e+00
      outer loop
         vertex 1.142817e+01 4.826439e+00 2.179252e+01
         vertex 1.181279e+01 4.702244e+00 2.179252e+01
         vertex 1.181279e+01 4.702244e+00 2.079252e+01
      endloop
   endfacet
   facet normal -3.072800e-01 9.516191e-01 0.000000e+00
      outer loop
         vertex 1.818721e+01 4.702244e+00 2.179252e+01
         vertex 1.857183e+01 4.826439e+00 2.079252e+01
         vertex 1.818721e+01 4.702244e+00 2.079252e+01
      endloop
   endfacet
   facet normal -3.072800e-01 9.516191e-01 0.000000e+00
      outer loop
         vertex 1.857183e+01 4.826439e+00 2.179252e+01
         vertex 1.857183e+01 4.826439e+00 2.079252e+01
         vertex 1.818721e+01 4.702244e+00 2.179252e+01
      endloop
   endfacet
   facet normal 3.420328e-01 9.396880e-01 -0.000000e+00
      outer loop
         vertex 1.104838e+01 4.964679e+00 4.685767e+00
         vertex 1.104838e+01 4.964679e+00 5.685769e+00
         vertex 1.142817e+01 4.826439e+00 4.685767e+00
      endloop
   endfacet
   facet normal 3.420328e-01 9.396880e-01 0.000000e+00
      outer loop
         vertex 1.104838e+01 4.964679e+00 5.685769e+00
         vertex 1.142817e+01 4.826439e+00 5.685769e+00
         vertex 1.142817e+01 4.826439e+00 4.685767e+00
      endloop
   endfacet
   facet normal -3.420328e-01 9.396880e-01 0.000000e+00
      outer loop
         vertex 1.857183e+01 4.826439e+00 5.685769e+00
         vertex 1.895162e+01 4.964679e+00 4.685767e+00
         vertex 1.857183e+01 4.826439e+00 4.685767e+00
      endloop
   endfacet
   facet normal -3.420328e-01 9.396880e-01 0.000000e+00
      outer loop
         vertex 1.895162e+01 4.964679e+00 5.685769e+00
         vertex 1.895162e+01 4.964679e+00 4.685767e+00
         vertex 1.857183e+01 4.826439e+00 5.685769e+00
      endloop
   endfacet
   facet normal 3.420328e-01 9.396880e-01 -0.000000e+00
      outer loop
         vertex 1.104838e+01 4.964679e+00 2.079252e+01
         vertex 1.104838e+01 4.964679e+00 2.179252e+01
         vertex 1.142817e+01 4.826439e+00 2.079252e+01
      endloop
   endfacet
   facet normal 3.420328e-01 9.396880e-01 0.000000e+00
      outer loop
         vertex 1.104838e+01 4.964679e+00 2.179252e+01
         vertex 1.142817e+01 4.826439e+00 2.179252e+01
         vertex 1.142817e+01 4.826439e+00 2.079252e+01
      endloop
   endfacet
   facet normal -3.420328e-01 9.396880e-01 0.000000e+00
      outer loop
         vertex 1.857183e+01 4.826439e+00 2.179252e+01
         vertex 1.895162e+01 4.964679e+00 2.079252e+01
         vertex 1.857183e+01 4.826439e+00 2.079252e+01
      endloop
   endfacet
   facet normal -3.420328e-01 9.396880e-01 0.000000e+00
      outer loop
         vertex 1.895162e+01 4.964679e+00 2.179252e+01
         vertex 1.895162e+01 4.964679e+00 2.079252e+01
         vertex 1.857183e+01 4.826439e+00 2.179252e+01
      endloop
   endfacet
   facet normal 3.763225e-01 9.264887e-01 -0.000000e+00
      outer loop
         vertex 1.067391e+01 5.116779e+00 4.685767e+00
         vertex 1.067391e+01 5.116779e+00 5.685769e+00
         vertex 1.104838e+01 4.964679e+00 4.685767e+00
      endloop
   endfacet
   facet normal 3.763225e-01 9.264887e-01 0.000000e+00
      outer loop
         vertex 1.067391e+01 5.116779e+00 5.685769e+00
         vertex 1.104838e+01 4.964679e+00 5.685769e+00
         vertex 1.104838e+01 4.964679e+00 4.685767e+00
      endloop
   endfacet
   facet normal -3.763225e-01 9.264887e-01 0.000000e+00
      outer loop
         vertex 1.895162e+01 4.964679e+00 5.685769e+00
         vertex 1.932609e+01 5.116779e+00 4.685767e+00
         vertex 1.895162e+01 4.964679e+00 4.685767e+00
      endloop
   endfacet
   facet normal -3.763225e-01 9.264887e-01 0.000000e+00
      outer loop
         vertex 1.932609e+01 5.116779e+00 5.685769e+00
         vertex 1.932609e+01 5.116779e+00 4.685767e+00
         vertex 1.895162e+01 4.964679e+00 5.685769e+00
      endloop
   endfacet
   facet normal 3.763225e-01 9.264887e-01 -0.000000e+00
      outer loop
         vertex 1.067391e+01 5.116779e+00 2.079252e+01
         vertex 1.067391e+01 5.116779e+00 2.179252e+01
         vertex 1.104838e+01 4.964679e+00 2.079252e+01
      endloop
   endfacet
   facet normal 3.763225e-01 9.264887e-01 0.000000e+00
      outer loop
         vertex 1.067391e+01 5.116779e+00 2.179252e+01
         vertex 1.104838e+01 4.964679e+00 2.179252e+01
         vertex 1.104838e+01 4.964679e+00 2.079252e+01
      endloop
   endfacet
   facet normal -3.763225e-01 9.264887e-01 0.000000e+00
      outer loop
         vertex 1.895162e+01 4.964679e+00 2.179252e+01
         vertex 1.932609e+01 5.116779e+00 2.079252e+01
         vertex 1.895162e+01 4.964679e+00 2.079252e+01
      endloop
   endfacet
   facet normal -3.763225e-01 9.264887e-01 0.000000e+00
      outer loop
         vertex 1.932609e+01 5.116779e+00 2.179252e+01
         vertex 1.932609e+01 5.116779e+00 2.079252e+01
         vertex 1.895162e+01 4.964679e+00 2.179252e+01
      endloop
   endfacet
   facet normal 0.000000e+00 0.000000e+00 -1.000000e+00
      outer loop
         vertex 6.999999e+00 5.282533e+00 4.685767e+00
         vertex 1.030529e+01 5.282533e+00 4.685767e+00
         vertex 1.067391e+01 5.116779e+00 4.685767e+00
      endloop
   endfacet
   facet normal 4.101051e-01 9.120383e-01 -0.000000e+00
      outer loop
         vertex 1.030529e+01 5.282533e+00 4.685767e+00
         vertex 1.030529e+01 5.282533e+00 5.685769e+00
         vertex 1.067391e+01 5.116779e+00 4.685767e+00
      endloop
   endfacet
   facet normal 4.101051e-01 9.120383e-01 0.000000e+00
      outer loop
         vertex 1.030529e+01 5.282533e+00 5.685769e+00
         vertex 1.067391e+01 5.116779e+00 5.685769e+00
         vertex 1.067391e+01 5.116779e+00 4.685767e+00
      endloop
   endfacet
   facet normal 0.000000e+00 -0.000000e+00 -1.000000e+00
      outer loop
         vertex 1.969471e+01 5.282533e+00 4.685767e+00
         vertex 2.300000e+01 5.282533e+00 4.685767e+00
         vertex 1.932609e+01 5.116779e+00 4.685767e+00
      endloop
   endfacet
   facet normal -4.101051e-01 9.120383e-01 0.000000e+00
      outer loop
         vertex 1.932609e+01 5.116779e+00 5.685769e+00
         vertex 1.969471e+01 5.282533e+00 4.685767e+00
         vertex 1.932609e+01 5.116779e+00 4.685767e+00
      endloop
   endfacet
   facet normal 0.000000e+00 0.000000e+00 1.000000e+00
      outer loop
         vertex 1.030529e+01 5.282533e+00 5.685769e+00
         vertex 6.999999e+00 5.282533e+00 5.685769e+00
         vertex 1.067391e+01 5.116779e+00 5.685769e+00
      endloop
   endfacet
   facet normal 0.000000e+00 0.000000e+00 1.000000e+00
      outer loop
         vertex 2.300000e+01 5.282533e+00 5.685769e+00
         vertex 1.969471e+01 5.282533e+00 5.685769e+00
         vertex 1.932609e+01 5.116779e+00 5.685769e+00
      endloop
   endfacet
   facet normal -4.101051e-01 9.120383e-01 0.000000e+00
      outer loop
         vertex 1.969471e+01 5.282533e+00 5.685769e+00
         vertex 1.969471e+01 5.282533e+00 4.685767e+00
         vertex 1.932609e+01 5.116779e+00 5.685769e+00
      endloop
   endfacet
   facet normal 0.000000e+00 0.000000e+00 -1.000000e+00
      outer loop
         vertex 6.999999e+00 5.282533e+00 2.079252e+01
         vertex 1.030529e+01 5.282533e+00 2.079252e+01
         vertex 1.067391e+01 5.116779e+00 2.079252e+01
      endloop
   endfacet
   facet normal 4.101051e-01 9.120383e-01 -0.000000e+00
      outer loop
         vertex 1.030529e+01 5.282533e+00 2.079252e+01
         vertex 1.030529e+01 5.282533e+00 2.179252e+01
         vertex 1.067391e+01 5.116779e+00 2.079252e+01
      endloop
   endfacet
   facet normal 4.101051e-01 9.120383e-01 0.000000e+00
      outer loop
         vertex 1.030529e+01 5.282533e+00 2.179252e+01
         vertex 1.067391e+01 5.116779e+00 2.179252e+01
         vertex 1.067391e+01 5.116779e+00 2.079252e+01
      endloop
   endfacet
   facet normal 0.000000e+00 -0.000000e+00 -1.000000e+00
      outer loop
         vertex 1.969471e+01 5.282533e+00 2.079252e+01
         vertex 2.300000e+01 5.282533e+00 2.079252e+01
         vertex 1.932609e+01 5.116779e+00 2.079252e+01
      endloop
   endfacet
   facet normal -4.101051e-01 9.120383e-01 0.000000e+00
      outer loop
         vertex 1.932609e+01 5.116779e+00 2.179252e+01
         vertex 1.969471e+01 5.282533e+00 2.079252e+01
         vertex 1.932609e+01 5.116779e+00 2.079252e+01
      endloop
   endfacet
   facet normal 0.000000e+00 0.000000e+00 1.000000e+00
      outer loop
         vertex 2.300000e+01 5.282533e+00 2.179252e+01
         vertex 1.969471e+01 5.282533e+00 2.179252e+01
         vertex 1.932609e+01 5.116779e+00 2.179252e+01
      endloop
   endfacet
   facet normal -4.101051e-01 9.120383e-01 0.000000e+00
      outer loop
         vertex 1.969471e+01 5.282533e+00 2.179252e+01
         vertex 1.969471e+01 5.282533e+00 2.079252e+01
         vertex 1.932609e+01 5.116779e+00 2.179252e+01
      endloop
   endfacet
   facet normal -0.000000e+00 1.000000e+00 0.000000e+00
      outer loop
         vertex 6.999999e+00 5.282533e+00 5.685769e+00
         vertex 1.030529e+01 5.282533e+00 5.685769e+00
         vertex 6.999999e+00 5.282533e+00 4.685767e+00
      endloop
   endfacet
   facet normal 0.000000e+00 1.000000e+00 0.000000e+00
      outer loop
         vertex 1.030529e+01 5.282533e+00 5.685769e+00
         vertex 1.030529e+01 5.282533e+00 4.685767e+00
         vertex 6.999999e+00 5.282533e+00 4.685767e+00
      endloop
   endfacet
   facet normal 0.000000e+00 1.000000e+00 0.000000e+00
      outer loop
         vertex 2.300000e+01 5.282533e+00 5.685769e+00
         vertex 2.300000e+01 5.282533e+00 4.685767e+00
         vertex 1.969471e+01 5.282533e+00 4.685767e+00
      endloop
   endfacet
   facet normal -0.000000e+00 1.000000e+00 0.000000e+00
      outer loop
         vertex 1.969471e+01 5.282533e+00 5.685769e+00
         vertex 2.300000e+01 5.282533e+00 5.685769e+00
         vertex 1.969471e+01 5.282533e+00 4.685767e+00
      endloop
   endfacet
   facet normal -0.000000e+00 1.000000e+00 0.000000e+00
      outer loop
         vertex 6.999999e+00 5.282533e+00 2.179252e+01
         vertex 1.030529e+01 5.282533e+00 2.179252e+01
         vertex 6.999999e+00 5.282533e+00 2.079252e+01
      endloop
   endfacet
   facet normal 0.000000e+00 1.000000e+00 0.000000e+00
      outer loop
         vertex 1.030529e+01 5.282533e+00 2.179252e+01
         vertex 1.030529e+01 5.282533e+00 2.079252e+01
         vertex 6.999999e+00 5.282533e+00 2.079252e+01
      endloop
   endfacet
   facet normal 0.000000e+00 1.000000e+00 0.000000e+00
      outer loop
         vertex 2.300000e+01 5.282533e+00 2.179252e+01
         vertex 2.300000e+01 5.282533e+00 2.079252e+01
         vertex 1.969471e+01 5.282533e+00 2.079252e+01
      endloop
   endfacet
   facet normal -0.000000e+00 1.000000e+00 0.000000e+00
      outer loop
         vertex 1.969471e+01 5.282533e+00 2.179252e+01
         vertex 2.300000e+01 5.282533e+00 2.179252e+01
         vertex 1.969471e+01 5.282533e+00 2.079252e+01
      endloop
   endfacet
endsolid