solid AMS_upper_part
   facet normal 0.000000e+00 -9.205049e-01 -3.907310e-01
      outer loop
         vertex 1.321890e+01 1.697899e+00 0.000000e+00
         vertex 1.419918e+01 0.000000e+00 4.000000e+00
         vertex 4.733060e+00 0.000000e+00 4.000000e+00
      endloop
   endfacet
   facet normal 0.000000e+00 -9.205049e-01 -3.907310e-01
      outer loop
         vertex 5.713342e+00 1.697899e+00 0.000000e+00
         vertex 1.321890e+01 1.697899e+00 0.000000e+00
         vertex 4.733060e+00 0.000000e+00 4.000000e+00
      endloop
   endfacet
   facet normal -7.971806e-01 -4.602524e-01 -3.907311e-01
      outer loop
         vertex 0.000000e+00 8.197899e+00 4.000000e+00
         vertex 5.713342e+00 1.697899e+00 0.000000e+00
         vertex 4.733060e+00 0.000000e+00 4.000000e+00
      endloop
   endfacet
   facet normal 0.000000e+00 0.000000e+00 1.000000e+00
      outer loop
         vertex 1.419918e+01 0.000000e+00 4.000000e+00
         vertex 4.733060e+00 1.639580e+01 4.000000e+00
         vertex 4.733060e+00 0.000000e+00 4.000000e+00
      endloop
   endfacet
   facet normal 0.000000e+00 0.000000e+00 1.000000e+00
      outer loop
         vertex 4.733060e+00 1.639580e+01 4.000000e+00
         vertex 0.000000e+00 8.197899e+00 4.000000e+00
         vertex 4.733060e+00 0.000000e+00 4.000000e+00
      endloop
   endfacet
   facet normal 7.971805e-01 -4.602524e-01 -3.907312e-01
      outer loop
         vertex 1.697167e+01 8.197899e+00 0.000000e+00
         vertex 1.893224e+01 8.197899e+00 4.000000e+00
         vertex 1.419918e+01 0.000000e+00 4.000000e+00
      endloop
   endfacet
   facet normal 7.971806e-01 -4.602524e-01 -3.907311e-01
      outer loop
         vertex 1.321890e+01 1.697899e+00 0.000000e+00
         vertex 1.697167e+01 8.197899e+00 0.000000e+00
         vertex 1.419918e+01 0.000000e+00 4.000000e+00
      endloop
   endfacet
   facet normal 0.000000e+00 0.000000e+00 1.000000e+00
      outer loop
         vertex 1.893224e+01 8.197899e+00 4.000000e+00
         vertex 1.419918e+01 1.639580e+01 4.000000e+00
         vertex 1.419918e+01 0.000000e+00 4.000000e+00
      endloop
   endfacet
   facet normal 0.000000e+00 0.000000e+00 1.000000e+00
      outer loop
         vertex 1.419918e+01 1.639580e+01 4.000000e+00
         vertex 4.733060e+00 1.639580e+01 4.000000e+00
         vertex 1.419918e+01 0.000000e+00 4.000000e+00
      endloop
   endfacet
   facet normal -7.971806e-01 -4.602524e-01 -3.907312e-01
      outer loop
         vertex 0.000000e+00 8.197899e+00 4.000000e+00
         vertex 1.960566e+00 8.197899e+00 0.000000e+00
         vertex 5.713342e+00 1.697899e+00 0.000000e+00
      endloop
   endfacet
   facet normal 0.000000e+00 0.000000e+00 -1.000000e+00
      outer loop
         vertex 1.960566e+00 8.197899e+00 0.000000e+00
         vertex 5.713342e+00 1.469790e+01 0.000000e+00
         vertex 5.713342e+00 1.697899e+00 0.000000e+00
      endloop
   endfacet
   facet normal 0.000000e+00 0.000000e+00 -1.000000e+00
      outer loop
         vertex 5.713342e+00 1.469790e+01 0.000000e+00
         vertex 1.321890e+01 1.469790e+01 0.000000e+00
         vertex 5.713342e+00 1.697899e+00 0.000000e+00
      endloop
   endfacet
   facet normal 0.000000e+00 -0.000000e+00 -1.000000e+00
      outer loop
         vertex 1.321890e+01 1.469790e+01 0.000000e+00
         vertex 1.321890e+01 1.697899e+00 0.000000e+00
         vertex 5.713342e+00 1.697899e+00 0.000000e+00
      endloop
   endfacet
   facet normal 0.000000e+00 0.000000e+00 -1.000000e+00
      outer loop
         vertex 1.321890e+01 1.469790e+01 0.000000e+00
         vertex 1.697167e+01 8.197899e+00 0.000000e+00
         vertex 1.321890e+01 1.697899e+00 0.000000e+00
      endloop
   endfacet
   facet normal -7.971805e-01 4.602524e-01 -3.907312e-01
      outer loop
         vertex 4.733060e+00 1.639580e+01 4.000000e+00
         vertex 1.960566e+00 8.197899e+00 0.000000e+00
         vertex 0.000000e+00 8.197899e+00 4.000000e+00
      endloop
   endfacet
   facet normal -7.971806e-01 4.602524e-01 -3.907311e-01
      outer loop
         vertex 4.733060e+00 1.639580e+01 4.000000e+00
         vertex 5.713342e+00 1.469790e+01 0.000000e+00
         vertex 1.960566e+00 8.197899e+00 0.000000e+00
      endloop
   endfacet
   facet normal 7.971806e-01 4.602524e-01 -3.907312e-01
      outer loop
         vertex 1.321890e+01 1.469790e+01 0.000000e+00
         vertex 1.893224e+01 8.197899e+00 4.000000e+00
         vertex 1.697167e+01 8.197899e+00 0.000000e+00
      endloop
   endfacet
   facet normal 7.971806e-01 4.602524e-01 -3.907311e-01
      outer loop
         vertex 1.321890e+01 1.469790e+01 0.000000e+00
         vertex 1.419918e+01 1.639580e+01 4.000000e+00
         vertex 1.893224e+01 8.197899e+00 4.000000e+00
      endloop
   endfacet
   facet normal 0.000000e+00 9.205049e-01 -3.907310e-01
      outer loop
         vertex 4.733060e+00 1.639580e+01 4.000000e+00
         vertex 1.419918e+01 1.639580e+01 4.000000e+00
         vertex 5.713342e+00 1.469790e+01 0.000000e+00
      endloop
   endfacet
   facet normal 0.000000e+00 9.205049e-01 -3.907310e-01
      outer loop
         vertex 1.419918e+01 1.639580e+01 4.000000e+00
         vertex 1.321890e+01 1.469790e+01 0.000000e+00
         vertex 5.713342e+00 1.469790e+01 0.000000e+00
      endloop
   endfacet
endsolid