solid ELC2_box1
   facet normal 0.000000e+00 -0.000000e+00 -1.000000e+00
      outer loop
         vertex 4.531818e+00 1.675000e+01 0.000000e+00
         vertex 1.953182e+01 1.750000e+00 0.000000e+00
         vertex 0.000000e+00 1.750000e+00 0.000000e+00
      endloop
   endfacet
   facet normal 0.000000e+00 0.000000e+00 -1.000000e+00
      outer loop
         vertex 0.000000e+00 1.675000e+01 0.000000e+00
         vertex 4.531818e+00 1.675000e+01 0.000000e+00
         vertex 0.000000e+00 1.750000e+00 0.000000e+00
      endloop
   endfacet
   facet normal -1.000000e+00 0.000000e+00 0.000000e+00
      outer loop
         vertex 0.000000e+00 1.750000e+00 1.296089e+01
         vertex 0.000000e+00 1.675000e+01 0.000000e+00
         vertex 0.000000e+00 1.750000e+00 0.000000e+00
      endloop
   endfacet
   facet normal -0.000000e+00 -1.000000e+00 0.000000e+00
      outer loop
         vertex 1.953182e+01 1.750000e+00 1.296089e+01
         vertex 0.000000e+00 1.750000e+00 1.296089e+01
         vertex 0.000000e+00 1.750000e+00 0.000000e+00
      endloop
   endfacet
   facet normal 0.000000e+00 -1.000000e+00 0.000000e+00
      outer loop
         vertex 1.953182e+01 1.750000e+00 0.000000e+00
         vertex 1.953182e+01 1.750000e+00 1.296089e+01
         vertex 0.000000e+00 1.750000e+00 0.000000e+00
      endloop
   endfacet
   facet normal 1.000000e+00 0.000000e+00 0.000000e+00
      outer loop
         vertex 1.953182e+01 1.375000e+01 0.000000e+00
         vertex 1.953182e+01 1.750000e+00 1.296089e+01
         vertex 1.953182e+01 1.750000e+00 0.000000e+00
      endloop
   endfacet
   facet normal 0.000000e+00 0.000000e+00 -1.000000e+00
      outer loop
         vertex 4.531818e+00 1.675000e+01 0.000000e+00
         vertex 1.953182e+01 1.375000e+01 0.000000e+00
         vertex 1.953182e+01 1.750000e+00 0.000000e+00
      endloop
   endfacet
   facet normal -1.000000e+00 -0.000000e+00 -0.000000e+00
      outer loop
         vertex 0.000000e+00 1.675000e+01 1.296089e+01
         vertex 0.000000e+00 1.675000e+01 0.000000e+00
         vertex 0.000000e+00 1.750000e+00 1.296089e+01
      endloop
   endfacet
   facet normal 0.000000e+00 0.000000e+00 1.000000e+00
      outer loop
         vertex 4.531818e+00 1.675000e+01 1.296089e+01
         vertex 0.000000e+00 1.675000e+01 1.296089e+01
         vertex 0.000000e+00 1.750000e+00 1.296089e+01
      endloop
   endfacet
   facet normal 0.000000e+00 0.000000e+00 1.000000e+00
      outer loop
         vertex 1.953182e+01 1.750000e+00 1.296089e+01
         vertex 4.531818e+00 1.675000e+01 1.296089e+01
         vertex 0.000000e+00 1.750000e+00 1.296089e+01
      endloop
   endfacet
   facet normal 1.000000e+00 0.000000e+00 -0.000000e+00
      outer loop
         vertex 1.953182e+01 1.375000e+01 0.000000e+00
         vertex 1.953182e+01 1.375000e+01 1.296089e+01
         vertex 1.953182e+01 1.750000e+00 1.296089e+01
      endloop
   endfacet
   facet normal 0.000000e+00 0.000000e+00 1.000000e+00
      outer loop
         vertex 1.953182e+01 1.375000e+01 1.296089e+01
         vertex 4.531818e+00 1.675000e+01 1.296089e+01
         vertex 1.953182e+01 1.750000e+00 1.296089e+01
      endloop
   endfacet
   facet normal 1.961162e-01 9.805807e-01 0.000000e+00
      outer loop
         vertex 4.531818e+00 1.675000e+01 0.000000e+00
         vertex 1.953182e+01 1.375000e+01 1.296089e+01
         vertex 1.953182e+01 1.375000e+01 0.000000e+00
      endloop
   endfacet
   facet normal 1.961162e-01 9.805807e-01 -0.000000e+00
      outer loop
         vertex 4.531818e+00 1.675000e+01 0.000000e+00
         vertex 4.531818e+00 1.675000e+01 1.296089e+01
         vertex 1.953182e+01 1.375000e+01 1.296089e+01
      endloop
   endfacet
   facet normal 0.000000e+00 1.000000e+00 0.000000e+00
      outer loop
         vertex 4.531818e+00 1.675000e+01 1.296089e+01
         vertex 4.531818e+00 1.675000e+01 0.000000e+00
         vertex 0.000000e+00 1.675000e+01 0.000000e+00
      endloop
   endfacet
   facet normal -0.000000e+00 1.000000e+00 0.000000e+00
      outer loop
         vertex 0.000000e+00 1.675000e+01 1.296089e+01
         vertex 4.531818e+00 1.675000e+01 1.296089e+01
         vertex 0.000000e+00 1.675000e+01 0.000000e+00
      endloop
   endfacet
endsolid