solid ELC1-box3
   facet normal -1.000000e+00 0.000000e+00 0.000000e+00
      outer loop
         vertex 6.860867e+00 1.750000e+00 2.035520e+01
         vertex 6.860867e+00 1.875000e+01 0.000000e+00
         vertex 6.860867e+00 1.750000e+00 0.000000e+00
      endloop
   endfacet
   facet normal 0.000000e+00 0.000000e+00 -1.000000e+00
      outer loop
         vertex 6.860867e+00 1.875000e+01 0.000000e+00
         vertex 1.899997e+01 1.875000e+01 0.000000e+00
         vertex 6.860867e+00 1.750000e+00 0.000000e+00
      endloop
   endfacet
   facet normal 0.000000e+00 -0.000000e+00 -1.000000e+00
      outer loop
         vertex 1.899997e+01 1.875000e+01 0.000000e+00
         vertex 1.899997e+01 1.750000e+00 0.000000e+00
         vertex 6.860867e+00 1.750000e+00 0.000000e+00
      endloop
   endfacet
   facet normal 0.000000e+00 -1.000000e+00 0.000000e+00
      outer loop
         vertex 1.899997e+01 1.750000e+00 0.000000e+00
         vertex 1.899997e+01 1.750000e+00 2.035520e+01
         vertex 6.860867e+00 1.750000e+00 0.000000e+00
      endloop
   endfacet
   facet normal -0.000000e+00 -1.000000e+00 0.000000e+00
      outer loop
         vertex 1.899997e+01 1.750000e+00 2.035520e+01
         vertex 6.860867e+00 1.750000e+00 2.035520e+01
         vertex 6.860867e+00 1.750000e+00 0.000000e+00
      endloop
   endfacet
   facet normal 1.000000e+00 0.000000e+00 -0.000000e+00
      outer loop
         vertex 1.899997e+01 1.875000e+01 0.000000e+00
         vertex 1.899997e+01 1.875000e+01 2.035520e+01
         vertex 1.899997e+01 1.750000e+00 0.000000e+00
      endloop
   endfacet
   facet normal 1.000000e+00 0.000000e+00 0.000000e+00
      outer loop
         vertex 1.899997e+01 1.875000e+01 2.035520e+01
         vertex 1.899997e+01 1.750000e+00 2.035520e+01
         vertex 1.899997e+01 1.750000e+00 0.000000e+00
      endloop
   endfacet
   facet normal -1.000000e+00 -0.000000e+00 -0.000000e+00
      outer loop
         vertex 6.860867e+00 1.875000e+01 2.035520e+01
         vertex 6.860867e+00 1.875000e+01 0.000000e+00
         vertex 6.860867e+00 1.750000e+00 2.035520e+01
      endloop
   endfacet
   facet normal 0.000000e+00 0.000000e+00 1.000000e+00
      outer loop
         vertex 1.899997e+01 1.750000e+00 2.035520e+01
         vertex 6.860867e+00 1.875000e+01 2.035520e+01
         vertex 6.860867e+00 1.750000e+00 2.035520e+01
      endloop
   endfacet
   facet normal 0.000000e+00 0.000000e+00 1.000000e+00
      outer loop
         vertex 1.899997e+01 1.875000e+01 2.035520e+01
         vertex 6.860867e+00 1.875000e+01 2.035520e+01
         vertex 1.899997e+01 1.750000e+00 2.035520e+01
      endloop
   endfacet
   facet normal 0.000000e+00 1.000000e+00 0.000000e+00
      outer loop
         vertex 6.860867e+00 1.875000e+01 2.035520e+01
         vertex 1.899997e+01 1.875000e+01 0.000000e+00
         vertex 6.860867e+00 1.875000e+01 0.000000e+00
      endloop
   endfacet
   facet normal -0.000000e+00 1.000000e+00 0.000000e+00
      outer loop
         vertex 6.860867e+00 1.875000e+01 2.035520e+01
         vertex 1.899997e+01 1.875000e+01 2.035520e+01
         vertex 1.899997e+01 1.875000e+01 0.000000e+00
      endloop
   endfacet
endsolid