solid ELC1-box2
   facet normal 0.000000e+00 0.000000e+00 -1.000000e+00
      outer loop
         vertex 0.000000e+00 1.475000e+01 4.767840e+00
         vertex 1.644039e+01 1.475000e+01 4.767840e+00
         vertex 0.000000e+00 1.750000e+00 4.767840e+00
      endloop
   endfacet
   facet normal 0.000000e+00 -0.000000e+00 -1.000000e+00
      outer loop
         vertex 1.644039e+01 1.475000e+01 4.767840e+00
         vertex 1.644039e+01 1.750000e+00 4.767840e+00
         vertex 0.000000e+00 1.750000e+00 4.767840e+00
      endloop
   endfacet
   facet normal -1.000000e+00 0.000000e+00 0.000000e+00
      outer loop
         vertex 0.000000e+00 1.750000e+00 1.505927e+01
         vertex 0.000000e+00 1.475000e+01 4.767840e+00
         vertex 0.000000e+00 1.750000e+00 4.767840e+00
      endloop
   endfacet
   facet normal -0.000000e+00 -1.000000e+00 0.000000e+00
      outer loop
         vertex 1.644039e+01 1.750000e+00 1.505927e+01
         vertex 0.000000e+00 1.750000e+00 1.505927e+01
         vertex 0.000000e+00 1.750000e+00 4.767840e+00
      endloop
   endfacet
   facet normal 0.000000e+00 -1.000000e+00 0.000000e+00
      outer loop
         vertex 1.644039e+01 1.750000e+00 4.767840e+00
         vertex 1.644039e+01 1.750000e+00 1.505927e+01
         vertex 0.000000e+00 1.750000e+00 4.767840e+00
      endloop
   endfacet
   facet normal 1.000000e+00 0.000000e+00 -0.000000e+00
      outer loop
         vertex 1.644039e+01 1.475000e+01 4.767840e+00
         vertex 1.644039e+01 1.475000e+01 1.505927e+01
         vertex 1.644039e+01 1.750000e+00 4.767840e+00
      endloop
   endfacet
   facet normal 1.000000e+00 0.000000e+00 0.000000e+00
      outer loop
         vertex 1.644039e+01 1.475000e+01 1.505927e+01
         vertex 1.644039e+01 1.750000e+00 1.505927e+01
         vertex 1.644039e+01 1.750000e+00 4.767840e+00
      endloop
   endfacet
   facet normal -1.000000e+00 -0.000000e+00 -0.000000e+00
      outer loop
         vertex 0.000000e+00 1.475000e+01 1.505927e+01
         vertex 0.000000e+00 1.475000e+01 4.767840e+00
         vertex 0.000000e+00 1.750000e+00 1.505927e+01
      endloop
   endfacet
   facet normal 0.000000e+00 0.000000e+00 1.000000e+00
      outer loop
         vertex 1.644039e+01 1.750000e+00 1.505927e+01
         vertex 0.000000e+00 1.475000e+01 1.505927e+01
         vertex 0.000000e+00 1.750000e+00 1.505927e+01
      endloop
   endfacet
   facet normal 0.000000e+00 0.000000e+00 1.000000e+00
      outer loop
         vertex 1.644039e+01 1.475000e+01 1.505927e+01
         vertex 0.000000e+00 1.475000e+01 1.505927e+01
         vertex 1.644039e+01 1.750000e+00 1.505927e+01
      endloop
   endfacet
   facet normal 0.000000e+00 1.000000e+00 0.000000e+00
      outer loop
         vertex 0.000000e+00 1.475000e+01 1.505927e+01
         vertex 1.644039e+01 1.475000e+01 4.767840e+00
         vertex 0.000000e+00 1.475000e+01 4.767840e+00
      endloop
   endfacet
   facet normal -0.000000e+00 1.000000e+00 0.000000e+00
      outer loop
         vertex 0.000000e+00 1.475000e+01 1.505927e+01
         vertex 1.644039e+01 1.475000e+01 1.505927e+01
         vertex 1.644039e+01 1.475000e+01 4.767840e+00
      endloop
   endfacet
endsolid